<svg width="45" height="45" viewBox="0 0 45 45" fill="none" xmlns="http://www.w3.org/2000/svg">
<path d="M15.4689 9.84375C15.4689 7.97895 16.2097 6.19052 17.5283 4.87191C18.8469 3.55329 20.6354 2.8125 22.5002 2.8125C24.365 2.8125 26.1534 3.55329 27.472 4.87191C28.7906 6.19052 29.5314 7.97895 29.5314 9.84375C29.5314 11.7086 28.7906 13.497 27.472 14.8156C26.1534 16.1342 24.365 16.875 22.5002 16.875C20.6354 16.875 18.8469 16.1342 17.5283 14.8156C16.2097 13.497 15.4689 11.7086 15.4689 9.84375ZM18.2814 19.6875C17.1625 19.6875 16.0895 20.132 15.2983 20.9231C14.5071 21.7143 14.0627 22.7874 14.0627 23.9062V30.9375C14.0627 33.1753 14.9516 35.3214 16.534 36.9037C18.1163 38.4861 20.2624 39.375 22.5002 39.375C24.7379 39.375 26.884 38.4861 28.4664 36.9037C30.0487 35.3214 30.9377 33.1753 30.9377 30.9375V23.9062C30.9377 22.7874 30.4932 21.7143 29.702 20.9231C28.9109 20.132 27.8378 19.6875 26.7189 19.6875H18.2814ZM11.4077 22.4156C11.3022 22.9055 11.2494 23.4052 11.2502 23.9062V30.9375C11.2499 32.4428 11.5517 33.9328 12.1377 35.3193C12.7237 36.7058 13.582 37.9606 14.6617 39.0094L14.3805 39.0881C12.2196 39.6663 9.91751 39.3627 7.98037 38.2441C6.04323 37.1255 4.62958 35.2834 4.05017 33.1228L2.9561 29.0447C2.81278 28.5095 2.77628 27.9513 2.84867 27.4021C2.92107 26.8528 3.10096 26.3231 3.37806 25.8434C3.65515 25.3636 4.02404 24.9431 4.46365 24.6059C4.90326 24.2687 5.40498 24.0214 5.94017 23.8781L11.4077 22.4156ZM30.3358 39.0094C31.416 37.9608 32.2749 36.7061 32.8613 35.3196C33.4478 33.9331 33.7501 32.443 33.7502 30.9375V23.9062C33.7483 23.3925 33.6958 22.8956 33.5927 22.4156L39.0574 23.8781C39.5928 24.0214 40.0949 24.2688 40.5347 24.6062C40.9745 24.9436 41.3435 25.3643 41.6207 25.8444C41.8978 26.3245 42.0776 26.8545 42.1498 27.4041C42.222 27.9537 42.1852 28.5121 42.0414 29.0475L40.9502 33.1228C40.6571 34.2166 40.1468 35.2401 39.4498 36.1325C38.7528 37.025 37.8833 37.7679 36.8932 38.3172C35.903 38.8665 34.8123 39.2109 33.6863 39.3298C32.5602 39.4487 31.4189 39.3397 30.3358 39.0094ZM2.81267 14.0625C2.81267 12.5707 3.4053 11.1399 4.46019 10.085C5.51508 9.03013 6.94582 8.4375 8.43767 8.4375C9.92951 8.4375 11.3603 9.03013 12.4151 10.085C13.47 11.1399 14.0627 12.5707 14.0627 14.0625C14.0627 15.5543 13.47 16.9851 12.4151 18.04C11.3603 19.0949 9.92951 19.6875 8.43767 19.6875C6.94582 19.6875 5.51508 19.0949 4.46019 18.04C3.4053 16.9851 2.81267 15.5543 2.81267 14.0625ZM30.9377 14.0625C30.9377 12.5707 31.5303 11.1399 32.5852 10.085C33.6401 9.03013 35.0708 8.4375 36.5627 8.4375C38.0545 8.4375 39.4852 9.03013 40.5401 10.085C41.595 11.1399 42.1877 12.5707 42.1877 14.0625C42.1877 15.5543 41.595 16.9851 40.5401 18.04C39.4852 19.0949 38.0545 19.6875 36.5627 19.6875C35.0708 19.6875 33.6401 19.0949 32.5852 18.04C31.5303 16.9851 30.9377 15.5543 30.9377 14.0625Z" fill="#03045E"/>
<path d="M15.4689 9.84375C15.4689 7.97895 16.2097 6.19052 17.5283 4.87191C18.8469 3.55329 20.6354 2.8125 22.5002 2.8125C24.365 2.8125 26.1534 3.55329 27.472 4.87191C28.7906 6.19052 29.5314 7.97895 29.5314 9.84375C29.5314 11.7086 28.7906 13.497 27.472 14.8156C26.1534 16.1342 24.365 16.875 22.5002 16.875C20.6354 16.875 18.8469 16.1342 17.5283 14.8156C16.2097 13.497 15.4689 11.7086 15.4689 9.84375ZM18.2814 19.6875C17.1625 19.6875 16.0895 20.132 15.2983 20.9231C14.5071 21.7143 14.0627 22.7874 14.0627 23.9062V30.9375C14.0627 33.1753 14.9516 35.3214 16.534 36.9037C18.1163 38.4861 20.2624 39.375 22.5002 39.375C24.7379 39.375 26.884 38.4861 28.4664 36.9037C30.0487 35.3214 30.9377 33.1753 30.9377 30.9375V23.9062C30.9377 22.7874 30.4932 21.7143 29.702 20.9231C28.9109 20.132 27.8378 19.6875 26.7189 19.6875H18.2814ZM11.4077 22.4156C11.3022 22.9055 11.2494 23.4052 11.2502 23.9062V30.9375C11.2499 32.4428 11.5517 33.9328 12.1377 35.3193C12.7237 36.7058 13.582 37.9606 14.6617 39.0094L14.3805 39.0881C12.2196 39.6663 9.91751 39.3627 7.98037 38.2441C6.04323 37.1255 4.62958 35.2834 4.05017 33.1228L2.9561 29.0447C2.81278 28.5095 2.77628 27.9513 2.84867 27.4021C2.92107 26.8528 3.10096 26.3231 3.37806 25.8434C3.65515 25.3636 4.02404 24.9431 4.46365 24.6059C4.90326 24.2687 5.40498 24.0214 5.94017 23.8781L11.4077 22.4156ZM30.3358 39.0094C31.416 37.9608 32.2749 36.7061 32.8613 35.3196C33.4478 33.9331 33.7501 32.443 33.7502 30.9375V23.9062C33.7483 23.3925 33.6958 22.8956 33.5927 22.4156L39.0574 23.8781C39.5928 24.0214 40.0949 24.2688 40.5347 24.6062C40.9745 24.9436 41.3435 25.3643 41.6207 25.8444C41.8978 26.3245 42.0776 26.8545 42.1498 27.4041C42.222 27.9537 42.1852 28.5121 42.0414 29.0475L40.9502 33.1228C40.6571 34.2166 40.1468 35.2401 39.4498 36.1325C38.7528 37.025 37.8833 37.7679 36.8932 38.3172C35.903 38.8665 34.8123 39.2109 33.6863 39.3298C32.5602 39.4487 31.4189 39.3397 30.3358 39.0094ZM2.81267 14.0625C2.81267 12.5707 3.4053 11.1399 4.46019 10.085C5.51508 9.03013 6.94582 8.4375 8.43767 8.4375C9.92951 8.4375 11.3603 9.03013 12.4151 10.085C13.47 11.1399 14.0627 12.5707 14.0627 14.0625C14.0627 15.5543 13.47 16.9851 12.4151 18.04C11.3603 19.0949 9.92951 19.6875 8.43767 19.6875C6.94582 19.6875 5.51508 19.0949 4.46019 18.04C3.4053 16.9851 2.81267 15.5543 2.81267 14.0625ZM30.9377 14.0625C30.9377 12.5707 31.5303 11.1399 32.5852 10.085C33.6401 9.03013 35.0708 8.4375 36.5627 8.4375C38.0545 8.4375 39.4852 9.03013 40.5401 10.085C41.595 11.1399 42.1877 12.5707 42.1877 14.0625C42.1877 15.5543 41.595 16.9851 40.5401 18.04C39.4852 19.0949 38.0545 19.6875 36.5627 19.6875C35.0708 19.6875 33.6401 19.0949 32.5852 18.04C31.5303 16.9851 30.9377 15.5543 30.9377 14.0625Z" fill="black" fill-opacity="0.2"/>
</svg>
