<svg width="57" height="20" viewBox="0 0 57 20" fill="none" xmlns="http://www.w3.org/2000/svg">
<rect x="0.75" y="1.25" width="17.5" height="17.5" fill="#FF0000"/>
<rect x="0.75" y="1.25" width="17.5" height="17.5" stroke="#03045E" stroke-width="0.5"/>
<rect x="0.75" y="1.25" width="17.5" height="17.5" stroke="black" stroke-opacity="0.2" stroke-width="0.5"/>
<path d="M25.6477 2.18182V8H24.9432V2.92045H24.9091L23.4886 3.86364V3.14773L24.9432 2.18182H25.6477ZM29.2188 8.07955C28.7907 8.07955 28.4261 7.96307 28.125 7.73011C27.8239 7.49527 27.5938 7.1553 27.4347 6.71023C27.2756 6.26326 27.196 5.72348 27.196 5.09091C27.196 4.46212 27.2756 3.92519 27.4347 3.48011C27.5956 3.03314 27.8267 2.69223 28.1278 2.45739C28.4309 2.22064 28.7945 2.10227 29.2188 2.10227C29.643 2.10227 30.0057 2.22064 30.3068 2.45739C30.6098 2.69223 30.8409 3.03314 31 3.48011C31.161 3.92519 31.2415 4.46212 31.2415 5.09091C31.2415 5.72348 31.1619 6.26326 31.0028 6.71023C30.8438 7.1553 30.6136 7.49527 30.3125 7.73011C30.0114 7.96307 29.6468 8.07955 29.2188 8.07955ZM29.2188 7.45455C29.643 7.45455 29.9725 7.25 30.2074 6.84091C30.4422 6.43182 30.5597 5.84848 30.5597 5.09091C30.5597 4.58712 30.5057 4.15814 30.3977 3.80398C30.2917 3.44981 30.1383 3.17992 29.9375 2.99432C29.7386 2.80871 29.4991 2.71591 29.2188 2.71591C28.7983 2.71591 28.4697 2.9233 28.233 3.33807C27.9962 3.75095 27.8778 4.33523 27.8778 5.09091C27.8778 5.5947 27.9309 6.02273 28.0369 6.375C28.143 6.72727 28.2955 6.99527 28.4943 7.17898C28.6951 7.36269 28.9366 7.45455 29.2188 7.45455ZM34.2188 8.07955C33.7907 8.07955 33.4261 7.96307 33.125 7.73011C32.8239 7.49527 32.5938 7.1553 32.4347 6.71023C32.2756 6.26326 32.196 5.72348 32.196 5.09091C32.196 4.46212 32.2756 3.92519 32.4347 3.48011C32.5956 3.03314 32.8267 2.69223 33.1278 2.45739C33.4309 2.22064 33.7945 2.10227 34.2188 2.10227C34.643 2.10227 35.0057 2.22064 35.3068 2.45739C35.6098 2.69223 35.8409 3.03314 36 3.48011C36.161 3.92519 36.2415 4.46212 36.2415 5.09091C36.2415 5.72348 36.1619 6.26326 36.0028 6.71023C35.8438 7.1553 35.6136 7.49527 35.3125 7.73011C35.0114 7.96307 34.6468 8.07955 34.2188 8.07955ZM34.2188 7.45455C34.643 7.45455 34.9725 7.25 35.2074 6.84091C35.4422 6.43182 35.5597 5.84848 35.5597 5.09091C35.5597 4.58712 35.5057 4.15814 35.3977 3.80398C35.2917 3.44981 35.1383 3.17992 34.9375 2.99432C34.7386 2.80871 34.4991 2.71591 34.2188 2.71591C33.7983 2.71591 33.4697 2.9233 33.233 3.33807C32.9962 3.75095 32.8778 4.33523 32.8778 5.09091C32.8778 5.5947 32.9309 6.02273 33.0369 6.375C33.143 6.72727 33.2955 6.99527 33.4943 7.17898C33.6951 7.36269 33.9366 7.45455 34.2188 7.45455ZM40.2869 6.90909V6.60227C40.2869 6.39015 40.3305 6.19602 40.4176 6.01989C40.5066 5.84186 40.6354 5.69981 40.804 5.59375C40.9744 5.4858 41.1809 5.43182 41.4233 5.43182C41.6695 5.43182 41.8759 5.4858 42.0426 5.59375C42.2093 5.69981 42.3352 5.84186 42.4205 6.01989C42.5057 6.19602 42.5483 6.39015 42.5483 6.60227V6.90909C42.5483 7.12121 42.5047 7.31629 42.4176 7.49432C42.3324 7.67045 42.2055 7.8125 42.0369 7.92045C41.8703 8.02652 41.6657 8.07955 41.4233 8.07955C41.1771 8.07955 40.9697 8.02652 40.8011 7.92045C40.6326 7.8125 40.5047 7.67045 40.4176 7.49432C40.3305 7.31629 40.2869 7.12121 40.2869 6.90909ZM40.8665 6.60227V6.90909C40.8665 7.08523 40.9081 7.24337 40.9915 7.38352C41.0748 7.52178 41.2188 7.59091 41.4233 7.59091C41.6222 7.59091 41.7623 7.52178 41.8438 7.38352C41.9271 7.24337 41.9688 7.08523 41.9688 6.90909V6.60227C41.9688 6.42614 41.929 6.26894 41.8494 6.13068C41.7699 5.99053 41.6278 5.92045 41.4233 5.92045C41.2244 5.92045 41.0814 5.99053 40.9943 6.13068C40.9091 6.26894 40.8665 6.42614 40.8665 6.60227ZM37.3892 3.57955V3.27273C37.3892 3.06061 37.4328 2.86648 37.5199 2.69034C37.6089 2.51231 37.7377 2.37027 37.9062 2.2642C38.0767 2.15625 38.2831 2.10227 38.5256 2.10227C38.7718 2.10227 38.9782 2.15625 39.1449 2.2642C39.3116 2.37027 39.4375 2.51231 39.5227 2.69034C39.608 2.86648 39.6506 3.06061 39.6506 3.27273V3.57955C39.6506 3.79167 39.607 3.98674 39.5199 4.16477C39.4347 4.34091 39.3078 4.48295 39.1392 4.59091C38.9725 4.69697 38.768 4.75 38.5256 4.75C38.2794 4.75 38.072 4.69697 37.9034 4.59091C37.7348 4.48295 37.607 4.34091 37.5199 4.16477C37.4328 3.98674 37.3892 3.79167 37.3892 3.57955ZM37.9688 3.27273V3.57955C37.9688 3.75568 38.0104 3.91383 38.0938 4.05398C38.1771 4.19223 38.321 4.26136 38.5256 4.26136C38.7244 4.26136 38.8646 4.19223 38.946 4.05398C39.0294 3.91383 39.071 3.75568 39.071 3.57955V3.27273C39.071 3.09659 39.0312 2.93939 38.9517 2.80114C38.8722 2.66098 38.7301 2.59091 38.5256 2.59091C38.3267 2.59091 38.1837 2.66098 38.0966 2.80114C38.0114 2.93939 37.9688 3.09659 37.9688 3.27273ZM37.6051 8L41.6051 2.18182H42.2528L38.2528 8H37.6051ZM23.7045 18V12.1818H27.1932V12.8068H24.4091V14.7727H26.9318V15.3977H24.4091V18H23.7045ZM28.2621 18V13.6364H28.9098V14.2955H28.9553C29.0348 14.0795 29.1787 13.9044 29.3871 13.7699C29.5954 13.6354 29.8303 13.5682 30.0916 13.5682C30.1409 13.5682 30.2024 13.5691 30.2763 13.571C30.3501 13.5729 30.406 13.5758 30.4439 13.5795V14.2614C30.4212 14.2557 30.3691 14.2472 30.2876 14.2358C30.2081 14.2225 30.1238 14.2159 30.0348 14.2159C29.8227 14.2159 29.6333 14.2604 29.4666 14.3494C29.3018 14.4366 29.1712 14.5578 29.0746 14.7131C28.9799 14.8665 28.9325 15.0417 28.9325 15.2386V18H28.2621ZM32.5227 18.1023C32.2462 18.1023 31.9953 18.0502 31.7699 17.946C31.5445 17.84 31.3655 17.6875 31.233 17.4886C31.1004 17.2879 31.0341 17.0455 31.0341 16.7614C31.0341 16.5114 31.0833 16.3087 31.1818 16.1534C31.2803 15.9962 31.4119 15.8731 31.5767 15.7841C31.7415 15.6951 31.9233 15.6288 32.1222 15.5852C32.3229 15.5398 32.5246 15.5038 32.7273 15.4773C32.9924 15.4432 33.2074 15.4176 33.3722 15.4006C33.5388 15.3816 33.66 15.3504 33.7358 15.3068C33.8134 15.2633 33.8523 15.1875 33.8523 15.0795V15.0568C33.8523 14.7765 33.7756 14.5587 33.6222 14.4034C33.4706 14.2481 33.2405 14.1705 32.9318 14.1705C32.6117 14.1705 32.3608 14.2405 32.179 14.3807C31.9972 14.5208 31.8693 14.6705 31.7955 14.8295L31.1591 14.6023C31.2727 14.3371 31.4242 14.1307 31.6136 13.983C31.8049 13.8333 32.0133 13.7292 32.2386 13.6705C32.4659 13.6098 32.6894 13.5795 32.9091 13.5795C33.0492 13.5795 33.2102 13.5966 33.392 13.6307C33.5758 13.6629 33.7528 13.7301 33.9233 13.8324C34.0956 13.9347 34.2386 14.089 34.3523 14.2955C34.4659 14.5019 34.5227 14.7784 34.5227 15.125V18H33.8523V17.4091H33.8182C33.7727 17.5038 33.697 17.6051 33.5909 17.7131C33.4848 17.821 33.3438 17.9129 33.1676 17.9886C32.9915 18.0644 32.7765 18.1023 32.5227 18.1023ZM32.625 17.5C32.8902 17.5 33.1136 17.4479 33.2955 17.3438C33.4792 17.2396 33.6174 17.1051 33.7102 16.9403C33.8049 16.7756 33.8523 16.6023 33.8523 16.4205V15.8068C33.8239 15.8409 33.7614 15.8722 33.6648 15.9006C33.5701 15.9271 33.4602 15.9508 33.3352 15.9716C33.2121 15.9905 33.0919 16.0076 32.9744 16.0227C32.8589 16.036 32.7652 16.0473 32.6932 16.0568C32.5189 16.0795 32.3561 16.1165 32.2045 16.1676C32.0549 16.2169 31.9337 16.2917 31.8409 16.392C31.75 16.4905 31.7045 16.625 31.7045 16.7955C31.7045 17.0284 31.7907 17.2045 31.9631 17.3239C32.1373 17.4413 32.358 17.5 32.625 17.5ZM32.9545 13.1477C32.7614 13.1477 32.5862 13.1051 32.429 13.0199C32.2737 12.9347 32.1496 12.8191 32.0568 12.6733C31.9659 12.5275 31.9205 12.3636 31.9205 12.1818C31.9205 12 31.9659 11.8333 32.0568 11.6818C32.1496 11.5303 32.2737 11.4091 32.429 11.3182C32.5862 11.2273 32.7614 11.1818 32.9545 11.1818C33.1477 11.1818 33.321 11.2273 33.4744 11.3182C33.6297 11.4091 33.7519 11.5303 33.8409 11.6818C33.9318 11.8333 33.9773 12 33.9773 12.1818C33.9773 12.3636 33.9318 12.5275 33.8409 12.6733C33.7519 12.8191 33.6297 12.9347 33.4744 13.0199C33.321 13.1051 33.1477 13.1477 32.9545 13.1477ZM32.9545 12.7159C33.1136 12.7159 33.2443 12.661 33.3466 12.5511C33.4489 12.4413 33.5 12.3182 33.5 12.1818C33.5 12.0398 33.4489 11.9119 33.3466 11.7983C33.2443 11.6828 33.1136 11.625 32.9545 11.625C32.7955 11.625 32.6648 11.6828 32.5625 11.7983C32.4602 11.9119 32.4091 12.0398 32.4091 12.1818C32.4091 12.3182 32.4602 12.4413 32.5625 12.5511C32.6648 12.661 32.7955 12.7159 32.9545 12.7159ZM36.4169 15.375V18H35.7464V13.6364H36.3942V14.3182H36.451C36.5533 14.0966 36.7086 13.9186 36.9169 13.7841C37.1252 13.6477 37.3942 13.5795 37.7237 13.5795C38.0192 13.5795 38.2777 13.6402 38.4993 13.7614C38.7209 13.8807 38.8932 14.0625 39.0163 14.3068C39.1394 14.5492 39.201 14.8561 39.201 15.2273V18H38.5305V15.2727C38.5305 14.9299 38.4415 14.6629 38.2635 14.4716C38.0855 14.2784 37.8411 14.1818 37.5305 14.1818C37.3165 14.1818 37.1252 14.2282 36.9567 14.321C36.79 14.4138 36.6584 14.5492 36.5618 14.7273C36.4652 14.9053 36.4169 15.1212 36.4169 15.375ZM43.8381 13.6364L42.2244 18H41.5426L39.929 13.6364H40.6562L41.8608 17.1136H41.9062L43.1108 13.6364H43.8381ZM45.8743 18.1023C45.5978 18.1023 45.3468 18.0502 45.1214 17.946C44.8961 17.84 44.7171 17.6875 44.5845 17.4886C44.4519 17.2879 44.3857 17.0455 44.3857 16.7614C44.3857 16.5114 44.4349 16.3087 44.5334 16.1534C44.6319 15.9962 44.7635 15.8731 44.9283 15.7841C45.093 15.6951 45.2749 15.6288 45.4737 15.5852C45.6745 15.5398 45.8762 15.5038 46.0788 15.4773C46.344 15.4432 46.5589 15.4176 46.7237 15.4006C46.8904 15.3816 47.0116 15.3504 47.0874 15.3068C47.165 15.2633 47.2038 15.1875 47.2038 15.0795V15.0568C47.2038 14.7765 47.1271 14.5587 46.9737 14.4034C46.8222 14.2481 46.5921 14.1705 46.2834 14.1705C45.9633 14.1705 45.7124 14.2405 45.5305 14.3807C45.3487 14.5208 45.2209 14.6705 45.147 14.8295L44.5107 14.6023C44.6243 14.3371 44.7758 14.1307 44.9652 13.983C45.1565 13.8333 45.3648 13.7292 45.5902 13.6705C45.8175 13.6098 46.041 13.5795 46.2607 13.5795C46.4008 13.5795 46.5618 13.5966 46.7436 13.6307C46.9273 13.6629 47.1044 13.7301 47.2749 13.8324C47.4472 13.9347 47.5902 14.089 47.7038 14.2955C47.8175 14.5019 47.8743 14.7784 47.8743 15.125V18H47.2038V17.4091H47.1697C47.1243 17.5038 47.0485 17.6051 46.9425 17.7131C46.8364 17.821 46.6953 17.9129 46.5192 17.9886C46.343 18.0644 46.1281 18.1023 45.8743 18.1023ZM45.9766 17.5C46.2417 17.5 46.4652 17.4479 46.647 17.3438C46.8307 17.2396 46.969 17.1051 47.0618 16.9403C47.1565 16.7756 47.2038 16.6023 47.2038 16.4205V15.8068C47.1754 15.8409 47.1129 15.8722 47.0163 15.9006C46.9216 15.9271 46.8118 15.9508 46.6868 15.9716C46.5637 15.9905 46.4434 16.0076 46.326 16.0227C46.2105 16.036 46.1167 16.0473 46.0447 16.0568C45.8705 16.0795 45.7076 16.1165 45.5561 16.1676C45.4065 16.2169 45.2853 16.2917 45.1925 16.392C45.1016 16.4905 45.0561 16.625 45.0561 16.7955C45.0561 17.0284 45.1423 17.2045 45.3146 17.3239C45.4889 17.4413 45.7095 17.5 45.9766 17.5ZM49.098 18V13.6364H49.7457V14.2955H49.7912C49.8707 14.0795 50.0147 13.9044 50.223 13.7699C50.4313 13.6354 50.6662 13.5682 50.9276 13.5682C50.9768 13.5682 51.0384 13.5691 51.1122 13.571C51.1861 13.5729 51.242 13.5758 51.2798 13.5795V14.2614C51.2571 14.2557 51.205 14.2472 51.1236 14.2358C51.044 14.2225 50.9598 14.2159 50.8707 14.2159C50.6586 14.2159 50.4692 14.2604 50.3026 14.3494C50.1378 14.4366 50.0071 14.5578 49.9105 14.7131C49.8158 14.8665 49.7685 15.0417 49.7685 15.2386V18H49.098ZM53.7145 18.0909C53.3205 18.0909 52.9749 17.9972 52.6776 17.8097C52.3821 17.6222 52.151 17.3598 51.9844 17.0227C51.8196 16.6856 51.7372 16.2917 51.7372 15.8409C51.7372 15.3864 51.8196 14.9896 51.9844 14.6506C52.151 14.3116 52.3821 14.0483 52.6776 13.8608C52.9749 13.6733 53.3205 13.5795 53.7145 13.5795C54.1084 13.5795 54.4531 13.6733 54.7486 13.8608C55.0459 14.0483 55.277 14.3116 55.4418 14.6506C55.6084 14.9896 55.6918 15.3864 55.6918 15.8409C55.6918 16.2917 55.6084 16.6856 55.4418 17.0227C55.277 17.3598 55.0459 17.6222 54.7486 17.8097C54.4531 17.9972 54.1084 18.0909 53.7145 18.0909ZM53.7145 17.4886C54.0137 17.4886 54.2599 17.4119 54.4531 17.2585C54.6463 17.1051 54.7893 16.9034 54.8821 16.6534C54.9749 16.4034 55.0213 16.1326 55.0213 15.8409C55.0213 15.5492 54.9749 15.2775 54.8821 15.0256C54.7893 14.7737 54.6463 14.5701 54.4531 14.4148C54.2599 14.2595 54.0137 14.1818 53.7145 14.1818C53.4152 14.1818 53.169 14.2595 52.9759 14.4148C52.7827 14.5701 52.6397 14.7737 52.5469 15.0256C52.4541 15.2775 52.4077 15.5492 52.4077 15.8409C52.4077 16.1326 52.4541 16.4034 52.5469 16.6534C52.6397 16.9034 52.7827 17.1051 52.9759 17.2585C53.169 17.4119 53.4152 17.4886 53.7145 17.4886Z" fill="#03045E"/>
<path d="M25.6477 2.18182V8H24.9432V2.92045H24.9091L23.4886 3.86364V3.14773L24.9432 2.18182H25.6477ZM29.2188 8.07955C28.7907 8.07955 28.4261 7.96307 28.125 7.73011C27.8239 7.49527 27.5938 7.1553 27.4347 6.71023C27.2756 6.26326 27.196 5.72348 27.196 5.09091C27.196 4.46212 27.2756 3.92519 27.4347 3.48011C27.5956 3.03314 27.8267 2.69223 28.1278 2.45739C28.4309 2.22064 28.7945 2.10227 29.2188 2.10227C29.643 2.10227 30.0057 2.22064 30.3068 2.45739C30.6098 2.69223 30.8409 3.03314 31 3.48011C31.161 3.92519 31.2415 4.46212 31.2415 5.09091C31.2415 5.72348 31.1619 6.26326 31.0028 6.71023C30.8438 7.1553 30.6136 7.49527 30.3125 7.73011C30.0114 7.96307 29.6468 8.07955 29.2188 8.07955ZM29.2188 7.45455C29.643 7.45455 29.9725 7.25 30.2074 6.84091C30.4422 6.43182 30.5597 5.84848 30.5597 5.09091C30.5597 4.58712 30.5057 4.15814 30.3977 3.80398C30.2917 3.44981 30.1383 3.17992 29.9375 2.99432C29.7386 2.80871 29.4991 2.71591 29.2188 2.71591C28.7983 2.71591 28.4697 2.9233 28.233 3.33807C27.9962 3.75095 27.8778 4.33523 27.8778 5.09091C27.8778 5.5947 27.9309 6.02273 28.0369 6.375C28.143 6.72727 28.2955 6.99527 28.4943 7.17898C28.6951 7.36269 28.9366 7.45455 29.2188 7.45455ZM34.2188 8.07955C33.7907 8.07955 33.4261 7.96307 33.125 7.73011C32.8239 7.49527 32.5938 7.1553 32.4347 6.71023C32.2756 6.26326 32.196 5.72348 32.196 5.09091C32.196 4.46212 32.2756 3.92519 32.4347 3.48011C32.5956 3.03314 32.8267 2.69223 33.1278 2.45739C33.4309 2.22064 33.7945 2.10227 34.2188 2.10227C34.643 2.10227 35.0057 2.22064 35.3068 2.45739C35.6098 2.69223 35.8409 3.03314 36 3.48011C36.161 3.92519 36.2415 4.46212 36.2415 5.09091C36.2415 5.72348 36.1619 6.26326 36.0028 6.71023C35.8438 7.1553 35.6136 7.49527 35.3125 7.73011C35.0114 7.96307 34.6468 8.07955 34.2188 8.07955ZM34.2188 7.45455C34.643 7.45455 34.9725 7.25 35.2074 6.84091C35.4422 6.43182 35.5597 5.84848 35.5597 5.09091C35.5597 4.58712 35.5057 4.15814 35.3977 3.80398C35.2917 3.44981 35.1383 3.17992 34.9375 2.99432C34.7386 2.80871 34.4991 2.71591 34.2188 2.71591C33.7983 2.71591 33.4697 2.9233 33.233 3.33807C32.9962 3.75095 32.8778 4.33523 32.8778 5.09091C32.8778 5.5947 32.9309 6.02273 33.0369 6.375C33.143 6.72727 33.2955 6.99527 33.4943 7.17898C33.6951 7.36269 33.9366 7.45455 34.2188 7.45455ZM40.2869 6.90909V6.60227C40.2869 6.39015 40.3305 6.19602 40.4176 6.01989C40.5066 5.84186 40.6354 5.69981 40.804 5.59375C40.9744 5.4858 41.1809 5.43182 41.4233 5.43182C41.6695 5.43182 41.8759 5.4858 42.0426 5.59375C42.2093 5.69981 42.3352 5.84186 42.4205 6.01989C42.5057 6.19602 42.5483 6.39015 42.5483 6.60227V6.90909C42.5483 7.12121 42.5047 7.31629 42.4176 7.49432C42.3324 7.67045 42.2055 7.8125 42.0369 7.92045C41.8703 8.02652 41.6657 8.07955 41.4233 8.07955C41.1771 8.07955 40.9697 8.02652 40.8011 7.92045C40.6326 7.8125 40.5047 7.67045 40.4176 7.49432C40.3305 7.31629 40.2869 7.12121 40.2869 6.90909ZM40.8665 6.60227V6.90909C40.8665 7.08523 40.9081 7.24337 40.9915 7.38352C41.0748 7.52178 41.2188 7.59091 41.4233 7.59091C41.6222 7.59091 41.7623 7.52178 41.8438 7.38352C41.9271 7.24337 41.9688 7.08523 41.9688 6.90909V6.60227C41.9688 6.42614 41.929 6.26894 41.8494 6.13068C41.7699 5.99053 41.6278 5.92045 41.4233 5.92045C41.2244 5.92045 41.0814 5.99053 40.9943 6.13068C40.9091 6.26894 40.8665 6.42614 40.8665 6.60227ZM37.3892 3.57955V3.27273C37.3892 3.06061 37.4328 2.86648 37.5199 2.69034C37.6089 2.51231 37.7377 2.37027 37.9062 2.2642C38.0767 2.15625 38.2831 2.10227 38.5256 2.10227C38.7718 2.10227 38.9782 2.15625 39.1449 2.2642C39.3116 2.37027 39.4375 2.51231 39.5227 2.69034C39.608 2.86648 39.6506 3.06061 39.6506 3.27273V3.57955C39.6506 3.79167 39.607 3.98674 39.5199 4.16477C39.4347 4.34091 39.3078 4.48295 39.1392 4.59091C38.9725 4.69697 38.768 4.75 38.5256 4.75C38.2794 4.75 38.072 4.69697 37.9034 4.59091C37.7348 4.48295 37.607 4.34091 37.5199 4.16477C37.4328 3.98674 37.3892 3.79167 37.3892 3.57955ZM37.9688 3.27273V3.57955C37.9688 3.75568 38.0104 3.91383 38.0938 4.05398C38.1771 4.19223 38.321 4.26136 38.5256 4.26136C38.7244 4.26136 38.8646 4.19223 38.946 4.05398C39.0294 3.91383 39.071 3.75568 39.071 3.57955V3.27273C39.071 3.09659 39.0312 2.93939 38.9517 2.80114C38.8722 2.66098 38.7301 2.59091 38.5256 2.59091C38.3267 2.59091 38.1837 2.66098 38.0966 2.80114C38.0114 2.93939 37.9688 3.09659 37.9688 3.27273ZM37.6051 8L41.6051 2.18182H42.2528L38.2528 8H37.6051ZM23.7045 18V12.1818H27.1932V12.8068H24.4091V14.7727H26.9318V15.3977H24.4091V18H23.7045ZM28.2621 18V13.6364H28.9098V14.2955H28.9553C29.0348 14.0795 29.1787 13.9044 29.3871 13.7699C29.5954 13.6354 29.8303 13.5682 30.0916 13.5682C30.1409 13.5682 30.2024 13.5691 30.2763 13.571C30.3501 13.5729 30.406 13.5758 30.4439 13.5795V14.2614C30.4212 14.2557 30.3691 14.2472 30.2876 14.2358C30.2081 14.2225 30.1238 14.2159 30.0348 14.2159C29.8227 14.2159 29.6333 14.2604 29.4666 14.3494C29.3018 14.4366 29.1712 14.5578 29.0746 14.7131C28.9799 14.8665 28.9325 15.0417 28.9325 15.2386V18H28.2621ZM32.5227 18.1023C32.2462 18.1023 31.9953 18.0502 31.7699 17.946C31.5445 17.84 31.3655 17.6875 31.233 17.4886C31.1004 17.2879 31.0341 17.0455 31.0341 16.7614C31.0341 16.5114 31.0833 16.3087 31.1818 16.1534C31.2803 15.9962 31.4119 15.8731 31.5767 15.7841C31.7415 15.6951 31.9233 15.6288 32.1222 15.5852C32.3229 15.5398 32.5246 15.5038 32.7273 15.4773C32.9924 15.4432 33.2074 15.4176 33.3722 15.4006C33.5388 15.3816 33.66 15.3504 33.7358 15.3068C33.8134 15.2633 33.8523 15.1875 33.8523 15.0795V15.0568C33.8523 14.7765 33.7756 14.5587 33.6222 14.4034C33.4706 14.2481 33.2405 14.1705 32.9318 14.1705C32.6117 14.1705 32.3608 14.2405 32.179 14.3807C31.9972 14.5208 31.8693 14.6705 31.7955 14.8295L31.1591 14.6023C31.2727 14.3371 31.4242 14.1307 31.6136 13.983C31.8049 13.8333 32.0133 13.7292 32.2386 13.6705C32.4659 13.6098 32.6894 13.5795 32.9091 13.5795C33.0492 13.5795 33.2102 13.5966 33.392 13.6307C33.5758 13.6629 33.7528 13.7301 33.9233 13.8324C34.0956 13.9347 34.2386 14.089 34.3523 14.2955C34.4659 14.5019 34.5227 14.7784 34.5227 15.125V18H33.8523V17.4091H33.8182C33.7727 17.5038 33.697 17.6051 33.5909 17.7131C33.4848 17.821 33.3438 17.9129 33.1676 17.9886C32.9915 18.0644 32.7765 18.1023 32.5227 18.1023ZM32.625 17.5C32.8902 17.5 33.1136 17.4479 33.2955 17.3438C33.4792 17.2396 33.6174 17.1051 33.7102 16.9403C33.8049 16.7756 33.8523 16.6023 33.8523 16.4205V15.8068C33.8239 15.8409 33.7614 15.8722 33.6648 15.9006C33.5701 15.9271 33.4602 15.9508 33.3352 15.9716C33.2121 15.9905 33.0919 16.0076 32.9744 16.0227C32.8589 16.036 32.7652 16.0473 32.6932 16.0568C32.5189 16.0795 32.3561 16.1165 32.2045 16.1676C32.0549 16.2169 31.9337 16.2917 31.8409 16.392C31.75 16.4905 31.7045 16.625 31.7045 16.7955C31.7045 17.0284 31.7907 17.2045 31.9631 17.3239C32.1373 17.4413 32.358 17.5 32.625 17.5ZM32.9545 13.1477C32.7614 13.1477 32.5862 13.1051 32.429 13.0199C32.2737 12.9347 32.1496 12.8191 32.0568 12.6733C31.9659 12.5275 31.9205 12.3636 31.9205 12.1818C31.9205 12 31.9659 11.8333 32.0568 11.6818C32.1496 11.5303 32.2737 11.4091 32.429 11.3182C32.5862 11.2273 32.7614 11.1818 32.9545 11.1818C33.1477 11.1818 33.321 11.2273 33.4744 11.3182C33.6297 11.4091 33.7519 11.5303 33.8409 11.6818C33.9318 11.8333 33.9773 12 33.9773 12.1818C33.9773 12.3636 33.9318 12.5275 33.8409 12.6733C33.7519 12.8191 33.6297 12.9347 33.4744 13.0199C33.321 13.1051 33.1477 13.1477 32.9545 13.1477ZM32.9545 12.7159C33.1136 12.7159 33.2443 12.661 33.3466 12.5511C33.4489 12.4413 33.5 12.3182 33.5 12.1818C33.5 12.0398 33.4489 11.9119 33.3466 11.7983C33.2443 11.6828 33.1136 11.625 32.9545 11.625C32.7955 11.625 32.6648 11.6828 32.5625 11.7983C32.4602 11.9119 32.4091 12.0398 32.4091 12.1818C32.4091 12.3182 32.4602 12.4413 32.5625 12.5511C32.6648 12.661 32.7955 12.7159 32.9545 12.7159ZM36.4169 15.375V18H35.7464V13.6364H36.3942V14.3182H36.451C36.5533 14.0966 36.7086 13.9186 36.9169 13.7841C37.1252 13.6477 37.3942 13.5795 37.7237 13.5795C38.0192 13.5795 38.2777 13.6402 38.4993 13.7614C38.7209 13.8807 38.8932 14.0625 39.0163 14.3068C39.1394 14.5492 39.201 14.8561 39.201 15.2273V18H38.5305V15.2727C38.5305 14.9299 38.4415 14.6629 38.2635 14.4716C38.0855 14.2784 37.8411 14.1818 37.5305 14.1818C37.3165 14.1818 37.1252 14.2282 36.9567 14.321C36.79 14.4138 36.6584 14.5492 36.5618 14.7273C36.4652 14.9053 36.4169 15.1212 36.4169 15.375ZM43.8381 13.6364L42.2244 18H41.5426L39.929 13.6364H40.6562L41.8608 17.1136H41.9062L43.1108 13.6364H43.8381ZM45.8743 18.1023C45.5978 18.1023 45.3468 18.0502 45.1214 17.946C44.8961 17.84 44.7171 17.6875 44.5845 17.4886C44.4519 17.2879 44.3857 17.0455 44.3857 16.7614C44.3857 16.5114 44.4349 16.3087 44.5334 16.1534C44.6319 15.9962 44.7635 15.8731 44.9283 15.7841C45.093 15.6951 45.2749 15.6288 45.4737 15.5852C45.6745 15.5398 45.8762 15.5038 46.0788 15.4773C46.344 15.4432 46.5589 15.4176 46.7237 15.4006C46.8904 15.3816 47.0116 15.3504 47.0874 15.3068C47.165 15.2633 47.2038 15.1875 47.2038 15.0795V15.0568C47.2038 14.7765 47.1271 14.5587 46.9737 14.4034C46.8222 14.2481 46.5921 14.1705 46.2834 14.1705C45.9633 14.1705 45.7124 14.2405 45.5305 14.3807C45.3487 14.5208 45.2209 14.6705 45.147 14.8295L44.5107 14.6023C44.6243 14.3371 44.7758 14.1307 44.9652 13.983C45.1565 13.8333 45.3648 13.7292 45.5902 13.6705C45.8175 13.6098 46.041 13.5795 46.2607 13.5795C46.4008 13.5795 46.5618 13.5966 46.7436 13.6307C46.9273 13.6629 47.1044 13.7301 47.2749 13.8324C47.4472 13.9347 47.5902 14.089 47.7038 14.2955C47.8175 14.5019 47.8743 14.7784 47.8743 15.125V18H47.2038V17.4091H47.1697C47.1243 17.5038 47.0485 17.6051 46.9425 17.7131C46.8364 17.821 46.6953 17.9129 46.5192 17.9886C46.343 18.0644 46.1281 18.1023 45.8743 18.1023ZM45.9766 17.5C46.2417 17.5 46.4652 17.4479 46.647 17.3438C46.8307 17.2396 46.969 17.1051 47.0618 16.9403C47.1565 16.7756 47.2038 16.6023 47.2038 16.4205V15.8068C47.1754 15.8409 47.1129 15.8722 47.0163 15.9006C46.9216 15.9271 46.8118 15.9508 46.6868 15.9716C46.5637 15.9905 46.4434 16.0076 46.326 16.0227C46.2105 16.036 46.1167 16.0473 46.0447 16.0568C45.8705 16.0795 45.7076 16.1165 45.5561 16.1676C45.4065 16.2169 45.2853 16.2917 45.1925 16.392C45.1016 16.4905 45.0561 16.625 45.0561 16.7955C45.0561 17.0284 45.1423 17.2045 45.3146 17.3239C45.4889 17.4413 45.7095 17.5 45.9766 17.5ZM49.098 18V13.6364H49.7457V14.2955H49.7912C49.8707 14.0795 50.0147 13.9044 50.223 13.7699C50.4313 13.6354 50.6662 13.5682 50.9276 13.5682C50.9768 13.5682 51.0384 13.5691 51.1122 13.571C51.1861 13.5729 51.242 13.5758 51.2798 13.5795V14.2614C51.2571 14.2557 51.205 14.2472 51.1236 14.2358C51.044 14.2225 50.9598 14.2159 50.8707 14.2159C50.6586 14.2159 50.4692 14.2604 50.3026 14.3494C50.1378 14.4366 50.0071 14.5578 49.9105 14.7131C49.8158 14.8665 49.7685 15.0417 49.7685 15.2386V18H49.098ZM53.7145 18.0909C53.3205 18.0909 52.9749 17.9972 52.6776 17.8097C52.3821 17.6222 52.151 17.3598 51.9844 17.0227C51.8196 16.6856 51.7372 16.2917 51.7372 15.8409C51.7372 15.3864 51.8196 14.9896 51.9844 14.6506C52.151 14.3116 52.3821 14.0483 52.6776 13.8608C52.9749 13.6733 53.3205 13.5795 53.7145 13.5795C54.1084 13.5795 54.4531 13.6733 54.7486 13.8608C55.0459 14.0483 55.277 14.3116 55.4418 14.6506C55.6084 14.9896 55.6918 15.3864 55.6918 15.8409C55.6918 16.2917 55.6084 16.6856 55.4418 17.0227C55.277 17.3598 55.0459 17.6222 54.7486 17.8097C54.4531 17.9972 54.1084 18.0909 53.7145 18.0909ZM53.7145 17.4886C54.0137 17.4886 54.2599 17.4119 54.4531 17.2585C54.6463 17.1051 54.7893 16.9034 54.8821 16.6534C54.9749 16.4034 55.0213 16.1326 55.0213 15.8409C55.0213 15.5492 54.9749 15.2775 54.8821 15.0256C54.7893 14.7737 54.6463 14.5701 54.4531 14.4148C54.2599 14.2595 54.0137 14.1818 53.7145 14.1818C53.4152 14.1818 53.169 14.2595 52.9759 14.4148C52.7827 14.5701 52.6397 14.7737 52.5469 15.0256C52.4541 15.2775 52.4077 15.5492 52.4077 15.8409C52.4077 16.1326 52.4541 16.4034 52.5469 16.6534C52.6397 16.9034 52.7827 17.1051 52.9759 17.2585C53.169 17.4119 53.4152 17.4886 53.7145 17.4886Z" fill="black" fill-opacity="0.2"/>
</svg>
