<svg width="62" height="20" viewBox="0 0 62 20" fill="none" xmlns="http://www.w3.org/2000/svg">
<rect x="0.75" y="1.25" width="17.5" height="17.5" fill="#E9E7E7"/>
<rect x="0.75" y="1.25" width="17.5" height="17.5" stroke="#03045E" stroke-width="0.5"/>
<rect x="0.75" y="1.25" width="17.5" height="17.5" stroke="black" stroke-opacity="0.2" stroke-width="0.5"/>
<path d="M23.3864 2.80682V2.18182H27.75V2.80682H25.9205V8H25.2159V2.80682H23.3864ZM28.7464 8V3.63636H29.4169V8H28.7464ZM29.0874 2.90909C28.9567 2.90909 28.844 2.86458 28.7493 2.77557C28.6565 2.68655 28.6101 2.57955 28.6101 2.45455C28.6101 2.32955 28.6565 2.22254 28.7493 2.13352C28.844 2.04451 28.9567 2 29.0874 2C29.218 2 29.3298 2.04451 29.4226 2.13352C29.5173 2.22254 29.5646 2.32955 29.5646 2.45455C29.5646 2.57955 29.5173 2.68655 29.4226 2.77557C29.3298 2.86458 29.218 2.90909 29.0874 2.90909ZM31.3153 2.18182V8H30.6449V2.18182H31.3153ZM33.2138 2.18182V8H32.5433V2.18182H33.2138ZM36.2031 9.72727C35.8793 9.72727 35.6009 9.68561 35.3679 9.60227C35.1349 9.52083 34.9408 9.41288 34.7855 9.27841C34.6321 9.14583 34.5099 9.00379 34.419 8.85227L34.9531 8.47727C35.0137 8.55682 35.0904 8.64773 35.1832 8.75C35.276 8.85417 35.4029 8.94413 35.5639 9.01989C35.7268 9.09754 35.9399 9.13636 36.2031 9.13636C36.5554 9.13636 36.8461 9.05114 37.0753 8.88068C37.3045 8.71023 37.419 8.44318 37.419 8.07955V7.19318H37.3622C37.313 7.27273 37.2429 7.37121 37.152 7.48864C37.063 7.60417 36.9342 7.70739 36.7656 7.7983C36.599 7.88731 36.3736 7.93182 36.0895 7.93182C35.7372 7.93182 35.4209 7.84848 35.1406 7.68182C34.8622 7.51515 34.6416 7.27273 34.4787 6.95455C34.3177 6.63636 34.2372 6.25 34.2372 5.79545C34.2372 5.34848 34.3158 4.95928 34.473 4.62784C34.6302 4.29451 34.849 4.03693 35.1293 3.85511C35.4096 3.6714 35.7334 3.57955 36.1009 3.57955C36.3849 3.57955 36.6103 3.62689 36.777 3.72159C36.9455 3.81439 37.0743 3.92045 37.1634 4.03977C37.2543 4.1572 37.3243 4.25379 37.3736 4.32955H37.4418V3.63636H38.0895V8.125C38.0895 8.5 38.0043 8.80492 37.8338 9.03977C37.6652 9.27652 37.438 9.44981 37.152 9.55966C36.8679 9.6714 36.5516 9.72727 36.2031 9.72727ZM36.1804 7.32955C36.4493 7.32955 36.6766 7.26799 36.8622 7.14489C37.0478 7.02178 37.1889 6.8447 37.2855 6.61364C37.3821 6.38258 37.4304 6.10606 37.4304 5.78409C37.4304 5.4697 37.383 5.19223 37.2884 4.9517C37.1937 4.71117 37.0535 4.52273 36.8679 4.38636C36.6823 4.25 36.4531 4.18182 36.1804 4.18182C35.8963 4.18182 35.6596 4.25379 35.4702 4.39773C35.2827 4.54167 35.1416 4.73485 35.0469 4.97727C34.9541 5.2197 34.9077 5.48864 34.9077 5.78409C34.9077 6.08712 34.955 6.35511 35.0497 6.58807C35.1463 6.81913 35.2884 7.00095 35.4759 7.13352C35.6652 7.2642 35.9001 7.32955 36.1804 7.32955ZM40.6009 8.10227C40.3243 8.10227 40.0734 8.05019 39.848 7.94602C39.6226 7.83996 39.4437 7.6875 39.3111 7.48864C39.1785 7.28788 39.1122 7.04545 39.1122 6.76136C39.1122 6.51136 39.1615 6.30871 39.2599 6.15341C39.3584 5.99621 39.4901 5.87311 39.6548 5.78409C39.8196 5.69508 40.0014 5.62879 40.2003 5.58523C40.401 5.53977 40.6027 5.50379 40.8054 5.47727C41.0705 5.44318 41.2855 5.41761 41.4503 5.40057C41.617 5.38163 41.7382 5.35038 41.8139 5.30682C41.8916 5.26326 41.9304 5.1875 41.9304 5.07955V5.05682C41.9304 4.77652 41.8537 4.55871 41.7003 4.40341C41.5488 4.24811 41.3187 4.17045 41.0099 4.17045C40.6899 4.17045 40.4389 4.24053 40.2571 4.38068C40.0753 4.52083 39.9474 4.67045 39.8736 4.82955L39.2372 4.60227C39.3509 4.33712 39.5024 4.13068 39.6918 3.98295C39.883 3.83333 40.0914 3.72917 40.3168 3.67045C40.544 3.60985 40.7675 3.57955 40.9872 3.57955C41.1274 3.57955 41.2884 3.59659 41.4702 3.63068C41.6539 3.66288 41.831 3.73011 42.0014 3.83239C42.1738 3.93466 42.3168 4.08902 42.4304 4.29545C42.544 4.50189 42.6009 4.77841 42.6009 5.125V8H41.9304V7.40909H41.8963C41.8509 7.50379 41.7751 7.60511 41.669 7.71307C41.563 7.82102 41.4219 7.91288 41.2457 7.98864C41.0696 8.06439 40.8546 8.10227 40.6009 8.10227ZM40.7031 7.5C40.9683 7.5 41.1918 7.44792 41.3736 7.34375C41.5573 7.23958 41.6955 7.10511 41.7884 6.94034C41.883 6.77557 41.9304 6.60227 41.9304 6.42045V5.80682C41.902 5.84091 41.8395 5.87216 41.7429 5.90057C41.6482 5.92708 41.5384 5.95076 41.4134 5.97159C41.2902 5.99053 41.17 6.00758 41.0526 6.02273C40.937 6.03598 40.8433 6.04735 40.7713 6.05682C40.5971 6.07955 40.4342 6.11648 40.2827 6.16761C40.133 6.21686 40.0118 6.29167 39.919 6.39205C39.8281 6.49053 39.7827 6.625 39.7827 6.79545C39.7827 7.02841 39.8688 7.20455 40.0412 7.32386C40.2154 7.44129 40.4361 7.5 40.7031 7.5ZM40.2145 2.90909C40.0952 2.90909 39.9891 2.86364 39.8963 2.77273C39.8054 2.67992 39.7599 2.57386 39.7599 2.45455C39.7599 2.32386 39.8054 2.21591 39.8963 2.13068C39.9891 2.04356 40.0952 2 40.2145 2C40.3452 2 40.4531 2.04356 40.5384 2.13068C40.6255 2.21591 40.669 2.32386 40.669 2.45455C40.669 2.57386 40.6255 2.67992 40.5384 2.77273C40.4531 2.86364 40.3452 2.90909 40.2145 2.90909ZM41.8509 2.90909C41.7315 2.90909 41.6255 2.86364 41.5327 2.77273C41.4418 2.67992 41.3963 2.57386 41.3963 2.45455C41.3963 2.32386 41.4418 2.21591 41.5327 2.13068C41.6255 2.04356 41.7315 2 41.8509 2C41.9815 2 42.0895 2.04356 42.1747 2.13068C42.2618 2.21591 42.3054 2.32386 42.3054 2.45455C42.3054 2.57386 42.2618 2.67992 42.1747 2.77273C42.0895 2.86364 41.9815 2.90909 41.8509 2.90909ZM44.495 5.375V8H43.8246V3.63636H44.4723V4.31818H44.5291C44.6314 4.09659 44.7867 3.91856 44.995 3.78409C45.2034 3.64773 45.4723 3.57955 45.8018 3.57955C46.0973 3.57955 46.3558 3.64015 46.5774 3.76136C46.799 3.88068 46.9714 4.0625 47.0945 4.30682C47.2176 4.54924 47.2791 4.85606 47.2791 5.22727V8H46.6087V5.27273C46.6087 4.92992 46.5196 4.66288 46.3416 4.47159C46.1636 4.27841 45.9193 4.18182 45.6087 4.18182C45.3946 4.18182 45.2034 4.22822 45.0348 4.32102C44.8681 4.41383 44.7365 4.54924 44.6399 4.72727C44.5433 4.9053 44.495 5.12121 44.495 5.375ZM50.2656 9.72727C49.9418 9.72727 49.6634 9.68561 49.4304 9.60227C49.1974 9.52083 49.0033 9.41288 48.848 9.27841C48.6946 9.14583 48.5724 9.00379 48.4815 8.85227L49.0156 8.47727C49.0762 8.55682 49.1529 8.64773 49.2457 8.75C49.3385 8.85417 49.4654 8.94413 49.6264 9.01989C49.7893 9.09754 50.0024 9.13636 50.2656 9.13636C50.6179 9.13636 50.9086 9.05114 51.1378 8.88068C51.367 8.71023 51.4815 8.44318 51.4815 8.07955V7.19318H51.4247C51.3755 7.27273 51.3054 7.37121 51.2145 7.48864C51.1255 7.60417 50.9967 7.70739 50.8281 7.7983C50.6615 7.88731 50.4361 7.93182 50.152 7.93182C49.7997 7.93182 49.4834 7.84848 49.2031 7.68182C48.9247 7.51515 48.7041 7.27273 48.5412 6.95455C48.3802 6.63636 48.2997 6.25 48.2997 5.79545C48.2997 5.34848 48.3783 4.95928 48.5355 4.62784C48.6927 4.29451 48.9115 4.03693 49.1918 3.85511C49.4721 3.6714 49.7959 3.57955 50.1634 3.57955C50.4474 3.57955 50.6728 3.62689 50.8395 3.72159C51.008 3.81439 51.1368 3.92045 51.2259 4.03977C51.3168 4.1572 51.3868 4.25379 51.4361 4.32955H51.5043V3.63636H52.152V8.125C52.152 8.5 52.0668 8.80492 51.8963 9.03977C51.7277 9.27652 51.5005 9.44981 51.2145 9.55966C50.9304 9.6714 50.6141 9.72727 50.2656 9.72727ZM50.2429 7.32955C50.5118 7.32955 50.7391 7.26799 50.9247 7.14489C51.1103 7.02178 51.2514 6.8447 51.348 6.61364C51.4446 6.38258 51.4929 6.10606 51.4929 5.78409C51.4929 5.4697 51.4455 5.19223 51.3509 4.9517C51.2562 4.71117 51.116 4.52273 50.9304 4.38636C50.7448 4.25 50.5156 4.18182 50.2429 4.18182C49.9588 4.18182 49.7221 4.25379 49.5327 4.39773C49.3452 4.54167 49.2041 4.73485 49.1094 4.97727C49.0166 5.2197 48.9702 5.48864 48.9702 5.78409C48.9702 6.08712 49.0175 6.35511 49.1122 6.58807C49.2088 6.81913 49.3509 7.00095 49.5384 7.13352C49.7277 7.2642 49.9626 7.32955 50.2429 7.32955ZM54.0497 2.18182V8H53.3793V2.18182H54.0497ZM55.2777 8V3.63636H55.9482V8H55.2777ZM55.6186 2.90909C55.4879 2.90909 55.3752 2.86458 55.2805 2.77557C55.1877 2.68655 55.1413 2.57955 55.1413 2.45455C55.1413 2.32955 55.1877 2.22254 55.2805 2.13352C55.3752 2.04451 55.4879 2 55.6186 2C55.7493 2 55.861 2.04451 55.9538 2.13352C56.0485 2.22254 56.0959 2.32955 56.0959 2.45455C56.0959 2.57955 56.0485 2.68655 55.9538 2.77557C55.861 2.86458 55.7493 2.90909 55.6186 2.90909ZM58.9375 9.72727C58.6136 9.72727 58.3352 9.68561 58.1023 9.60227C57.8693 9.52083 57.6752 9.41288 57.5199 9.27841C57.3665 9.14583 57.2443 9.00379 57.1534 8.85227L57.6875 8.47727C57.7481 8.55682 57.8248 8.64773 57.9176 8.75C58.0104 8.85417 58.1373 8.94413 58.2983 9.01989C58.4612 9.09754 58.6742 9.13636 58.9375 9.13636C59.2898 9.13636 59.5805 9.05114 59.8097 8.88068C60.0388 8.71023 60.1534 8.44318 60.1534 8.07955V7.19318H60.0966C60.0473 7.27273 59.9773 7.37121 59.8864 7.48864C59.7973 7.60417 59.6686 7.70739 59.5 7.7983C59.3333 7.88731 59.108 7.93182 58.8239 7.93182C58.4716 7.93182 58.1553 7.84848 57.875 7.68182C57.5966 7.51515 57.3759 7.27273 57.2131 6.95455C57.0521 6.63636 56.9716 6.25 56.9716 5.79545C56.9716 5.34848 57.0502 4.95928 57.2074 4.62784C57.3646 4.29451 57.5833 4.03693 57.8636 3.85511C58.1439 3.6714 58.4678 3.57955 58.8352 3.57955C59.1193 3.57955 59.3447 3.62689 59.5114 3.72159C59.6799 3.81439 59.8087 3.92045 59.8977 4.03977C59.9886 4.1572 60.0587 4.25379 60.108 4.32955H60.1761V3.63636H60.8239V8.125C60.8239 8.5 60.7386 8.80492 60.5682 9.03977C60.3996 9.27652 60.1723 9.44981 59.8864 9.55966C59.6023 9.6714 59.286 9.72727 58.9375 9.72727ZM58.9148 7.32955C59.1837 7.32955 59.411 7.26799 59.5966 7.14489C59.7822 7.02178 59.9233 6.8447 60.0199 6.61364C60.1165 6.38258 60.1648 6.10606 60.1648 5.78409C60.1648 5.4697 60.1174 5.19223 60.0227 4.9517C59.928 4.71117 59.7879 4.52273 59.6023 4.38636C59.4167 4.25 59.1875 4.18182 58.9148 4.18182C58.6307 4.18182 58.3939 4.25379 58.2045 4.39773C58.017 4.54167 57.8759 4.73485 57.7812 4.97727C57.6884 5.2197 57.642 5.48864 57.642 5.78409C57.642 6.08712 57.6894 6.35511 57.7841 6.58807C57.8807 6.81913 58.0227 7.00095 58.2102 7.13352C58.3996 7.2642 58.6345 7.32955 58.9148 7.32955ZM25.5568 13.6364V14.2045H23.2045V13.6364H25.5568ZM23.9091 18V13.0341C23.9091 12.7841 23.9678 12.5758 24.0852 12.4091C24.2027 12.2424 24.3551 12.1174 24.5426 12.0341C24.7301 11.9508 24.928 11.9091 25.1364 11.9091C25.3011 11.9091 25.4356 11.9223 25.5398 11.9489C25.6439 11.9754 25.7216 12 25.7727 12.0227L25.5795 12.6023C25.5455 12.5909 25.4981 12.5767 25.4375 12.5597C25.3788 12.5426 25.3011 12.5341 25.2045 12.5341C24.983 12.5341 24.8229 12.59 24.7244 12.7017C24.6278 12.8134 24.5795 12.9773 24.5795 13.1932V18H23.9091ZM28.0895 18.0909C27.6955 18.0909 27.3499 17.9972 27.0526 17.8097C26.7571 17.6222 26.526 17.3598 26.3594 17.0227C26.1946 16.6856 26.1122 16.2917 26.1122 15.8409C26.1122 15.3864 26.1946 14.9896 26.3594 14.6506C26.526 14.3116 26.7571 14.0483 27.0526 13.8608C27.3499 13.6733 27.6955 13.5795 28.0895 13.5795C28.4834 13.5795 28.8281 13.6733 29.1236 13.8608C29.4209 14.0483 29.652 14.3116 29.8168 14.6506C29.9834 14.9896 30.0668 15.3864 30.0668 15.8409C30.0668 16.2917 29.9834 16.6856 29.8168 17.0227C29.652 17.3598 29.4209 17.6222 29.1236 17.8097C28.8281 17.9972 28.4834 18.0909 28.0895 18.0909ZM28.0895 17.4886C28.3887 17.4886 28.6349 17.4119 28.8281 17.2585C29.0213 17.1051 29.1643 16.9034 29.2571 16.6534C29.3499 16.4034 29.3963 16.1326 29.3963 15.8409C29.3963 15.5492 29.3499 15.2775 29.2571 15.0256C29.1643 14.7737 29.0213 14.5701 28.8281 14.4148C28.6349 14.2595 28.3887 14.1818 28.0895 14.1818C27.7902 14.1818 27.544 14.2595 27.3509 14.4148C27.1577 14.5701 27.0147 14.7737 26.9219 15.0256C26.8291 15.2775 26.7827 15.5492 26.7827 15.8409C26.7827 16.1326 26.8291 16.4034 26.9219 16.6534C27.0147 16.9034 27.1577 17.1051 27.3509 17.2585C27.544 17.4119 27.7902 17.4886 28.0895 17.4886ZM27.2713 12.9091C27.152 12.9091 27.0459 12.8636 26.9531 12.7727C26.8622 12.6799 26.8168 12.5739 26.8168 12.4545C26.8168 12.3239 26.8622 12.2159 26.9531 12.1307C27.0459 12.0436 27.152 12 27.2713 12C27.402 12 27.5099 12.0436 27.5952 12.1307C27.6823 12.2159 27.7259 12.3239 27.7259 12.4545C27.7259 12.5739 27.6823 12.6799 27.5952 12.7727C27.5099 12.8636 27.402 12.9091 27.2713 12.9091ZM28.9077 12.9091C28.7884 12.9091 28.6823 12.8636 28.5895 12.7727C28.4986 12.6799 28.4531 12.5739 28.4531 12.4545C28.4531 12.3239 28.4986 12.2159 28.5895 12.1307C28.6823 12.0436 28.7884 12 28.9077 12C29.0384 12 29.1463 12.0436 29.2315 12.1307C29.3187 12.2159 29.3622 12.3239 29.3622 12.4545C29.3622 12.5739 29.3187 12.6799 29.2315 12.7727C29.1463 12.8636 29.0384 12.9091 28.9077 12.9091ZM31.0902 18V13.6364H31.7379V14.2955H31.7834C31.8629 14.0795 32.0069 13.9044 32.2152 13.7699C32.4235 13.6354 32.6584 13.5682 32.9197 13.5682C32.969 13.5682 33.0305 13.5691 33.1044 13.571C33.1783 13.5729 33.2341 13.5758 33.272 13.5795V14.2614C33.2493 14.2557 33.1972 14.2472 33.1158 14.2358C33.0362 14.2225 32.9519 14.2159 32.8629 14.2159C32.6508 14.2159 32.4614 14.2604 32.2947 14.3494C32.13 14.4366 31.9993 14.5578 31.9027 14.7131C31.808 14.8665 31.7607 15.0417 31.7607 15.2386V18H31.0902ZM37.6009 18.1023C37.3243 18.1023 37.0734 18.0502 36.848 17.946C36.6226 17.84 36.4437 17.6875 36.3111 17.4886C36.1785 17.2879 36.1122 17.0455 36.1122 16.7614C36.1122 16.5114 36.1615 16.3087 36.2599 16.1534C36.3584 15.9962 36.4901 15.8731 36.6548 15.7841C36.8196 15.6951 37.0014 15.6288 37.2003 15.5852C37.401 15.5398 37.6027 15.5038 37.8054 15.4773C38.0705 15.4432 38.2855 15.4176 38.4503 15.4006C38.617 15.3816 38.7382 15.3504 38.8139 15.3068C38.8916 15.2633 38.9304 15.1875 38.9304 15.0795V15.0568C38.9304 14.7765 38.8537 14.5587 38.7003 14.4034C38.5488 14.2481 38.3187 14.1705 38.0099 14.1705C37.6899 14.1705 37.4389 14.2405 37.2571 14.3807C37.0753 14.5208 36.9474 14.6705 36.8736 14.8295L36.2372 14.6023C36.3509 14.3371 36.5024 14.1307 36.6918 13.983C36.883 13.8333 37.0914 13.7292 37.3168 13.6705C37.544 13.6098 37.7675 13.5795 37.9872 13.5795C38.1274 13.5795 38.2884 13.5966 38.4702 13.6307C38.6539 13.6629 38.831 13.7301 39.0014 13.8324C39.1738 13.9347 39.3168 14.089 39.4304 14.2955C39.544 14.5019 39.6009 14.7784 39.6009 15.125V18H38.9304V17.4091H38.8963C38.8509 17.5038 38.7751 17.6051 38.669 17.7131C38.563 17.821 38.4219 17.9129 38.2457 17.9886C38.0696 18.0644 37.8546 18.1023 37.6009 18.1023ZM37.7031 17.5C37.9683 17.5 38.1918 17.4479 38.3736 17.3438C38.5573 17.2396 38.6955 17.1051 38.7884 16.9403C38.883 16.7756 38.9304 16.6023 38.9304 16.4205V15.8068C38.902 15.8409 38.8395 15.8722 38.7429 15.9006C38.6482 15.9271 38.5384 15.9508 38.4134 15.9716C38.2902 15.9905 38.17 16.0076 38.0526 16.0227C37.937 16.036 37.8433 16.0473 37.7713 16.0568C37.5971 16.0795 37.4342 16.1165 37.2827 16.1676C37.133 16.2169 37.0118 16.2917 36.919 16.392C36.8281 16.4905 36.7827 16.625 36.7827 16.7955C36.7827 17.0284 36.8688 17.2045 37.0412 17.3239C37.2154 17.4413 37.4361 17.5 37.7031 17.5ZM40.8246 18V13.6364H41.4723V14.2955H41.5178C41.5973 14.0795 41.7412 13.9044 41.9496 13.7699C42.1579 13.6354 42.3928 13.5682 42.6541 13.5682C42.7034 13.5682 42.7649 13.5691 42.8388 13.571C42.9126 13.5729 42.9685 13.5758 43.0064 13.5795V14.2614C42.9837 14.2557 42.9316 14.2472 42.8501 14.2358C42.7706 14.2225 42.6863 14.2159 42.5973 14.2159C42.3852 14.2159 42.1958 14.2604 42.0291 14.3494C41.8643 14.4366 41.7337 14.5578 41.6371 14.7131C41.5424 14.8665 41.495 15.0417 41.495 15.2386V18H40.8246ZM43.892 18V12.1818H44.5625V14.3295H44.6193C44.6686 14.2538 44.7367 14.1572 44.8239 14.0398C44.9129 13.9205 45.0398 13.8144 45.2045 13.7216C45.3712 13.6269 45.5966 13.5795 45.8807 13.5795C46.2481 13.5795 46.572 13.6714 46.8523 13.8551C47.1326 14.0388 47.3513 14.2992 47.5085 14.6364C47.6657 14.9735 47.7443 15.3712 47.7443 15.8295C47.7443 16.2917 47.6657 16.6922 47.5085 17.0312C47.3513 17.3684 47.1335 17.6297 46.8551 17.8153C46.5767 17.9991 46.2557 18.0909 45.892 18.0909C45.6117 18.0909 45.3873 18.0445 45.2188 17.9517C45.0502 17.857 44.9205 17.75 44.8295 17.6307C44.7386 17.5095 44.6686 17.4091 44.6193 17.3295H44.5398V18H43.892ZM44.5511 15.8182C44.5511 16.1477 44.5994 16.4384 44.696 16.6903C44.7926 16.9403 44.9337 17.1364 45.1193 17.2784C45.3049 17.4186 45.5322 17.4886 45.8011 17.4886C46.0814 17.4886 46.3153 17.4148 46.5028 17.267C46.6922 17.1174 46.8343 16.9167 46.929 16.6648C47.0256 16.411 47.0739 16.1288 47.0739 15.8182C47.0739 15.5114 47.0265 15.2348 46.9318 14.9886C46.839 14.7405 46.6979 14.5445 46.5085 14.4006C46.321 14.2547 46.0852 14.1818 45.8011 14.1818C45.5284 14.1818 45.2992 14.2509 45.1136 14.3892C44.928 14.5256 44.7879 14.7169 44.6932 14.9631C44.5985 15.2074 44.5511 15.4924 44.5511 15.8182ZM50.5994 18.0909C50.179 18.0909 49.8163 17.9981 49.5114 17.8125C49.2083 17.625 48.9744 17.3636 48.8097 17.0284C48.6468 16.6913 48.5653 16.2992 48.5653 15.8523C48.5653 15.4053 48.6468 15.0114 48.8097 14.6705C48.9744 14.3277 49.2036 14.0606 49.4972 13.8693C49.7926 13.6761 50.1373 13.5795 50.5312 13.5795C50.7585 13.5795 50.983 13.6174 51.2045 13.6932C51.4261 13.7689 51.6278 13.892 51.8097 14.0625C51.9915 14.2311 52.1364 14.4545 52.2443 14.733C52.3523 15.0114 52.4062 15.3542 52.4062 15.7614V16.0455H49.0426V15.4659H51.7244C51.7244 15.2197 51.6752 15 51.5767 14.8068C51.4801 14.6136 51.3419 14.4612 51.1619 14.3494C50.9839 14.2377 50.7737 14.1818 50.5312 14.1818C50.2642 14.1818 50.0331 14.2481 49.8381 14.3807C49.6449 14.5114 49.4962 14.6818 49.392 14.892C49.2879 15.1023 49.2358 15.3277 49.2358 15.5682V15.9545C49.2358 16.2841 49.2926 16.5634 49.4062 16.7926C49.5218 17.0199 49.6818 17.1932 49.8864 17.3125C50.0909 17.4299 50.3286 17.4886 50.5994 17.4886C50.7756 17.4886 50.9347 17.464 51.0767 17.4148C51.2206 17.3636 51.3447 17.2879 51.4489 17.1875C51.553 17.0852 51.6335 16.9583 51.6903 16.8068L52.3381 16.9886C52.2699 17.2083 52.1553 17.4015 51.9943 17.5682C51.8333 17.733 51.6345 17.8617 51.3977 17.9545C51.161 18.0455 50.8949 18.0909 50.5994 18.0909ZM55.3239 13.6364V14.2045H53.0625V13.6364H55.3239ZM53.7216 12.5909H54.392V16.75C54.392 16.9394 54.4195 17.0814 54.4744 17.1761C54.5313 17.2689 54.6032 17.3314 54.6903 17.3636C54.7794 17.3939 54.8731 17.4091 54.9716 17.4091C55.0455 17.4091 55.1061 17.4053 55.1534 17.3977C55.2008 17.3883 55.2386 17.3807 55.267 17.375L55.4034 17.9773C55.358 17.9943 55.2945 18.0114 55.2131 18.0284C55.1316 18.0473 55.0284 18.0568 54.9034 18.0568C54.714 18.0568 54.5284 18.0161 54.3466 17.9347C54.1667 17.8532 54.017 17.7292 53.8977 17.5625C53.7803 17.3958 53.7216 17.1856 53.7216 16.9318V12.5909ZM58.1151 18.0909C57.6946 18.0909 57.3319 17.9981 57.027 17.8125C56.724 17.625 56.4901 17.3636 56.3253 17.0284C56.1624 16.6913 56.081 16.2992 56.081 15.8523C56.081 15.4053 56.1624 15.0114 56.3253 14.6705C56.4901 14.3277 56.7192 14.0606 57.0128 13.8693C57.3082 13.6761 57.6529 13.5795 58.0469 13.5795C58.2741 13.5795 58.4986 13.6174 58.7202 13.6932C58.9418 13.7689 59.1435 13.892 59.3253 14.0625C59.5071 14.2311 59.652 14.4545 59.7599 14.733C59.8679 15.0114 59.9219 15.3542 59.9219 15.7614V16.0455H56.5582V15.4659H59.2401C59.2401 15.2197 59.1908 15 59.0923 14.8068C58.9957 14.6136 58.8575 14.4612 58.6776 14.3494C58.4995 14.2377 58.2893 14.1818 58.0469 14.1818C57.7798 14.1818 57.5488 14.2481 57.3537 14.3807C57.1605 14.5114 57.0118 14.6818 56.9077 14.892C56.8035 15.1023 56.7514 15.3277 56.7514 15.5682V15.9545C56.7514 16.2841 56.8082 16.5634 56.9219 16.7926C57.0374 17.0199 57.1974 17.1932 57.402 17.3125C57.6065 17.4299 57.8442 17.4886 58.1151 17.4886C58.2912 17.4886 58.4503 17.464 58.5923 17.4148C58.7363 17.3636 58.8603 17.2879 58.9645 17.1875C59.0687 17.0852 59.1491 16.9583 59.206 16.8068L59.8537 16.9886C59.7855 17.2083 59.6709 17.4015 59.5099 17.5682C59.349 17.733 59.1501 17.8617 58.9134 17.9545C58.6766 18.0455 58.4105 18.0909 58.1151 18.0909Z" fill="#03045E"/>
<path d="M23.3864 2.80682V2.18182H27.75V2.80682H25.9205V8H25.2159V2.80682H23.3864ZM28.7464 8V3.63636H29.4169V8H28.7464ZM29.0874 2.90909C28.9567 2.90909 28.844 2.86458 28.7493 2.77557C28.6565 2.68655 28.6101 2.57955 28.6101 2.45455C28.6101 2.32955 28.6565 2.22254 28.7493 2.13352C28.844 2.04451 28.9567 2 29.0874 2C29.218 2 29.3298 2.04451 29.4226 2.13352C29.5173 2.22254 29.5646 2.32955 29.5646 2.45455C29.5646 2.57955 29.5173 2.68655 29.4226 2.77557C29.3298 2.86458 29.218 2.90909 29.0874 2.90909ZM31.3153 2.18182V8H30.6449V2.18182H31.3153ZM33.2138 2.18182V8H32.5433V2.18182H33.2138ZM36.2031 9.72727C35.8793 9.72727 35.6009 9.68561 35.3679 9.60227C35.1349 9.52083 34.9408 9.41288 34.7855 9.27841C34.6321 9.14583 34.5099 9.00379 34.419 8.85227L34.9531 8.47727C35.0137 8.55682 35.0904 8.64773 35.1832 8.75C35.276 8.85417 35.4029 8.94413 35.5639 9.01989C35.7268 9.09754 35.9399 9.13636 36.2031 9.13636C36.5554 9.13636 36.8461 9.05114 37.0753 8.88068C37.3045 8.71023 37.419 8.44318 37.419 8.07955V7.19318H37.3622C37.313 7.27273 37.2429 7.37121 37.152 7.48864C37.063 7.60417 36.9342 7.70739 36.7656 7.7983C36.599 7.88731 36.3736 7.93182 36.0895 7.93182C35.7372 7.93182 35.4209 7.84848 35.1406 7.68182C34.8622 7.51515 34.6416 7.27273 34.4787 6.95455C34.3177 6.63636 34.2372 6.25 34.2372 5.79545C34.2372 5.34848 34.3158 4.95928 34.473 4.62784C34.6302 4.29451 34.849 4.03693 35.1293 3.85511C35.4096 3.6714 35.7334 3.57955 36.1009 3.57955C36.3849 3.57955 36.6103 3.62689 36.777 3.72159C36.9455 3.81439 37.0743 3.92045 37.1634 4.03977C37.2543 4.1572 37.3243 4.25379 37.3736 4.32955H37.4418V3.63636H38.0895V8.125C38.0895 8.5 38.0043 8.80492 37.8338 9.03977C37.6652 9.27652 37.438 9.44981 37.152 9.55966C36.8679 9.6714 36.5516 9.72727 36.2031 9.72727ZM36.1804 7.32955C36.4493 7.32955 36.6766 7.26799 36.8622 7.14489C37.0478 7.02178 37.1889 6.8447 37.2855 6.61364C37.3821 6.38258 37.4304 6.10606 37.4304 5.78409C37.4304 5.4697 37.383 5.19223 37.2884 4.9517C37.1937 4.71117 37.0535 4.52273 36.8679 4.38636C36.6823 4.25 36.4531 4.18182 36.1804 4.18182C35.8963 4.18182 35.6596 4.25379 35.4702 4.39773C35.2827 4.54167 35.1416 4.73485 35.0469 4.97727C34.9541 5.2197 34.9077 5.48864 34.9077 5.78409C34.9077 6.08712 34.955 6.35511 35.0497 6.58807C35.1463 6.81913 35.2884 7.00095 35.4759 7.13352C35.6652 7.2642 35.9001 7.32955 36.1804 7.32955ZM40.6009 8.10227C40.3243 8.10227 40.0734 8.05019 39.848 7.94602C39.6226 7.83996 39.4437 7.6875 39.3111 7.48864C39.1785 7.28788 39.1122 7.04545 39.1122 6.76136C39.1122 6.51136 39.1615 6.30871 39.2599 6.15341C39.3584 5.99621 39.4901 5.87311 39.6548 5.78409C39.8196 5.69508 40.0014 5.62879 40.2003 5.58523C40.401 5.53977 40.6027 5.50379 40.8054 5.47727C41.0705 5.44318 41.2855 5.41761 41.4503 5.40057C41.617 5.38163 41.7382 5.35038 41.8139 5.30682C41.8916 5.26326 41.9304 5.1875 41.9304 5.07955V5.05682C41.9304 4.77652 41.8537 4.55871 41.7003 4.40341C41.5488 4.24811 41.3187 4.17045 41.0099 4.17045C40.6899 4.17045 40.4389 4.24053 40.2571 4.38068C40.0753 4.52083 39.9474 4.67045 39.8736 4.82955L39.2372 4.60227C39.3509 4.33712 39.5024 4.13068 39.6918 3.98295C39.883 3.83333 40.0914 3.72917 40.3168 3.67045C40.544 3.60985 40.7675 3.57955 40.9872 3.57955C41.1274 3.57955 41.2884 3.59659 41.4702 3.63068C41.6539 3.66288 41.831 3.73011 42.0014 3.83239C42.1738 3.93466 42.3168 4.08902 42.4304 4.29545C42.544 4.50189 42.6009 4.77841 42.6009 5.125V8H41.9304V7.40909H41.8963C41.8509 7.50379 41.7751 7.60511 41.669 7.71307C41.563 7.82102 41.4219 7.91288 41.2457 7.98864C41.0696 8.06439 40.8546 8.10227 40.6009 8.10227ZM40.7031 7.5C40.9683 7.5 41.1918 7.44792 41.3736 7.34375C41.5573 7.23958 41.6955 7.10511 41.7884 6.94034C41.883 6.77557 41.9304 6.60227 41.9304 6.42045V5.80682C41.902 5.84091 41.8395 5.87216 41.7429 5.90057C41.6482 5.92708 41.5384 5.95076 41.4134 5.97159C41.2902 5.99053 41.17 6.00758 41.0526 6.02273C40.937 6.03598 40.8433 6.04735 40.7713 6.05682C40.5971 6.07955 40.4342 6.11648 40.2827 6.16761C40.133 6.21686 40.0118 6.29167 39.919 6.39205C39.8281 6.49053 39.7827 6.625 39.7827 6.79545C39.7827 7.02841 39.8688 7.20455 40.0412 7.32386C40.2154 7.44129 40.4361 7.5 40.7031 7.5ZM40.2145 2.90909C40.0952 2.90909 39.9891 2.86364 39.8963 2.77273C39.8054 2.67992 39.7599 2.57386 39.7599 2.45455C39.7599 2.32386 39.8054 2.21591 39.8963 2.13068C39.9891 2.04356 40.0952 2 40.2145 2C40.3452 2 40.4531 2.04356 40.5384 2.13068C40.6255 2.21591 40.669 2.32386 40.669 2.45455C40.669 2.57386 40.6255 2.67992 40.5384 2.77273C40.4531 2.86364 40.3452 2.90909 40.2145 2.90909ZM41.8509 2.90909C41.7315 2.90909 41.6255 2.86364 41.5327 2.77273C41.4418 2.67992 41.3963 2.57386 41.3963 2.45455C41.3963 2.32386 41.4418 2.21591 41.5327 2.13068C41.6255 2.04356 41.7315 2 41.8509 2C41.9815 2 42.0895 2.04356 42.1747 2.13068C42.2618 2.21591 42.3054 2.32386 42.3054 2.45455C42.3054 2.57386 42.2618 2.67992 42.1747 2.77273C42.0895 2.86364 41.9815 2.90909 41.8509 2.90909ZM44.495 5.375V8H43.8246V3.63636H44.4723V4.31818H44.5291C44.6314 4.09659 44.7867 3.91856 44.995 3.78409C45.2034 3.64773 45.4723 3.57955 45.8018 3.57955C46.0973 3.57955 46.3558 3.64015 46.5774 3.76136C46.799 3.88068 46.9714 4.0625 47.0945 4.30682C47.2176 4.54924 47.2791 4.85606 47.2791 5.22727V8H46.6087V5.27273C46.6087 4.92992 46.5196 4.66288 46.3416 4.47159C46.1636 4.27841 45.9193 4.18182 45.6087 4.18182C45.3946 4.18182 45.2034 4.22822 45.0348 4.32102C44.8681 4.41383 44.7365 4.54924 44.6399 4.72727C44.5433 4.9053 44.495 5.12121 44.495 5.375ZM50.2656 9.72727C49.9418 9.72727 49.6634 9.68561 49.4304 9.60227C49.1974 9.52083 49.0033 9.41288 48.848 9.27841C48.6946 9.14583 48.5724 9.00379 48.4815 8.85227L49.0156 8.47727C49.0762 8.55682 49.1529 8.64773 49.2457 8.75C49.3385 8.85417 49.4654 8.94413 49.6264 9.01989C49.7893 9.09754 50.0024 9.13636 50.2656 9.13636C50.6179 9.13636 50.9086 9.05114 51.1378 8.88068C51.367 8.71023 51.4815 8.44318 51.4815 8.07955V7.19318H51.4247C51.3755 7.27273 51.3054 7.37121 51.2145 7.48864C51.1255 7.60417 50.9967 7.70739 50.8281 7.7983C50.6615 7.88731 50.4361 7.93182 50.152 7.93182C49.7997 7.93182 49.4834 7.84848 49.2031 7.68182C48.9247 7.51515 48.7041 7.27273 48.5412 6.95455C48.3802 6.63636 48.2997 6.25 48.2997 5.79545C48.2997 5.34848 48.3783 4.95928 48.5355 4.62784C48.6927 4.29451 48.9115 4.03693 49.1918 3.85511C49.4721 3.6714 49.7959 3.57955 50.1634 3.57955C50.4474 3.57955 50.6728 3.62689 50.8395 3.72159C51.008 3.81439 51.1368 3.92045 51.2259 4.03977C51.3168 4.1572 51.3868 4.25379 51.4361 4.32955H51.5043V3.63636H52.152V8.125C52.152 8.5 52.0668 8.80492 51.8963 9.03977C51.7277 9.27652 51.5005 9.44981 51.2145 9.55966C50.9304 9.6714 50.6141 9.72727 50.2656 9.72727ZM50.2429 7.32955C50.5118 7.32955 50.7391 7.26799 50.9247 7.14489C51.1103 7.02178 51.2514 6.8447 51.348 6.61364C51.4446 6.38258 51.4929 6.10606 51.4929 5.78409C51.4929 5.4697 51.4455 5.19223 51.3509 4.9517C51.2562 4.71117 51.116 4.52273 50.9304 4.38636C50.7448 4.25 50.5156 4.18182 50.2429 4.18182C49.9588 4.18182 49.7221 4.25379 49.5327 4.39773C49.3452 4.54167 49.2041 4.73485 49.1094 4.97727C49.0166 5.2197 48.9702 5.48864 48.9702 5.78409C48.9702 6.08712 49.0175 6.35511 49.1122 6.58807C49.2088 6.81913 49.3509 7.00095 49.5384 7.13352C49.7277 7.2642 49.9626 7.32955 50.2429 7.32955ZM54.0497 2.18182V8H53.3793V2.18182H54.0497ZM55.2777 8V3.63636H55.9482V8H55.2777ZM55.6186 2.90909C55.4879 2.90909 55.3752 2.86458 55.2805 2.77557C55.1877 2.68655 55.1413 2.57955 55.1413 2.45455C55.1413 2.32955 55.1877 2.22254 55.2805 2.13352C55.3752 2.04451 55.4879 2 55.6186 2C55.7493 2 55.861 2.04451 55.9538 2.13352C56.0485 2.22254 56.0959 2.32955 56.0959 2.45455C56.0959 2.57955 56.0485 2.68655 55.9538 2.77557C55.861 2.86458 55.7493 2.90909 55.6186 2.90909ZM58.9375 9.72727C58.6136 9.72727 58.3352 9.68561 58.1023 9.60227C57.8693 9.52083 57.6752 9.41288 57.5199 9.27841C57.3665 9.14583 57.2443 9.00379 57.1534 8.85227L57.6875 8.47727C57.7481 8.55682 57.8248 8.64773 57.9176 8.75C58.0104 8.85417 58.1373 8.94413 58.2983 9.01989C58.4612 9.09754 58.6742 9.13636 58.9375 9.13636C59.2898 9.13636 59.5805 9.05114 59.8097 8.88068C60.0388 8.71023 60.1534 8.44318 60.1534 8.07955V7.19318H60.0966C60.0473 7.27273 59.9773 7.37121 59.8864 7.48864C59.7973 7.60417 59.6686 7.70739 59.5 7.7983C59.3333 7.88731 59.108 7.93182 58.8239 7.93182C58.4716 7.93182 58.1553 7.84848 57.875 7.68182C57.5966 7.51515 57.3759 7.27273 57.2131 6.95455C57.0521 6.63636 56.9716 6.25 56.9716 5.79545C56.9716 5.34848 57.0502 4.95928 57.2074 4.62784C57.3646 4.29451 57.5833 4.03693 57.8636 3.85511C58.1439 3.6714 58.4678 3.57955 58.8352 3.57955C59.1193 3.57955 59.3447 3.62689 59.5114 3.72159C59.6799 3.81439 59.8087 3.92045 59.8977 4.03977C59.9886 4.1572 60.0587 4.25379 60.108 4.32955H60.1761V3.63636H60.8239V8.125C60.8239 8.5 60.7386 8.80492 60.5682 9.03977C60.3996 9.27652 60.1723 9.44981 59.8864 9.55966C59.6023 9.6714 59.286 9.72727 58.9375 9.72727ZM58.9148 7.32955C59.1837 7.32955 59.411 7.26799 59.5966 7.14489C59.7822 7.02178 59.9233 6.8447 60.0199 6.61364C60.1165 6.38258 60.1648 6.10606 60.1648 5.78409C60.1648 5.4697 60.1174 5.19223 60.0227 4.9517C59.928 4.71117 59.7879 4.52273 59.6023 4.38636C59.4167 4.25 59.1875 4.18182 58.9148 4.18182C58.6307 4.18182 58.3939 4.25379 58.2045 4.39773C58.017 4.54167 57.8759 4.73485 57.7812 4.97727C57.6884 5.2197 57.642 5.48864 57.642 5.78409C57.642 6.08712 57.6894 6.35511 57.7841 6.58807C57.8807 6.81913 58.0227 7.00095 58.2102 7.13352C58.3996 7.2642 58.6345 7.32955 58.9148 7.32955ZM25.5568 13.6364V14.2045H23.2045V13.6364H25.5568ZM23.9091 18V13.0341C23.9091 12.7841 23.9678 12.5758 24.0852 12.4091C24.2027 12.2424 24.3551 12.1174 24.5426 12.0341C24.7301 11.9508 24.928 11.9091 25.1364 11.9091C25.3011 11.9091 25.4356 11.9223 25.5398 11.9489C25.6439 11.9754 25.7216 12 25.7727 12.0227L25.5795 12.6023C25.5455 12.5909 25.4981 12.5767 25.4375 12.5597C25.3788 12.5426 25.3011 12.5341 25.2045 12.5341C24.983 12.5341 24.8229 12.59 24.7244 12.7017C24.6278 12.8134 24.5795 12.9773 24.5795 13.1932V18H23.9091ZM28.0895 18.0909C27.6955 18.0909 27.3499 17.9972 27.0526 17.8097C26.7571 17.6222 26.526 17.3598 26.3594 17.0227C26.1946 16.6856 26.1122 16.2917 26.1122 15.8409C26.1122 15.3864 26.1946 14.9896 26.3594 14.6506C26.526 14.3116 26.7571 14.0483 27.0526 13.8608C27.3499 13.6733 27.6955 13.5795 28.0895 13.5795C28.4834 13.5795 28.8281 13.6733 29.1236 13.8608C29.4209 14.0483 29.652 14.3116 29.8168 14.6506C29.9834 14.9896 30.0668 15.3864 30.0668 15.8409C30.0668 16.2917 29.9834 16.6856 29.8168 17.0227C29.652 17.3598 29.4209 17.6222 29.1236 17.8097C28.8281 17.9972 28.4834 18.0909 28.0895 18.0909ZM28.0895 17.4886C28.3887 17.4886 28.6349 17.4119 28.8281 17.2585C29.0213 17.1051 29.1643 16.9034 29.2571 16.6534C29.3499 16.4034 29.3963 16.1326 29.3963 15.8409C29.3963 15.5492 29.3499 15.2775 29.2571 15.0256C29.1643 14.7737 29.0213 14.5701 28.8281 14.4148C28.6349 14.2595 28.3887 14.1818 28.0895 14.1818C27.7902 14.1818 27.544 14.2595 27.3509 14.4148C27.1577 14.5701 27.0147 14.7737 26.9219 15.0256C26.8291 15.2775 26.7827 15.5492 26.7827 15.8409C26.7827 16.1326 26.8291 16.4034 26.9219 16.6534C27.0147 16.9034 27.1577 17.1051 27.3509 17.2585C27.544 17.4119 27.7902 17.4886 28.0895 17.4886ZM27.2713 12.9091C27.152 12.9091 27.0459 12.8636 26.9531 12.7727C26.8622 12.6799 26.8168 12.5739 26.8168 12.4545C26.8168 12.3239 26.8622 12.2159 26.9531 12.1307C27.0459 12.0436 27.152 12 27.2713 12C27.402 12 27.5099 12.0436 27.5952 12.1307C27.6823 12.2159 27.7259 12.3239 27.7259 12.4545C27.7259 12.5739 27.6823 12.6799 27.5952 12.7727C27.5099 12.8636 27.402 12.9091 27.2713 12.9091ZM28.9077 12.9091C28.7884 12.9091 28.6823 12.8636 28.5895 12.7727C28.4986 12.6799 28.4531 12.5739 28.4531 12.4545C28.4531 12.3239 28.4986 12.2159 28.5895 12.1307C28.6823 12.0436 28.7884 12 28.9077 12C29.0384 12 29.1463 12.0436 29.2315 12.1307C29.3187 12.2159 29.3622 12.3239 29.3622 12.4545C29.3622 12.5739 29.3187 12.6799 29.2315 12.7727C29.1463 12.8636 29.0384 12.9091 28.9077 12.9091ZM31.0902 18V13.6364H31.7379V14.2955H31.7834C31.8629 14.0795 32.0069 13.9044 32.2152 13.7699C32.4235 13.6354 32.6584 13.5682 32.9197 13.5682C32.969 13.5682 33.0305 13.5691 33.1044 13.571C33.1783 13.5729 33.2341 13.5758 33.272 13.5795V14.2614C33.2493 14.2557 33.1972 14.2472 33.1158 14.2358C33.0362 14.2225 32.9519 14.2159 32.8629 14.2159C32.6508 14.2159 32.4614 14.2604 32.2947 14.3494C32.13 14.4366 31.9993 14.5578 31.9027 14.7131C31.808 14.8665 31.7607 15.0417 31.7607 15.2386V18H31.0902ZM37.6009 18.1023C37.3243 18.1023 37.0734 18.0502 36.848 17.946C36.6226 17.84 36.4437 17.6875 36.3111 17.4886C36.1785 17.2879 36.1122 17.0455 36.1122 16.7614C36.1122 16.5114 36.1615 16.3087 36.2599 16.1534C36.3584 15.9962 36.4901 15.8731 36.6548 15.7841C36.8196 15.6951 37.0014 15.6288 37.2003 15.5852C37.401 15.5398 37.6027 15.5038 37.8054 15.4773C38.0705 15.4432 38.2855 15.4176 38.4503 15.4006C38.617 15.3816 38.7382 15.3504 38.8139 15.3068C38.8916 15.2633 38.9304 15.1875 38.9304 15.0795V15.0568C38.9304 14.7765 38.8537 14.5587 38.7003 14.4034C38.5488 14.2481 38.3187 14.1705 38.0099 14.1705C37.6899 14.1705 37.4389 14.2405 37.2571 14.3807C37.0753 14.5208 36.9474 14.6705 36.8736 14.8295L36.2372 14.6023C36.3509 14.3371 36.5024 14.1307 36.6918 13.983C36.883 13.8333 37.0914 13.7292 37.3168 13.6705C37.544 13.6098 37.7675 13.5795 37.9872 13.5795C38.1274 13.5795 38.2884 13.5966 38.4702 13.6307C38.6539 13.6629 38.831 13.7301 39.0014 13.8324C39.1738 13.9347 39.3168 14.089 39.4304 14.2955C39.544 14.5019 39.6009 14.7784 39.6009 15.125V18H38.9304V17.4091H38.8963C38.8509 17.5038 38.7751 17.6051 38.669 17.7131C38.563 17.821 38.4219 17.9129 38.2457 17.9886C38.0696 18.0644 37.8546 18.1023 37.6009 18.1023ZM37.7031 17.5C37.9683 17.5 38.1918 17.4479 38.3736 17.3438C38.5573 17.2396 38.6955 17.1051 38.7884 16.9403C38.883 16.7756 38.9304 16.6023 38.9304 16.4205V15.8068C38.902 15.8409 38.8395 15.8722 38.7429 15.9006C38.6482 15.9271 38.5384 15.9508 38.4134 15.9716C38.2902 15.9905 38.17 16.0076 38.0526 16.0227C37.937 16.036 37.8433 16.0473 37.7713 16.0568C37.5971 16.0795 37.4342 16.1165 37.2827 16.1676C37.133 16.2169 37.0118 16.2917 36.919 16.392C36.8281 16.4905 36.7827 16.625 36.7827 16.7955C36.7827 17.0284 36.8688 17.2045 37.0412 17.3239C37.2154 17.4413 37.4361 17.5 37.7031 17.5ZM40.8246 18V13.6364H41.4723V14.2955H41.5178C41.5973 14.0795 41.7412 13.9044 41.9496 13.7699C42.1579 13.6354 42.3928 13.5682 42.6541 13.5682C42.7034 13.5682 42.7649 13.5691 42.8388 13.571C42.9126 13.5729 42.9685 13.5758 43.0064 13.5795V14.2614C42.9837 14.2557 42.9316 14.2472 42.8501 14.2358C42.7706 14.2225 42.6863 14.2159 42.5973 14.2159C42.3852 14.2159 42.1958 14.2604 42.0291 14.3494C41.8643 14.4366 41.7337 14.5578 41.6371 14.7131C41.5424 14.8665 41.495 15.0417 41.495 15.2386V18H40.8246ZM43.892 18V12.1818H44.5625V14.3295H44.6193C44.6686 14.2538 44.7367 14.1572 44.8239 14.0398C44.9129 13.9205 45.0398 13.8144 45.2045 13.7216C45.3712 13.6269 45.5966 13.5795 45.8807 13.5795C46.2481 13.5795 46.572 13.6714 46.8523 13.8551C47.1326 14.0388 47.3513 14.2992 47.5085 14.6364C47.6657 14.9735 47.7443 15.3712 47.7443 15.8295C47.7443 16.2917 47.6657 16.6922 47.5085 17.0312C47.3513 17.3684 47.1335 17.6297 46.8551 17.8153C46.5767 17.9991 46.2557 18.0909 45.892 18.0909C45.6117 18.0909 45.3873 18.0445 45.2188 17.9517C45.0502 17.857 44.9205 17.75 44.8295 17.6307C44.7386 17.5095 44.6686 17.4091 44.6193 17.3295H44.5398V18H43.892ZM44.5511 15.8182C44.5511 16.1477 44.5994 16.4384 44.696 16.6903C44.7926 16.9403 44.9337 17.1364 45.1193 17.2784C45.3049 17.4186 45.5322 17.4886 45.8011 17.4886C46.0814 17.4886 46.3153 17.4148 46.5028 17.267C46.6922 17.1174 46.8343 16.9167 46.929 16.6648C47.0256 16.411 47.0739 16.1288 47.0739 15.8182C47.0739 15.5114 47.0265 15.2348 46.9318 14.9886C46.839 14.7405 46.6979 14.5445 46.5085 14.4006C46.321 14.2547 46.0852 14.1818 45.8011 14.1818C45.5284 14.1818 45.2992 14.2509 45.1136 14.3892C44.928 14.5256 44.7879 14.7169 44.6932 14.9631C44.5985 15.2074 44.5511 15.4924 44.5511 15.8182ZM50.5994 18.0909C50.179 18.0909 49.8163 17.9981 49.5114 17.8125C49.2083 17.625 48.9744 17.3636 48.8097 17.0284C48.6468 16.6913 48.5653 16.2992 48.5653 15.8523C48.5653 15.4053 48.6468 15.0114 48.8097 14.6705C48.9744 14.3277 49.2036 14.0606 49.4972 13.8693C49.7926 13.6761 50.1373 13.5795 50.5312 13.5795C50.7585 13.5795 50.983 13.6174 51.2045 13.6932C51.4261 13.7689 51.6278 13.892 51.8097 14.0625C51.9915 14.2311 52.1364 14.4545 52.2443 14.733C52.3523 15.0114 52.4062 15.3542 52.4062 15.7614V16.0455H49.0426V15.4659H51.7244C51.7244 15.2197 51.6752 15 51.5767 14.8068C51.4801 14.6136 51.3419 14.4612 51.1619 14.3494C50.9839 14.2377 50.7737 14.1818 50.5312 14.1818C50.2642 14.1818 50.0331 14.2481 49.8381 14.3807C49.6449 14.5114 49.4962 14.6818 49.392 14.892C49.2879 15.1023 49.2358 15.3277 49.2358 15.5682V15.9545C49.2358 16.2841 49.2926 16.5634 49.4062 16.7926C49.5218 17.0199 49.6818 17.1932 49.8864 17.3125C50.0909 17.4299 50.3286 17.4886 50.5994 17.4886C50.7756 17.4886 50.9347 17.464 51.0767 17.4148C51.2206 17.3636 51.3447 17.2879 51.4489 17.1875C51.553 17.0852 51.6335 16.9583 51.6903 16.8068L52.3381 16.9886C52.2699 17.2083 52.1553 17.4015 51.9943 17.5682C51.8333 17.733 51.6345 17.8617 51.3977 17.9545C51.161 18.0455 50.8949 18.0909 50.5994 18.0909ZM55.3239 13.6364V14.2045H53.0625V13.6364H55.3239ZM53.7216 12.5909H54.392V16.75C54.392 16.9394 54.4195 17.0814 54.4744 17.1761C54.5313 17.2689 54.6032 17.3314 54.6903 17.3636C54.7794 17.3939 54.8731 17.4091 54.9716 17.4091C55.0455 17.4091 55.1061 17.4053 55.1534 17.3977C55.2008 17.3883 55.2386 17.3807 55.267 17.375L55.4034 17.9773C55.358 17.9943 55.2945 18.0114 55.2131 18.0284C55.1316 18.0473 55.0284 18.0568 54.9034 18.0568C54.714 18.0568 54.5284 18.0161 54.3466 17.9347C54.1667 17.8532 54.017 17.7292 53.8977 17.5625C53.7803 17.3958 53.7216 17.1856 53.7216 16.9318V12.5909ZM58.1151 18.0909C57.6946 18.0909 57.3319 17.9981 57.027 17.8125C56.724 17.625 56.4901 17.3636 56.3253 17.0284C56.1624 16.6913 56.081 16.2992 56.081 15.8523C56.081 15.4053 56.1624 15.0114 56.3253 14.6705C56.4901 14.3277 56.7192 14.0606 57.0128 13.8693C57.3082 13.6761 57.6529 13.5795 58.0469 13.5795C58.2741 13.5795 58.4986 13.6174 58.7202 13.6932C58.9418 13.7689 59.1435 13.892 59.3253 14.0625C59.5071 14.2311 59.652 14.4545 59.7599 14.733C59.8679 15.0114 59.9219 15.3542 59.9219 15.7614V16.0455H56.5582V15.4659H59.2401C59.2401 15.2197 59.1908 15 59.0923 14.8068C58.9957 14.6136 58.8575 14.4612 58.6776 14.3494C58.4995 14.2377 58.2893 14.1818 58.0469 14.1818C57.7798 14.1818 57.5488 14.2481 57.3537 14.3807C57.1605 14.5114 57.0118 14.6818 56.9077 14.892C56.8035 15.1023 56.7514 15.3277 56.7514 15.5682V15.9545C56.7514 16.2841 56.8082 16.5634 56.9219 16.7926C57.0374 17.0199 57.1974 17.1932 57.402 17.3125C57.6065 17.4299 57.8442 17.4886 58.1151 17.4886C58.2912 17.4886 58.4503 17.464 58.5923 17.4148C58.7363 17.3636 58.8603 17.2879 58.9645 17.1875C59.0687 17.0852 59.1491 16.9583 59.206 16.8068L59.8537 16.9886C59.7855 17.2083 59.6709 17.4015 59.5099 17.5682C59.349 17.733 59.1501 17.8617 58.9134 17.9545C58.6766 18.0455 58.4105 18.0909 58.1151 18.0909Z" fill="black" fill-opacity="0.2"/>
</svg>
