<svg width="64" height="20" viewBox="0 0 64 20" fill="none" xmlns="http://www.w3.org/2000/svg">
<rect x="0.75" y="1.25" width="17.5" height="17.5" stroke="#03045E" stroke-width="0.5" stroke-dasharray="5 5"/>
<rect x="0.75" y="1.25" width="17.5" height="17.5" stroke="black" stroke-opacity="0.2" stroke-width="0.5" stroke-dasharray="5 5"/>
<path d="M23.7045 8V2.18182H25.6705C26.1269 2.18182 26.5 2.2642 26.7898 2.42898C27.0814 2.59186 27.2973 2.8125 27.4375 3.09091C27.5777 3.36932 27.6477 3.67992 27.6477 4.02273C27.6477 4.36553 27.5777 4.67708 27.4375 4.95739C27.2992 5.23769 27.0852 5.46117 26.7955 5.62784C26.5057 5.79261 26.1345 5.875 25.6818 5.875H24.2727V5.25H25.6591C25.9716 5.25 26.2225 5.19602 26.4119 5.08807C26.6013 4.98011 26.7386 4.83428 26.8239 4.65057C26.911 4.46496 26.9545 4.25568 26.9545 4.02273C26.9545 3.78977 26.911 3.58144 26.8239 3.39773C26.7386 3.21402 26.6004 3.07008 26.4091 2.96591C26.2178 2.85985 25.964 2.80682 25.6477 2.80682H24.4091V8H23.7045ZM28.6918 8V3.63636H29.3395V4.29545H29.3849C29.4645 4.07955 29.6084 3.90436 29.8168 3.76989C30.0251 3.63542 30.2599 3.56818 30.5213 3.56818C30.5705 3.56818 30.6321 3.56913 30.706 3.57102C30.7798 3.57292 30.8357 3.57576 30.8736 3.57955V4.26136C30.8509 4.25568 30.7988 4.24716 30.7173 4.2358C30.6378 4.22254 30.5535 4.21591 30.4645 4.21591C30.2524 4.21591 30.063 4.26042 29.8963 4.34943C29.7315 4.43655 29.6009 4.55777 29.5043 4.71307C29.4096 4.86648 29.3622 5.04167 29.3622 5.23864V8H28.6918ZM33.3651 8.09091C32.9446 8.09091 32.5819 7.99811 32.277 7.8125C31.974 7.625 31.7401 7.36364 31.5753 7.02841C31.4124 6.69129 31.331 6.29924 31.331 5.85227C31.331 5.4053 31.4124 5.01136 31.5753 4.67045C31.7401 4.32765 31.9692 4.06061 32.2628 3.86932C32.5582 3.67614 32.9029 3.57955 33.2969 3.57955C33.5241 3.57955 33.7486 3.61742 33.9702 3.69318C34.1918 3.76894 34.3935 3.89205 34.5753 4.0625C34.7571 4.23106 34.902 4.45455 35.0099 4.73295C35.1179 5.01136 35.1719 5.35417 35.1719 5.76136V6.04545H31.8082V5.46591H34.4901C34.4901 5.2197 34.4408 5 34.3423 4.80682C34.2457 4.61364 34.1075 4.46117 33.9276 4.34943C33.7495 4.23769 33.5393 4.18182 33.2969 4.18182C33.0298 4.18182 32.7988 4.24811 32.6037 4.38068C32.4105 4.51136 32.2618 4.68182 32.1577 4.89205C32.0535 5.10227 32.0014 5.32765 32.0014 5.56818V5.95455C32.0014 6.28409 32.0582 6.56345 32.1719 6.79261C32.2874 7.01989 32.4474 7.19318 32.652 7.3125C32.8565 7.42992 33.0942 7.48864 33.3651 7.48864C33.5412 7.48864 33.7003 7.46402 33.8423 7.41477C33.9863 7.36364 34.1103 7.28788 34.2145 7.1875C34.3187 7.08523 34.3991 6.95833 34.456 6.80682L35.1037 6.98864C35.0355 7.20833 34.9209 7.40152 34.7599 7.56818C34.599 7.73295 34.4001 7.86174 34.1634 7.95455C33.9266 8.04545 33.6605 8.09091 33.3651 8.09091ZM36.8622 2.18182V8H36.1918V2.18182H36.8622ZM38.0902 8V3.63636H38.7607V8H38.0902ZM38.4311 2.90909C38.3004 2.90909 38.1877 2.86458 38.093 2.77557C38.0002 2.68655 37.9538 2.57955 37.9538 2.45455C37.9538 2.32955 38.0002 2.22254 38.093 2.13352C38.1877 2.04451 38.3004 2 38.4311 2C38.5618 2 38.6735 2.04451 38.7663 2.13352C38.861 2.22254 38.9084 2.32955 38.9084 2.45455C38.9084 2.57955 38.861 2.68655 38.7663 2.77557C38.6735 2.86458 38.5618 2.90909 38.4311 2.90909ZM39.9886 8V3.63636H40.6364V4.31818H40.6932C40.7841 4.08523 40.9309 3.90436 41.1335 3.77557C41.3362 3.64489 41.5795 3.57955 41.8636 3.57955C42.1515 3.57955 42.3911 3.64489 42.5824 3.77557C42.7756 3.90436 42.9261 4.08523 43.0341 4.31818H43.0795C43.1913 4.0928 43.3589 3.91383 43.5824 3.78125C43.8059 3.64678 44.0739 3.57955 44.3864 3.57955C44.7765 3.57955 45.0956 3.7017 45.3438 3.94602C45.5919 4.18845 45.7159 4.56629 45.7159 5.07955V8H45.0455V5.07955C45.0455 4.75758 44.9574 4.52746 44.7812 4.3892C44.6051 4.25095 44.3977 4.18182 44.1591 4.18182C43.8523 4.18182 43.6146 4.27462 43.446 4.46023C43.2775 4.64394 43.1932 4.87689 43.1932 5.15909V8H42.5114V5.01136C42.5114 4.76326 42.4309 4.56345 42.2699 4.41193C42.1089 4.25852 41.9015 4.18182 41.6477 4.18182C41.4735 4.18182 41.3106 4.22822 41.1591 4.32102C41.0095 4.41383 40.8883 4.54261 40.7955 4.70739C40.7045 4.87027 40.6591 5.05871 40.6591 5.27273V8H39.9886ZM46.9418 8V3.63636H47.6122V8H46.9418ZM47.2827 2.90909C47.152 2.90909 47.0393 2.86458 46.9446 2.77557C46.8518 2.68655 46.8054 2.57955 46.8054 2.45455C46.8054 2.32955 46.8518 2.22254 46.9446 2.13352C47.0393 2.04451 47.152 2 47.2827 2C47.4134 2 47.5251 2.04451 47.6179 2.13352C47.7126 2.22254 47.7599 2.32955 47.7599 2.45455C47.7599 2.57955 47.7126 2.68655 47.6179 2.77557C47.5251 2.86458 47.4134 2.90909 47.2827 2.90909ZM49.5107 5.375V8H48.8402V3.63636H49.4879V4.31818H49.5447C49.647 4.09659 49.8023 3.91856 50.0107 3.78409C50.219 3.64773 50.4879 3.57955 50.8175 3.57955C51.1129 3.57955 51.3714 3.64015 51.593 3.76136C51.8146 3.88068 51.987 4.0625 52.1101 4.30682C52.2332 4.54924 52.2947 4.85606 52.2947 5.22727V8H51.6243V5.27273C51.6243 4.92992 51.5353 4.66288 51.3572 4.47159C51.1792 4.27841 50.9349 4.18182 50.6243 4.18182C50.4103 4.18182 50.219 4.22822 50.0504 4.32102C49.8838 4.41383 49.7521 4.54924 49.6555 4.72727C49.5589 4.9053 49.5107 5.12121 49.5107 5.375ZM54.804 8.10227C54.5275 8.10227 54.2765 8.05019 54.0511 7.94602C53.8258 7.83996 53.6468 7.6875 53.5142 7.48864C53.3816 7.28788 53.3153 7.04545 53.3153 6.76136C53.3153 6.51136 53.3646 6.30871 53.4631 6.15341C53.5616 5.99621 53.6932 5.87311 53.858 5.78409C54.0227 5.69508 54.2045 5.62879 54.4034 5.58523C54.6042 5.53977 54.8059 5.50379 55.0085 5.47727C55.2737 5.44318 55.4886 5.41761 55.6534 5.40057C55.8201 5.38163 55.9413 5.35038 56.017 5.30682C56.0947 5.26326 56.1335 5.1875 56.1335 5.07955V5.05682C56.1335 4.77652 56.0568 4.55871 55.9034 4.40341C55.7519 4.24811 55.5218 4.17045 55.2131 4.17045C54.893 4.17045 54.642 4.24053 54.4602 4.38068C54.2784 4.52083 54.1506 4.67045 54.0767 4.82955L53.4403 4.60227C53.554 4.33712 53.7055 4.13068 53.8949 3.98295C54.0862 3.83333 54.2945 3.72917 54.5199 3.67045C54.7472 3.60985 54.9706 3.57955 55.1903 3.57955C55.3305 3.57955 55.4915 3.59659 55.6733 3.63068C55.857 3.66288 56.0341 3.73011 56.2045 3.83239C56.3769 3.93466 56.5199 4.08902 56.6335 4.29545C56.7472 4.50189 56.804 4.77841 56.804 5.125V8H56.1335V7.40909H56.0994C56.054 7.50379 55.9782 7.60511 55.8722 7.71307C55.7661 7.82102 55.625 7.91288 55.4489 7.98864C55.2727 8.06439 55.0578 8.10227 54.804 8.10227ZM54.9062 7.5C55.1714 7.5 55.3949 7.44792 55.5767 7.34375C55.7604 7.23958 55.8987 7.10511 55.9915 6.94034C56.0862 6.77557 56.1335 6.60227 56.1335 6.42045V5.80682C56.1051 5.84091 56.0426 5.87216 55.946 5.90057C55.8513 5.92708 55.7415 5.95076 55.6165 5.97159C55.4934 5.99053 55.3731 6.00758 55.2557 6.02273C55.1402 6.03598 55.0464 6.04735 54.9744 6.05682C54.8002 6.07955 54.6373 6.11648 54.4858 6.16761C54.3362 6.21686 54.215 6.29167 54.1222 6.39205C54.0313 6.49053 53.9858 6.625 53.9858 6.79545C53.9858 7.02841 54.072 7.20455 54.2443 7.32386C54.4186 7.44129 54.6392 7.5 54.9062 7.5ZM54.4176 2.90909C54.2983 2.90909 54.1922 2.86364 54.0994 2.77273C54.0085 2.67992 53.9631 2.57386 53.9631 2.45455C53.9631 2.32386 54.0085 2.21591 54.0994 2.13068C54.1922 2.04356 54.2983 2 54.4176 2C54.5483 2 54.6563 2.04356 54.7415 2.13068C54.8286 2.21591 54.8722 2.32386 54.8722 2.45455C54.8722 2.57386 54.8286 2.67992 54.7415 2.77273C54.6563 2.86364 54.5483 2.90909 54.4176 2.90909ZM56.054 2.90909C55.9347 2.90909 55.8286 2.86364 55.7358 2.77273C55.6449 2.67992 55.5994 2.57386 55.5994 2.45455C55.5994 2.32386 55.6449 2.21591 55.7358 2.13068C55.8286 2.04356 55.9347 2 56.054 2C56.1847 2 56.2926 2.04356 56.3778 2.13068C56.465 2.21591 56.5085 2.32386 56.5085 2.45455C56.5085 2.57386 56.465 2.67992 56.3778 2.77273C56.2926 2.86364 56.1847 2.90909 56.054 2.90909ZM58.0277 8V3.63636H58.6754V4.29545H58.7209C58.8004 4.07955 58.9444 3.90436 59.1527 3.76989C59.361 3.63542 59.5959 3.56818 59.8572 3.56818C59.9065 3.56818 59.968 3.56913 60.0419 3.57102C60.1158 3.57292 60.1716 3.57576 60.2095 3.57955V4.26136C60.1868 4.25568 60.1347 4.24716 60.0533 4.2358C59.9737 4.22254 59.8894 4.21591 59.8004 4.21591C59.5883 4.21591 59.3989 4.26042 59.2322 4.34943C59.0675 4.43655 58.9368 4.55777 58.8402 4.71307C58.7455 4.86648 58.6982 5.04167 58.6982 5.23864V8H58.0277ZM63.1754 3.63636V4.20455H60.9141V3.63636H63.1754ZM61.5732 2.59091H62.2436V6.75C62.2436 6.93939 62.2711 7.08144 62.326 7.17614C62.3828 7.26894 62.4548 7.33144 62.5419 7.36364C62.6309 7.39394 62.7247 7.40909 62.8232 7.40909C62.897 7.40909 62.9576 7.4053 63.005 7.39773C63.0523 7.38826 63.0902 7.38068 63.1186 7.375L63.255 7.97727C63.2095 7.99432 63.1461 8.01136 63.0646 8.02841C62.9832 8.04735 62.88 8.05682 62.755 8.05682C62.5656 8.05682 62.38 8.0161 62.1982 7.93466C62.0182 7.85322 61.8686 7.72917 61.7493 7.5625C61.6319 7.39583 61.5732 7.18561 61.5732 6.93182V2.59091ZM23.7045 18V12.1818H25.7386C26.1439 12.1818 26.4782 12.2519 26.7415 12.392C27.0047 12.5303 27.2008 12.7169 27.3295 12.9517C27.4583 13.1847 27.5227 13.4432 27.5227 13.7273C27.5227 13.9773 27.4782 14.1837 27.3892 14.3466C27.3021 14.5095 27.1866 14.6383 27.0426 14.733C26.9006 14.8277 26.7462 14.8977 26.5795 14.9432V15C26.7576 15.0114 26.9366 15.0739 27.1165 15.1875C27.2964 15.3011 27.447 15.464 27.5682 15.6761C27.6894 15.8883 27.75 16.1477 27.75 16.4545C27.75 16.7462 27.6837 17.0085 27.5511 17.2415C27.4186 17.4744 27.2093 17.6591 26.9233 17.7955C26.6373 17.9318 26.2652 18 25.8068 18H23.7045ZM24.4091 17.375H25.8068C26.267 17.375 26.5938 17.286 26.7869 17.108C26.982 16.928 27.0795 16.7102 27.0795 16.4545C27.0795 16.2576 27.0294 16.0758 26.929 15.9091C26.8286 15.7405 26.6856 15.6061 26.5 15.5057C26.3144 15.4034 26.0947 15.3523 25.8409 15.3523H24.4091V17.375ZM24.4091 14.7386H25.7159C25.928 14.7386 26.1193 14.697 26.2898 14.6136C26.4621 14.5303 26.5985 14.4129 26.6989 14.2614C26.8011 14.1098 26.8523 13.9318 26.8523 13.7273C26.8523 13.4716 26.7633 13.2547 26.5852 13.0767C26.4072 12.8968 26.125 12.8068 25.7386 12.8068H24.4091V14.7386ZM30.5895 18.0909C30.1955 18.0909 29.8499 17.9972 29.5526 17.8097C29.2571 17.6222 29.026 17.3598 28.8594 17.0227C28.6946 16.6856 28.6122 16.2917 28.6122 15.8409C28.6122 15.3864 28.6946 14.9896 28.8594 14.6506C29.026 14.3116 29.2571 14.0483 29.5526 13.8608C29.8499 13.6733 30.1955 13.5795 30.5895 13.5795C30.9834 13.5795 31.3281 13.6733 31.6236 13.8608C31.9209 14.0483 32.152 14.3116 32.3168 14.6506C32.4834 14.9896 32.5668 15.3864 32.5668 15.8409C32.5668 16.2917 32.4834 16.6856 32.3168 17.0227C32.152 17.3598 31.9209 17.6222 31.6236 17.8097C31.3281 17.9972 30.9834 18.0909 30.5895 18.0909ZM30.5895 17.4886C30.8887 17.4886 31.1349 17.4119 31.3281 17.2585C31.5213 17.1051 31.6643 16.9034 31.7571 16.6534C31.8499 16.4034 31.8963 16.1326 31.8963 15.8409C31.8963 15.5492 31.8499 15.2775 31.7571 15.0256C31.6643 14.7737 31.5213 14.5701 31.3281 14.4148C31.1349 14.2595 30.8887 14.1818 30.5895 14.1818C30.2902 14.1818 30.044 14.2595 29.8509 14.4148C29.6577 14.5701 29.5147 14.7737 29.4219 15.0256C29.3291 15.2775 29.2827 15.5492 29.2827 15.8409C29.2827 16.1326 29.3291 16.4034 29.4219 16.6534C29.5147 16.9034 29.6577 17.1051 29.8509 17.2585C30.044 17.4119 30.2902 17.4886 30.5895 17.4886ZM34.2152 16.4091L34.2038 15.5795H34.3402L36.2493 13.6364H37.0788L35.0447 15.6932H34.9879L34.2152 16.4091ZM33.5902 18V12.1818H34.2607V18H33.5902ZM36.3629 18L34.6584 15.8409L35.1357 15.375L37.2152 18H36.3629ZM39.2259 18.1023C38.9493 18.1023 38.6984 18.0502 38.473 17.946C38.2476 17.84 38.0687 17.6875 37.9361 17.4886C37.8035 17.2879 37.7372 17.0455 37.7372 16.7614C37.7372 16.5114 37.7865 16.3087 37.8849 16.1534C37.9834 15.9962 38.1151 15.8731 38.2798 15.7841C38.4446 15.6951 38.6264 15.6288 38.8253 15.5852C39.026 15.5398 39.2277 15.5038 39.4304 15.4773C39.6955 15.4432 39.9105 15.4176 40.0753 15.4006C40.242 15.3816 40.3632 15.3504 40.4389 15.3068C40.5166 15.2633 40.5554 15.1875 40.5554 15.0795V15.0568C40.5554 14.7765 40.4787 14.5587 40.3253 14.4034C40.1738 14.2481 39.9437 14.1705 39.6349 14.1705C39.3149 14.1705 39.0639 14.2405 38.8821 14.3807C38.7003 14.5208 38.5724 14.6705 38.4986 14.8295L37.8622 14.6023C37.9759 14.3371 38.1274 14.1307 38.3168 13.983C38.508 13.8333 38.7164 13.7292 38.9418 13.6705C39.169 13.6098 39.3925 13.5795 39.6122 13.5795C39.7524 13.5795 39.9134 13.5966 40.0952 13.6307C40.2789 13.6629 40.456 13.7301 40.6264 13.8324C40.7988 13.9347 40.9418 14.089 41.0554 14.2955C41.169 14.5019 41.2259 14.7784 41.2259 15.125V18H40.5554V17.4091H40.5213C40.4759 17.5038 40.4001 17.6051 40.294 17.7131C40.188 17.821 40.0469 17.9129 39.8707 17.9886C39.6946 18.0644 39.4796 18.1023 39.2259 18.1023ZM39.3281 17.5C39.5933 17.5 39.8168 17.4479 39.9986 17.3438C40.1823 17.2396 40.3205 17.1051 40.4134 16.9403C40.508 16.7756 40.5554 16.6023 40.5554 16.4205V15.8068C40.527 15.8409 40.4645 15.8722 40.3679 15.9006C40.2732 15.9271 40.1634 15.9508 40.0384 15.9716C39.9152 15.9905 39.795 16.0076 39.6776 16.0227C39.562 16.036 39.4683 16.0473 39.3963 16.0568C39.2221 16.0795 39.0592 16.1165 38.9077 16.1676C38.758 16.2169 38.6368 16.2917 38.544 16.392C38.4531 16.4905 38.4077 16.625 38.4077 16.7955C38.4077 17.0284 38.4938 17.2045 38.6662 17.3239C38.8404 17.4413 39.0611 17.5 39.3281 17.5ZM44.0973 18.0909C43.7337 18.0909 43.4126 17.9991 43.1342 17.8153C42.8558 17.6297 42.638 17.3684 42.4808 17.0312C42.3236 16.6922 42.245 16.2917 42.245 15.8295C42.245 15.3712 42.3236 14.9735 42.4808 14.6364C42.638 14.2992 42.8568 14.0388 43.1371 13.8551C43.4174 13.6714 43.7412 13.5795 44.1087 13.5795C44.3928 13.5795 44.6172 13.6269 44.782 13.7216C44.9486 13.8144 45.0755 13.9205 45.1626 14.0398C45.2517 14.1572 45.3208 14.2538 45.37 14.3295H45.4268V12.1818H46.0973V18H45.4496V17.3295H45.37C45.3208 17.4091 45.2507 17.5095 45.1598 17.6307C45.0689 17.75 44.9392 17.857 44.7706 17.9517C44.602 18.0445 44.3776 18.0909 44.0973 18.0909ZM44.1882 17.4886C44.4571 17.4886 44.6844 17.4186 44.87 17.2784C45.0556 17.1364 45.1967 16.9403 45.2933 16.6903C45.3899 16.4384 45.4382 16.1477 45.4382 15.8182C45.4382 15.4924 45.3909 15.2074 45.2962 14.9631C45.2015 14.7169 45.0613 14.5256 44.8757 14.3892C44.6901 14.2509 44.4609 14.1818 44.1882 14.1818C43.9041 14.1818 43.6674 14.2547 43.478 14.4006C43.2905 14.5445 43.1494 14.7405 43.0547 14.9886C42.9619 15.2348 42.9155 15.5114 42.9155 15.8182C42.9155 16.1288 42.9628 16.411 43.0575 16.6648C43.1541 16.9167 43.2962 17.1174 43.4837 17.267C43.6731 17.4148 43.9079 17.4886 44.1882 17.4886Z" fill="#03045E"/>
<path d="M23.7045 8V2.18182H25.6705C26.1269 2.18182 26.5 2.2642 26.7898 2.42898C27.0814 2.59186 27.2973 2.8125 27.4375 3.09091C27.5777 3.36932 27.6477 3.67992 27.6477 4.02273C27.6477 4.36553 27.5777 4.67708 27.4375 4.95739C27.2992 5.23769 27.0852 5.46117 26.7955 5.62784C26.5057 5.79261 26.1345 5.875 25.6818 5.875H24.2727V5.25H25.6591C25.9716 5.25 26.2225 5.19602 26.4119 5.08807C26.6013 4.98011 26.7386 4.83428 26.8239 4.65057C26.911 4.46496 26.9545 4.25568 26.9545 4.02273C26.9545 3.78977 26.911 3.58144 26.8239 3.39773C26.7386 3.21402 26.6004 3.07008 26.4091 2.96591C26.2178 2.85985 25.964 2.80682 25.6477 2.80682H24.4091V8H23.7045ZM28.6918 8V3.63636H29.3395V4.29545H29.3849C29.4645 4.07955 29.6084 3.90436 29.8168 3.76989C30.0251 3.63542 30.2599 3.56818 30.5213 3.56818C30.5705 3.56818 30.6321 3.56913 30.706 3.57102C30.7798 3.57292 30.8357 3.57576 30.8736 3.57955V4.26136C30.8509 4.25568 30.7988 4.24716 30.7173 4.2358C30.6378 4.22254 30.5535 4.21591 30.4645 4.21591C30.2524 4.21591 30.063 4.26042 29.8963 4.34943C29.7315 4.43655 29.6009 4.55777 29.5043 4.71307C29.4096 4.86648 29.3622 5.04167 29.3622 5.23864V8H28.6918ZM33.3651 8.09091C32.9446 8.09091 32.5819 7.99811 32.277 7.8125C31.974 7.625 31.7401 7.36364 31.5753 7.02841C31.4124 6.69129 31.331 6.29924 31.331 5.85227C31.331 5.4053 31.4124 5.01136 31.5753 4.67045C31.7401 4.32765 31.9692 4.06061 32.2628 3.86932C32.5582 3.67614 32.9029 3.57955 33.2969 3.57955C33.5241 3.57955 33.7486 3.61742 33.9702 3.69318C34.1918 3.76894 34.3935 3.89205 34.5753 4.0625C34.7571 4.23106 34.902 4.45455 35.0099 4.73295C35.1179 5.01136 35.1719 5.35417 35.1719 5.76136V6.04545H31.8082V5.46591H34.4901C34.4901 5.2197 34.4408 5 34.3423 4.80682C34.2457 4.61364 34.1075 4.46117 33.9276 4.34943C33.7495 4.23769 33.5393 4.18182 33.2969 4.18182C33.0298 4.18182 32.7988 4.24811 32.6037 4.38068C32.4105 4.51136 32.2618 4.68182 32.1577 4.89205C32.0535 5.10227 32.0014 5.32765 32.0014 5.56818V5.95455C32.0014 6.28409 32.0582 6.56345 32.1719 6.79261C32.2874 7.01989 32.4474 7.19318 32.652 7.3125C32.8565 7.42992 33.0942 7.48864 33.3651 7.48864C33.5412 7.48864 33.7003 7.46402 33.8423 7.41477C33.9863 7.36364 34.1103 7.28788 34.2145 7.1875C34.3187 7.08523 34.3991 6.95833 34.456 6.80682L35.1037 6.98864C35.0355 7.20833 34.9209 7.40152 34.7599 7.56818C34.599 7.73295 34.4001 7.86174 34.1634 7.95455C33.9266 8.04545 33.6605 8.09091 33.3651 8.09091ZM36.8622 2.18182V8H36.1918V2.18182H36.8622ZM38.0902 8V3.63636H38.7607V8H38.0902ZM38.4311 2.90909C38.3004 2.90909 38.1877 2.86458 38.093 2.77557C38.0002 2.68655 37.9538 2.57955 37.9538 2.45455C37.9538 2.32955 38.0002 2.22254 38.093 2.13352C38.1877 2.04451 38.3004 2 38.4311 2C38.5618 2 38.6735 2.04451 38.7663 2.13352C38.861 2.22254 38.9084 2.32955 38.9084 2.45455C38.9084 2.57955 38.861 2.68655 38.7663 2.77557C38.6735 2.86458 38.5618 2.90909 38.4311 2.90909ZM39.9886 8V3.63636H40.6364V4.31818H40.6932C40.7841 4.08523 40.9309 3.90436 41.1335 3.77557C41.3362 3.64489 41.5795 3.57955 41.8636 3.57955C42.1515 3.57955 42.3911 3.64489 42.5824 3.77557C42.7756 3.90436 42.9261 4.08523 43.0341 4.31818H43.0795C43.1913 4.0928 43.3589 3.91383 43.5824 3.78125C43.8059 3.64678 44.0739 3.57955 44.3864 3.57955C44.7765 3.57955 45.0956 3.7017 45.3438 3.94602C45.5919 4.18845 45.7159 4.56629 45.7159 5.07955V8H45.0455V5.07955C45.0455 4.75758 44.9574 4.52746 44.7812 4.3892C44.6051 4.25095 44.3977 4.18182 44.1591 4.18182C43.8523 4.18182 43.6146 4.27462 43.446 4.46023C43.2775 4.64394 43.1932 4.87689 43.1932 5.15909V8H42.5114V5.01136C42.5114 4.76326 42.4309 4.56345 42.2699 4.41193C42.1089 4.25852 41.9015 4.18182 41.6477 4.18182C41.4735 4.18182 41.3106 4.22822 41.1591 4.32102C41.0095 4.41383 40.8883 4.54261 40.7955 4.70739C40.7045 4.87027 40.6591 5.05871 40.6591 5.27273V8H39.9886ZM46.9418 8V3.63636H47.6122V8H46.9418ZM47.2827 2.90909C47.152 2.90909 47.0393 2.86458 46.9446 2.77557C46.8518 2.68655 46.8054 2.57955 46.8054 2.45455C46.8054 2.32955 46.8518 2.22254 46.9446 2.13352C47.0393 2.04451 47.152 2 47.2827 2C47.4134 2 47.5251 2.04451 47.6179 2.13352C47.7126 2.22254 47.7599 2.32955 47.7599 2.45455C47.7599 2.57955 47.7126 2.68655 47.6179 2.77557C47.5251 2.86458 47.4134 2.90909 47.2827 2.90909ZM49.5107 5.375V8H48.8402V3.63636H49.4879V4.31818H49.5447C49.647 4.09659 49.8023 3.91856 50.0107 3.78409C50.219 3.64773 50.4879 3.57955 50.8175 3.57955C51.1129 3.57955 51.3714 3.64015 51.593 3.76136C51.8146 3.88068 51.987 4.0625 52.1101 4.30682C52.2332 4.54924 52.2947 4.85606 52.2947 5.22727V8H51.6243V5.27273C51.6243 4.92992 51.5353 4.66288 51.3572 4.47159C51.1792 4.27841 50.9349 4.18182 50.6243 4.18182C50.4103 4.18182 50.219 4.22822 50.0504 4.32102C49.8838 4.41383 49.7521 4.54924 49.6555 4.72727C49.5589 4.9053 49.5107 5.12121 49.5107 5.375ZM54.804 8.10227C54.5275 8.10227 54.2765 8.05019 54.0511 7.94602C53.8258 7.83996 53.6468 7.6875 53.5142 7.48864C53.3816 7.28788 53.3153 7.04545 53.3153 6.76136C53.3153 6.51136 53.3646 6.30871 53.4631 6.15341C53.5616 5.99621 53.6932 5.87311 53.858 5.78409C54.0227 5.69508 54.2045 5.62879 54.4034 5.58523C54.6042 5.53977 54.8059 5.50379 55.0085 5.47727C55.2737 5.44318 55.4886 5.41761 55.6534 5.40057C55.8201 5.38163 55.9413 5.35038 56.017 5.30682C56.0947 5.26326 56.1335 5.1875 56.1335 5.07955V5.05682C56.1335 4.77652 56.0568 4.55871 55.9034 4.40341C55.7519 4.24811 55.5218 4.17045 55.2131 4.17045C54.893 4.17045 54.642 4.24053 54.4602 4.38068C54.2784 4.52083 54.1506 4.67045 54.0767 4.82955L53.4403 4.60227C53.554 4.33712 53.7055 4.13068 53.8949 3.98295C54.0862 3.83333 54.2945 3.72917 54.5199 3.67045C54.7472 3.60985 54.9706 3.57955 55.1903 3.57955C55.3305 3.57955 55.4915 3.59659 55.6733 3.63068C55.857 3.66288 56.0341 3.73011 56.2045 3.83239C56.3769 3.93466 56.5199 4.08902 56.6335 4.29545C56.7472 4.50189 56.804 4.77841 56.804 5.125V8H56.1335V7.40909H56.0994C56.054 7.50379 55.9782 7.60511 55.8722 7.71307C55.7661 7.82102 55.625 7.91288 55.4489 7.98864C55.2727 8.06439 55.0578 8.10227 54.804 8.10227ZM54.9062 7.5C55.1714 7.5 55.3949 7.44792 55.5767 7.34375C55.7604 7.23958 55.8987 7.10511 55.9915 6.94034C56.0862 6.77557 56.1335 6.60227 56.1335 6.42045V5.80682C56.1051 5.84091 56.0426 5.87216 55.946 5.90057C55.8513 5.92708 55.7415 5.95076 55.6165 5.97159C55.4934 5.99053 55.3731 6.00758 55.2557 6.02273C55.1402 6.03598 55.0464 6.04735 54.9744 6.05682C54.8002 6.07955 54.6373 6.11648 54.4858 6.16761C54.3362 6.21686 54.215 6.29167 54.1222 6.39205C54.0313 6.49053 53.9858 6.625 53.9858 6.79545C53.9858 7.02841 54.072 7.20455 54.2443 7.32386C54.4186 7.44129 54.6392 7.5 54.9062 7.5ZM54.4176 2.90909C54.2983 2.90909 54.1922 2.86364 54.0994 2.77273C54.0085 2.67992 53.9631 2.57386 53.9631 2.45455C53.9631 2.32386 54.0085 2.21591 54.0994 2.13068C54.1922 2.04356 54.2983 2 54.4176 2C54.5483 2 54.6563 2.04356 54.7415 2.13068C54.8286 2.21591 54.8722 2.32386 54.8722 2.45455C54.8722 2.57386 54.8286 2.67992 54.7415 2.77273C54.6563 2.86364 54.5483 2.90909 54.4176 2.90909ZM56.054 2.90909C55.9347 2.90909 55.8286 2.86364 55.7358 2.77273C55.6449 2.67992 55.5994 2.57386 55.5994 2.45455C55.5994 2.32386 55.6449 2.21591 55.7358 2.13068C55.8286 2.04356 55.9347 2 56.054 2C56.1847 2 56.2926 2.04356 56.3778 2.13068C56.465 2.21591 56.5085 2.32386 56.5085 2.45455C56.5085 2.57386 56.465 2.67992 56.3778 2.77273C56.2926 2.86364 56.1847 2.90909 56.054 2.90909ZM58.0277 8V3.63636H58.6754V4.29545H58.7209C58.8004 4.07955 58.9444 3.90436 59.1527 3.76989C59.361 3.63542 59.5959 3.56818 59.8572 3.56818C59.9065 3.56818 59.968 3.56913 60.0419 3.57102C60.1158 3.57292 60.1716 3.57576 60.2095 3.57955V4.26136C60.1868 4.25568 60.1347 4.24716 60.0533 4.2358C59.9737 4.22254 59.8894 4.21591 59.8004 4.21591C59.5883 4.21591 59.3989 4.26042 59.2322 4.34943C59.0675 4.43655 58.9368 4.55777 58.8402 4.71307C58.7455 4.86648 58.6982 5.04167 58.6982 5.23864V8H58.0277ZM63.1754 3.63636V4.20455H60.9141V3.63636H63.1754ZM61.5732 2.59091H62.2436V6.75C62.2436 6.93939 62.2711 7.08144 62.326 7.17614C62.3828 7.26894 62.4548 7.33144 62.5419 7.36364C62.6309 7.39394 62.7247 7.40909 62.8232 7.40909C62.897 7.40909 62.9576 7.4053 63.005 7.39773C63.0523 7.38826 63.0902 7.38068 63.1186 7.375L63.255 7.97727C63.2095 7.99432 63.1461 8.01136 63.0646 8.02841C62.9832 8.04735 62.88 8.05682 62.755 8.05682C62.5656 8.05682 62.38 8.0161 62.1982 7.93466C62.0182 7.85322 61.8686 7.72917 61.7493 7.5625C61.6319 7.39583 61.5732 7.18561 61.5732 6.93182V2.59091ZM23.7045 18V12.1818H25.7386C26.1439 12.1818 26.4782 12.2519 26.7415 12.392C27.0047 12.5303 27.2008 12.7169 27.3295 12.9517C27.4583 13.1847 27.5227 13.4432 27.5227 13.7273C27.5227 13.9773 27.4782 14.1837 27.3892 14.3466C27.3021 14.5095 27.1866 14.6383 27.0426 14.733C26.9006 14.8277 26.7462 14.8977 26.5795 14.9432V15C26.7576 15.0114 26.9366 15.0739 27.1165 15.1875C27.2964 15.3011 27.447 15.464 27.5682 15.6761C27.6894 15.8883 27.75 16.1477 27.75 16.4545C27.75 16.7462 27.6837 17.0085 27.5511 17.2415C27.4186 17.4744 27.2093 17.6591 26.9233 17.7955C26.6373 17.9318 26.2652 18 25.8068 18H23.7045ZM24.4091 17.375H25.8068C26.267 17.375 26.5938 17.286 26.7869 17.108C26.982 16.928 27.0795 16.7102 27.0795 16.4545C27.0795 16.2576 27.0294 16.0758 26.929 15.9091C26.8286 15.7405 26.6856 15.6061 26.5 15.5057C26.3144 15.4034 26.0947 15.3523 25.8409 15.3523H24.4091V17.375ZM24.4091 14.7386H25.7159C25.928 14.7386 26.1193 14.697 26.2898 14.6136C26.4621 14.5303 26.5985 14.4129 26.6989 14.2614C26.8011 14.1098 26.8523 13.9318 26.8523 13.7273C26.8523 13.4716 26.7633 13.2547 26.5852 13.0767C26.4072 12.8968 26.125 12.8068 25.7386 12.8068H24.4091V14.7386ZM30.5895 18.0909C30.1955 18.0909 29.8499 17.9972 29.5526 17.8097C29.2571 17.6222 29.026 17.3598 28.8594 17.0227C28.6946 16.6856 28.6122 16.2917 28.6122 15.8409C28.6122 15.3864 28.6946 14.9896 28.8594 14.6506C29.026 14.3116 29.2571 14.0483 29.5526 13.8608C29.8499 13.6733 30.1955 13.5795 30.5895 13.5795C30.9834 13.5795 31.3281 13.6733 31.6236 13.8608C31.9209 14.0483 32.152 14.3116 32.3168 14.6506C32.4834 14.9896 32.5668 15.3864 32.5668 15.8409C32.5668 16.2917 32.4834 16.6856 32.3168 17.0227C32.152 17.3598 31.9209 17.6222 31.6236 17.8097C31.3281 17.9972 30.9834 18.0909 30.5895 18.0909ZM30.5895 17.4886C30.8887 17.4886 31.1349 17.4119 31.3281 17.2585C31.5213 17.1051 31.6643 16.9034 31.7571 16.6534C31.8499 16.4034 31.8963 16.1326 31.8963 15.8409C31.8963 15.5492 31.8499 15.2775 31.7571 15.0256C31.6643 14.7737 31.5213 14.5701 31.3281 14.4148C31.1349 14.2595 30.8887 14.1818 30.5895 14.1818C30.2902 14.1818 30.044 14.2595 29.8509 14.4148C29.6577 14.5701 29.5147 14.7737 29.4219 15.0256C29.3291 15.2775 29.2827 15.5492 29.2827 15.8409C29.2827 16.1326 29.3291 16.4034 29.4219 16.6534C29.5147 16.9034 29.6577 17.1051 29.8509 17.2585C30.044 17.4119 30.2902 17.4886 30.5895 17.4886ZM34.2152 16.4091L34.2038 15.5795H34.3402L36.2493 13.6364H37.0788L35.0447 15.6932H34.9879L34.2152 16.4091ZM33.5902 18V12.1818H34.2607V18H33.5902ZM36.3629 18L34.6584 15.8409L35.1357 15.375L37.2152 18H36.3629ZM39.2259 18.1023C38.9493 18.1023 38.6984 18.0502 38.473 17.946C38.2476 17.84 38.0687 17.6875 37.9361 17.4886C37.8035 17.2879 37.7372 17.0455 37.7372 16.7614C37.7372 16.5114 37.7865 16.3087 37.8849 16.1534C37.9834 15.9962 38.1151 15.8731 38.2798 15.7841C38.4446 15.6951 38.6264 15.6288 38.8253 15.5852C39.026 15.5398 39.2277 15.5038 39.4304 15.4773C39.6955 15.4432 39.9105 15.4176 40.0753 15.4006C40.242 15.3816 40.3632 15.3504 40.4389 15.3068C40.5166 15.2633 40.5554 15.1875 40.5554 15.0795V15.0568C40.5554 14.7765 40.4787 14.5587 40.3253 14.4034C40.1738 14.2481 39.9437 14.1705 39.6349 14.1705C39.3149 14.1705 39.0639 14.2405 38.8821 14.3807C38.7003 14.5208 38.5724 14.6705 38.4986 14.8295L37.8622 14.6023C37.9759 14.3371 38.1274 14.1307 38.3168 13.983C38.508 13.8333 38.7164 13.7292 38.9418 13.6705C39.169 13.6098 39.3925 13.5795 39.6122 13.5795C39.7524 13.5795 39.9134 13.5966 40.0952 13.6307C40.2789 13.6629 40.456 13.7301 40.6264 13.8324C40.7988 13.9347 40.9418 14.089 41.0554 14.2955C41.169 14.5019 41.2259 14.7784 41.2259 15.125V18H40.5554V17.4091H40.5213C40.4759 17.5038 40.4001 17.6051 40.294 17.7131C40.188 17.821 40.0469 17.9129 39.8707 17.9886C39.6946 18.0644 39.4796 18.1023 39.2259 18.1023ZM39.3281 17.5C39.5933 17.5 39.8168 17.4479 39.9986 17.3438C40.1823 17.2396 40.3205 17.1051 40.4134 16.9403C40.508 16.7756 40.5554 16.6023 40.5554 16.4205V15.8068C40.527 15.8409 40.4645 15.8722 40.3679 15.9006C40.2732 15.9271 40.1634 15.9508 40.0384 15.9716C39.9152 15.9905 39.795 16.0076 39.6776 16.0227C39.562 16.036 39.4683 16.0473 39.3963 16.0568C39.2221 16.0795 39.0592 16.1165 38.9077 16.1676C38.758 16.2169 38.6368 16.2917 38.544 16.392C38.4531 16.4905 38.4077 16.625 38.4077 16.7955C38.4077 17.0284 38.4938 17.2045 38.6662 17.3239C38.8404 17.4413 39.0611 17.5 39.3281 17.5ZM44.0973 18.0909C43.7337 18.0909 43.4126 17.9991 43.1342 17.8153C42.8558 17.6297 42.638 17.3684 42.4808 17.0312C42.3236 16.6922 42.245 16.2917 42.245 15.8295C42.245 15.3712 42.3236 14.9735 42.4808 14.6364C42.638 14.2992 42.8568 14.0388 43.1371 13.8551C43.4174 13.6714 43.7412 13.5795 44.1087 13.5795C44.3928 13.5795 44.6172 13.6269 44.782 13.7216C44.9486 13.8144 45.0755 13.9205 45.1626 14.0398C45.2517 14.1572 45.3208 14.2538 45.37 14.3295H45.4268V12.1818H46.0973V18H45.4496V17.3295H45.37C45.3208 17.4091 45.2507 17.5095 45.1598 17.6307C45.0689 17.75 44.9392 17.857 44.7706 17.9517C44.602 18.0445 44.3776 18.0909 44.0973 18.0909ZM44.1882 17.4886C44.4571 17.4886 44.6844 17.4186 44.87 17.2784C45.0556 17.1364 45.1967 16.9403 45.2933 16.6903C45.3899 16.4384 45.4382 16.1477 45.4382 15.8182C45.4382 15.4924 45.3909 15.2074 45.2962 14.9631C45.2015 14.7169 45.0613 14.5256 44.8757 14.3892C44.6901 14.2509 44.4609 14.1818 44.1882 14.1818C43.9041 14.1818 43.6674 14.2547 43.478 14.4006C43.2905 14.5445 43.1494 14.7405 43.0547 14.9886C42.9619 15.2348 42.9155 15.5114 42.9155 15.8182C42.9155 16.1288 42.9628 16.411 43.0575 16.6648C43.1541 16.9167 43.2962 17.1174 43.4837 17.267C43.6731 17.4148 43.9079 17.4886 44.1882 17.4886Z" fill="black" fill-opacity="0.2"/>
</svg>
