<svg width="47" height="20" viewBox="0 0 47 20" fill="none" xmlns="http://www.w3.org/2000/svg">
<rect x="0.75" y="1.25" width="17.5" height="17.5" fill="#FFB200"/>
<rect x="0.75" y="1.25" width="17.5" height="17.5" stroke="#03045E" stroke-width="0.5"/>
<rect x="0.75" y="1.25" width="17.5" height="17.5" stroke="black" stroke-opacity="0.2" stroke-width="0.5"/>
<path d="M25.4205 8.07955C25.0871 8.07955 24.7869 8.01326 24.5199 7.88068C24.2528 7.74811 24.0388 7.56629 23.8778 7.33523C23.7169 7.10417 23.6288 6.84091 23.6136 6.54545H24.2955C24.322 6.80871 24.4413 7.02652 24.6534 7.19886C24.8674 7.36932 25.1231 7.45455 25.4205 7.45455C25.6591 7.45455 25.8712 7.39867 26.0568 7.28693C26.2443 7.17519 26.3911 7.02178 26.4972 6.8267C26.6051 6.62973 26.6591 6.4072 26.6591 6.15909C26.6591 5.9053 26.6032 5.67898 26.4915 5.48011C26.3816 5.27936 26.2301 5.12121 26.0369 5.00568C25.8438 4.89015 25.6231 4.83144 25.375 4.82955C25.197 4.82765 25.0142 4.85511 24.8267 4.91193C24.6392 4.96686 24.4848 5.03788 24.3636 5.125L23.7045 5.04545L24.0568 2.18182H27.0795V2.80682H24.6477L24.4432 4.52273H24.4773C24.5966 4.42803 24.7462 4.34943 24.9261 4.28693C25.1061 4.22443 25.2936 4.19318 25.4886 4.19318C25.8447 4.19318 26.1619 4.27841 26.4403 4.44886C26.7206 4.61742 26.9403 4.84848 27.0994 5.14205C27.2604 5.43561 27.3409 5.77083 27.3409 6.14773C27.3409 6.51894 27.2576 6.85038 27.0909 7.14205C26.9261 7.43182 26.6989 7.66098 26.4091 7.82955C26.1193 7.99621 25.7898 8.07955 25.4205 8.07955ZM30.3672 8.07955C29.9392 8.07955 29.5746 7.96307 29.2734 7.73011C28.9723 7.49527 28.7422 7.1553 28.5831 6.71023C28.424 6.26326 28.3445 5.72348 28.3445 5.09091C28.3445 4.46212 28.424 3.92519 28.5831 3.48011C28.7441 3.03314 28.9751 2.69223 29.2763 2.45739C29.5793 2.22064 29.9429 2.10227 30.3672 2.10227C30.7914 2.10227 31.1541 2.22064 31.4553 2.45739C31.7583 2.69223 31.9893 3.03314 32.1484 3.48011C32.3094 3.92519 32.3899 4.46212 32.3899 5.09091C32.3899 5.72348 32.3104 6.26326 32.1513 6.71023C31.9922 7.1553 31.7621 7.49527 31.4609 7.73011C31.1598 7.96307 30.7952 8.07955 30.3672 8.07955ZM30.3672 7.45455C30.7914 7.45455 31.121 7.25 31.3558 6.84091C31.5907 6.43182 31.7081 5.84848 31.7081 5.09091C31.7081 4.58712 31.6541 4.15814 31.5462 3.80398C31.4401 3.44981 31.2867 3.17992 31.0859 2.99432C30.8871 2.80871 30.6475 2.71591 30.3672 2.71591C29.9467 2.71591 29.6181 2.9233 29.3814 3.33807C29.1446 3.75095 29.0263 4.33523 29.0263 5.09091C29.0263 5.5947 29.0793 6.02273 29.1854 6.375C29.2914 6.72727 29.4439 6.99527 29.6428 7.17898C29.8435 7.36269 30.085 7.45455 30.3672 7.45455ZM36.4354 6.90909V6.60227C36.4354 6.39015 36.4789 6.19602 36.5661 6.01989C36.6551 5.84186 36.7839 5.69981 36.9524 5.59375C37.1229 5.4858 37.3293 5.43182 37.5717 5.43182C37.8179 5.43182 38.0244 5.4858 38.1911 5.59375C38.3577 5.69981 38.4837 5.84186 38.5689 6.01989C38.6541 6.19602 38.6967 6.39015 38.6967 6.60227V6.90909C38.6967 7.12121 38.6532 7.31629 38.5661 7.49432C38.4808 7.67045 38.3539 7.8125 38.1854 7.92045C38.0187 8.02652 37.8142 8.07955 37.5717 8.07955C37.3255 8.07955 37.1181 8.02652 36.9496 7.92045C36.781 7.8125 36.6532 7.67045 36.5661 7.49432C36.4789 7.31629 36.4354 7.12121 36.4354 6.90909ZM37.0149 6.60227V6.90909C37.0149 7.08523 37.0566 7.24337 37.1399 7.38352C37.2232 7.52178 37.3672 7.59091 37.5717 7.59091C37.7706 7.59091 37.9107 7.52178 37.9922 7.38352C38.0755 7.24337 38.1172 7.08523 38.1172 6.90909V6.60227C38.1172 6.42614 38.0774 6.26894 37.9979 6.13068C37.9183 5.99053 37.7763 5.92045 37.5717 5.92045C37.3729 5.92045 37.2299 5.99053 37.1428 6.13068C37.0575 6.26894 37.0149 6.42614 37.0149 6.60227ZM33.5376 3.57955V3.27273C33.5376 3.06061 33.5812 2.86648 33.6683 2.69034C33.7573 2.51231 33.8861 2.37027 34.0547 2.2642C34.2251 2.15625 34.4316 2.10227 34.674 2.10227C34.9202 2.10227 35.1267 2.15625 35.2933 2.2642C35.46 2.37027 35.5859 2.51231 35.6712 2.69034C35.7564 2.86648 35.799 3.06061 35.799 3.27273V3.57955C35.799 3.79167 35.7554 3.98674 35.6683 4.16477C35.5831 4.34091 35.4562 4.48295 35.2876 4.59091C35.121 4.69697 34.9164 4.75 34.674 4.75C34.4278 4.75 34.2204 4.69697 34.0518 4.59091C33.8833 4.48295 33.7554 4.34091 33.6683 4.16477C33.5812 3.98674 33.5376 3.79167 33.5376 3.57955ZM34.1172 3.27273V3.57955C34.1172 3.75568 34.1589 3.91383 34.2422 4.05398C34.3255 4.19223 34.4695 4.26136 34.674 4.26136C34.8729 4.26136 35.013 4.19223 35.0945 4.05398C35.1778 3.91383 35.2195 3.75568 35.2195 3.57955V3.27273C35.2195 3.09659 35.1797 2.93939 35.1001 2.80114C35.0206 2.66098 34.8786 2.59091 34.674 2.59091C34.4751 2.59091 34.3321 2.66098 34.245 2.80114C34.1598 2.93939 34.1172 3.09659 34.1172 3.27273ZM33.7536 8L37.7536 2.18182H38.4013L34.4013 8H33.7536ZM23.7045 18V12.1818H25.7386C26.1439 12.1818 26.4782 12.2519 26.7415 12.392C27.0047 12.5303 27.2008 12.7169 27.3295 12.9517C27.4583 13.1847 27.5227 13.4432 27.5227 13.7273C27.5227 13.9773 27.4782 14.1837 27.3892 14.3466C27.3021 14.5095 27.1866 14.6383 27.0426 14.733C26.9006 14.8277 26.7462 14.8977 26.5795 14.9432V15C26.7576 15.0114 26.9366 15.0739 27.1165 15.1875C27.2964 15.3011 27.447 15.464 27.5682 15.6761C27.6894 15.8883 27.75 16.1477 27.75 16.4545C27.75 16.7462 27.6837 17.0085 27.5511 17.2415C27.4186 17.4744 27.2093 17.6591 26.9233 17.7955C26.6373 17.9318 26.2652 18 25.8068 18H23.7045ZM24.4091 17.375H25.8068C26.267 17.375 26.5938 17.286 26.7869 17.108C26.982 16.928 27.0795 16.7102 27.0795 16.4545C27.0795 16.2576 27.0294 16.0758 26.929 15.9091C26.8286 15.7405 26.6856 15.6061 26.5 15.5057C26.3144 15.4034 26.0947 15.3523 25.8409 15.3523H24.4091V17.375ZM24.4091 14.7386H25.7159C25.928 14.7386 26.1193 14.697 26.2898 14.6136C26.4621 14.5303 26.5985 14.4129 26.6989 14.2614C26.8011 14.1098 26.8523 13.9318 26.8523 13.7273C26.8523 13.4716 26.7633 13.2547 26.5852 13.0767C26.4072 12.8968 26.125 12.8068 25.7386 12.8068H24.4091V14.7386ZM30.5895 18.0909C30.1955 18.0909 29.8499 17.9972 29.5526 17.8097C29.2571 17.6222 29.026 17.3598 28.8594 17.0227C28.6946 16.6856 28.6122 16.2917 28.6122 15.8409C28.6122 15.3864 28.6946 14.9896 28.8594 14.6506C29.026 14.3116 29.2571 14.0483 29.5526 13.8608C29.8499 13.6733 30.1955 13.5795 30.5895 13.5795C30.9834 13.5795 31.3281 13.6733 31.6236 13.8608C31.9209 14.0483 32.152 14.3116 32.3168 14.6506C32.4834 14.9896 32.5668 15.3864 32.5668 15.8409C32.5668 16.2917 32.4834 16.6856 32.3168 17.0227C32.152 17.3598 31.9209 17.6222 31.6236 17.8097C31.3281 17.9972 30.9834 18.0909 30.5895 18.0909ZM30.5895 17.4886C30.8887 17.4886 31.1349 17.4119 31.3281 17.2585C31.5213 17.1051 31.6643 16.9034 31.7571 16.6534C31.8499 16.4034 31.8963 16.1326 31.8963 15.8409C31.8963 15.5492 31.8499 15.2775 31.7571 15.0256C31.6643 14.7737 31.5213 14.5701 31.3281 14.4148C31.1349 14.2595 30.8887 14.1818 30.5895 14.1818C30.2902 14.1818 30.044 14.2595 29.8509 14.4148C29.6577 14.5701 29.5147 14.7737 29.4219 15.0256C29.3291 15.2775 29.2827 15.5492 29.2827 15.8409C29.2827 16.1326 29.3291 16.4034 29.4219 16.6534C29.5147 16.9034 29.6577 17.1051 29.8509 17.2585C30.044 17.4119 30.2902 17.4886 30.5895 17.4886ZM34.2152 16.4091L34.2038 15.5795H34.3402L36.2493 13.6364H37.0788L35.0447 15.6932H34.9879L34.2152 16.4091ZM33.5902 18V12.1818H34.2607V18H33.5902ZM36.3629 18L34.6584 15.8409L35.1357 15.375L37.2152 18H36.3629ZM39.2259 18.1023C38.9493 18.1023 38.6984 18.0502 38.473 17.946C38.2476 17.84 38.0687 17.6875 37.9361 17.4886C37.8035 17.2879 37.7372 17.0455 37.7372 16.7614C37.7372 16.5114 37.7865 16.3087 37.8849 16.1534C37.9834 15.9962 38.1151 15.8731 38.2798 15.7841C38.4446 15.6951 38.6264 15.6288 38.8253 15.5852C39.026 15.5398 39.2277 15.5038 39.4304 15.4773C39.6955 15.4432 39.9105 15.4176 40.0753 15.4006C40.242 15.3816 40.3632 15.3504 40.4389 15.3068C40.5166 15.2633 40.5554 15.1875 40.5554 15.0795V15.0568C40.5554 14.7765 40.4787 14.5587 40.3253 14.4034C40.1738 14.2481 39.9437 14.1705 39.6349 14.1705C39.3149 14.1705 39.0639 14.2405 38.8821 14.3807C38.7003 14.5208 38.5724 14.6705 38.4986 14.8295L37.8622 14.6023C37.9759 14.3371 38.1274 14.1307 38.3168 13.983C38.508 13.8333 38.7164 13.7292 38.9418 13.6705C39.169 13.6098 39.3925 13.5795 39.6122 13.5795C39.7524 13.5795 39.9134 13.5966 40.0952 13.6307C40.2789 13.6629 40.456 13.7301 40.6264 13.8324C40.7988 13.9347 40.9418 14.089 41.0554 14.2955C41.169 14.5019 41.2259 14.7784 41.2259 15.125V18H40.5554V17.4091H40.5213C40.4759 17.5038 40.4001 17.6051 40.294 17.7131C40.188 17.821 40.0469 17.9129 39.8707 17.9886C39.6946 18.0644 39.4796 18.1023 39.2259 18.1023ZM39.3281 17.5C39.5933 17.5 39.8168 17.4479 39.9986 17.3438C40.1823 17.2396 40.3205 17.1051 40.4134 16.9403C40.508 16.7756 40.5554 16.6023 40.5554 16.4205V15.8068C40.527 15.8409 40.4645 15.8722 40.3679 15.9006C40.2732 15.9271 40.1634 15.9508 40.0384 15.9716C39.9152 15.9905 39.795 16.0076 39.6776 16.0227C39.562 16.036 39.4683 16.0473 39.3963 16.0568C39.2221 16.0795 39.0592 16.1165 38.9077 16.1676C38.758 16.2169 38.6368 16.2917 38.544 16.392C38.4531 16.4905 38.4077 16.625 38.4077 16.7955C38.4077 17.0284 38.4938 17.2045 38.6662 17.3239C38.8404 17.4413 39.0611 17.5 39.3281 17.5ZM44.0973 18.0909C43.7337 18.0909 43.4126 17.9991 43.1342 17.8153C42.8558 17.6297 42.638 17.3684 42.4808 17.0312C42.3236 16.6922 42.245 16.2917 42.245 15.8295C42.245 15.3712 42.3236 14.9735 42.4808 14.6364C42.638 14.2992 42.8568 14.0388 43.1371 13.8551C43.4174 13.6714 43.7412 13.5795 44.1087 13.5795C44.3928 13.5795 44.6172 13.6269 44.782 13.7216C44.9486 13.8144 45.0755 13.9205 45.1626 14.0398C45.2517 14.1572 45.3208 14.2538 45.37 14.3295H45.4268V12.1818H46.0973V18H45.4496V17.3295H45.37C45.3208 17.4091 45.2507 17.5095 45.1598 17.6307C45.0689 17.75 44.9392 17.857 44.7706 17.9517C44.602 18.0445 44.3776 18.0909 44.0973 18.0909ZM44.1882 17.4886C44.4571 17.4886 44.6844 17.4186 44.87 17.2784C45.0556 17.1364 45.1967 16.9403 45.2933 16.6903C45.3899 16.4384 45.4382 16.1477 45.4382 15.8182C45.4382 15.4924 45.3909 15.2074 45.2962 14.9631C45.2015 14.7169 45.0613 14.5256 44.8757 14.3892C44.6901 14.2509 44.4609 14.1818 44.1882 14.1818C43.9041 14.1818 43.6674 14.2547 43.478 14.4006C43.2905 14.5445 43.1494 14.7405 43.0547 14.9886C42.9619 15.2348 42.9155 15.5114 42.9155 15.8182C42.9155 16.1288 42.9628 16.411 43.0575 16.6648C43.1541 16.9167 43.2962 17.1174 43.4837 17.267C43.6731 17.4148 43.9079 17.4886 44.1882 17.4886Z" fill="#03045E"/>
<path d="M25.4205 8.07955C25.0871 8.07955 24.7869 8.01326 24.5199 7.88068C24.2528 7.74811 24.0388 7.56629 23.8778 7.33523C23.7169 7.10417 23.6288 6.84091 23.6136 6.54545H24.2955C24.322 6.80871 24.4413 7.02652 24.6534 7.19886C24.8674 7.36932 25.1231 7.45455 25.4205 7.45455C25.6591 7.45455 25.8712 7.39867 26.0568 7.28693C26.2443 7.17519 26.3911 7.02178 26.4972 6.8267C26.6051 6.62973 26.6591 6.4072 26.6591 6.15909C26.6591 5.9053 26.6032 5.67898 26.4915 5.48011C26.3816 5.27936 26.2301 5.12121 26.0369 5.00568C25.8438 4.89015 25.6231 4.83144 25.375 4.82955C25.197 4.82765 25.0142 4.85511 24.8267 4.91193C24.6392 4.96686 24.4848 5.03788 24.3636 5.125L23.7045 5.04545L24.0568 2.18182H27.0795V2.80682H24.6477L24.4432 4.52273H24.4773C24.5966 4.42803 24.7462 4.34943 24.9261 4.28693C25.1061 4.22443 25.2936 4.19318 25.4886 4.19318C25.8447 4.19318 26.1619 4.27841 26.4403 4.44886C26.7206 4.61742 26.9403 4.84848 27.0994 5.14205C27.2604 5.43561 27.3409 5.77083 27.3409 6.14773C27.3409 6.51894 27.2576 6.85038 27.0909 7.14205C26.9261 7.43182 26.6989 7.66098 26.4091 7.82955C26.1193 7.99621 25.7898 8.07955 25.4205 8.07955ZM30.3672 8.07955C29.9392 8.07955 29.5746 7.96307 29.2734 7.73011C28.9723 7.49527 28.7422 7.1553 28.5831 6.71023C28.424 6.26326 28.3445 5.72348 28.3445 5.09091C28.3445 4.46212 28.424 3.92519 28.5831 3.48011C28.7441 3.03314 28.9751 2.69223 29.2763 2.45739C29.5793 2.22064 29.9429 2.10227 30.3672 2.10227C30.7914 2.10227 31.1541 2.22064 31.4553 2.45739C31.7583 2.69223 31.9893 3.03314 32.1484 3.48011C32.3094 3.92519 32.3899 4.46212 32.3899 5.09091C32.3899 5.72348 32.3104 6.26326 32.1513 6.71023C31.9922 7.1553 31.7621 7.49527 31.4609 7.73011C31.1598 7.96307 30.7952 8.07955 30.3672 8.07955ZM30.3672 7.45455C30.7914 7.45455 31.121 7.25 31.3558 6.84091C31.5907 6.43182 31.7081 5.84848 31.7081 5.09091C31.7081 4.58712 31.6541 4.15814 31.5462 3.80398C31.4401 3.44981 31.2867 3.17992 31.0859 2.99432C30.8871 2.80871 30.6475 2.71591 30.3672 2.71591C29.9467 2.71591 29.6181 2.9233 29.3814 3.33807C29.1446 3.75095 29.0263 4.33523 29.0263 5.09091C29.0263 5.5947 29.0793 6.02273 29.1854 6.375C29.2914 6.72727 29.4439 6.99527 29.6428 7.17898C29.8435 7.36269 30.085 7.45455 30.3672 7.45455ZM36.4354 6.90909V6.60227C36.4354 6.39015 36.4789 6.19602 36.5661 6.01989C36.6551 5.84186 36.7839 5.69981 36.9524 5.59375C37.1229 5.4858 37.3293 5.43182 37.5717 5.43182C37.8179 5.43182 38.0244 5.4858 38.1911 5.59375C38.3577 5.69981 38.4837 5.84186 38.5689 6.01989C38.6541 6.19602 38.6967 6.39015 38.6967 6.60227V6.90909C38.6967 7.12121 38.6532 7.31629 38.5661 7.49432C38.4808 7.67045 38.3539 7.8125 38.1854 7.92045C38.0187 8.02652 37.8142 8.07955 37.5717 8.07955C37.3255 8.07955 37.1181 8.02652 36.9496 7.92045C36.781 7.8125 36.6532 7.67045 36.5661 7.49432C36.4789 7.31629 36.4354 7.12121 36.4354 6.90909ZM37.0149 6.60227V6.90909C37.0149 7.08523 37.0566 7.24337 37.1399 7.38352C37.2232 7.52178 37.3672 7.59091 37.5717 7.59091C37.7706 7.59091 37.9107 7.52178 37.9922 7.38352C38.0755 7.24337 38.1172 7.08523 38.1172 6.90909V6.60227C38.1172 6.42614 38.0774 6.26894 37.9979 6.13068C37.9183 5.99053 37.7763 5.92045 37.5717 5.92045C37.3729 5.92045 37.2299 5.99053 37.1428 6.13068C37.0575 6.26894 37.0149 6.42614 37.0149 6.60227ZM33.5376 3.57955V3.27273C33.5376 3.06061 33.5812 2.86648 33.6683 2.69034C33.7573 2.51231 33.8861 2.37027 34.0547 2.2642C34.2251 2.15625 34.4316 2.10227 34.674 2.10227C34.9202 2.10227 35.1267 2.15625 35.2933 2.2642C35.46 2.37027 35.5859 2.51231 35.6712 2.69034C35.7564 2.86648 35.799 3.06061 35.799 3.27273V3.57955C35.799 3.79167 35.7554 3.98674 35.6683 4.16477C35.5831 4.34091 35.4562 4.48295 35.2876 4.59091C35.121 4.69697 34.9164 4.75 34.674 4.75C34.4278 4.75 34.2204 4.69697 34.0518 4.59091C33.8833 4.48295 33.7554 4.34091 33.6683 4.16477C33.5812 3.98674 33.5376 3.79167 33.5376 3.57955ZM34.1172 3.27273V3.57955C34.1172 3.75568 34.1589 3.91383 34.2422 4.05398C34.3255 4.19223 34.4695 4.26136 34.674 4.26136C34.8729 4.26136 35.013 4.19223 35.0945 4.05398C35.1778 3.91383 35.2195 3.75568 35.2195 3.57955V3.27273C35.2195 3.09659 35.1797 2.93939 35.1001 2.80114C35.0206 2.66098 34.8786 2.59091 34.674 2.59091C34.4751 2.59091 34.3321 2.66098 34.245 2.80114C34.1598 2.93939 34.1172 3.09659 34.1172 3.27273ZM33.7536 8L37.7536 2.18182H38.4013L34.4013 8H33.7536ZM23.7045 18V12.1818H25.7386C26.1439 12.1818 26.4782 12.2519 26.7415 12.392C27.0047 12.5303 27.2008 12.7169 27.3295 12.9517C27.4583 13.1847 27.5227 13.4432 27.5227 13.7273C27.5227 13.9773 27.4782 14.1837 27.3892 14.3466C27.3021 14.5095 27.1866 14.6383 27.0426 14.733C26.9006 14.8277 26.7462 14.8977 26.5795 14.9432V15C26.7576 15.0114 26.9366 15.0739 27.1165 15.1875C27.2964 15.3011 27.447 15.464 27.5682 15.6761C27.6894 15.8883 27.75 16.1477 27.75 16.4545C27.75 16.7462 27.6837 17.0085 27.5511 17.2415C27.4186 17.4744 27.2093 17.6591 26.9233 17.7955C26.6373 17.9318 26.2652 18 25.8068 18H23.7045ZM24.4091 17.375H25.8068C26.267 17.375 26.5938 17.286 26.7869 17.108C26.982 16.928 27.0795 16.7102 27.0795 16.4545C27.0795 16.2576 27.0294 16.0758 26.929 15.9091C26.8286 15.7405 26.6856 15.6061 26.5 15.5057C26.3144 15.4034 26.0947 15.3523 25.8409 15.3523H24.4091V17.375ZM24.4091 14.7386H25.7159C25.928 14.7386 26.1193 14.697 26.2898 14.6136C26.4621 14.5303 26.5985 14.4129 26.6989 14.2614C26.8011 14.1098 26.8523 13.9318 26.8523 13.7273C26.8523 13.4716 26.7633 13.2547 26.5852 13.0767C26.4072 12.8968 26.125 12.8068 25.7386 12.8068H24.4091V14.7386ZM30.5895 18.0909C30.1955 18.0909 29.8499 17.9972 29.5526 17.8097C29.2571 17.6222 29.026 17.3598 28.8594 17.0227C28.6946 16.6856 28.6122 16.2917 28.6122 15.8409C28.6122 15.3864 28.6946 14.9896 28.8594 14.6506C29.026 14.3116 29.2571 14.0483 29.5526 13.8608C29.8499 13.6733 30.1955 13.5795 30.5895 13.5795C30.9834 13.5795 31.3281 13.6733 31.6236 13.8608C31.9209 14.0483 32.152 14.3116 32.3168 14.6506C32.4834 14.9896 32.5668 15.3864 32.5668 15.8409C32.5668 16.2917 32.4834 16.6856 32.3168 17.0227C32.152 17.3598 31.9209 17.6222 31.6236 17.8097C31.3281 17.9972 30.9834 18.0909 30.5895 18.0909ZM30.5895 17.4886C30.8887 17.4886 31.1349 17.4119 31.3281 17.2585C31.5213 17.1051 31.6643 16.9034 31.7571 16.6534C31.8499 16.4034 31.8963 16.1326 31.8963 15.8409C31.8963 15.5492 31.8499 15.2775 31.7571 15.0256C31.6643 14.7737 31.5213 14.5701 31.3281 14.4148C31.1349 14.2595 30.8887 14.1818 30.5895 14.1818C30.2902 14.1818 30.044 14.2595 29.8509 14.4148C29.6577 14.5701 29.5147 14.7737 29.4219 15.0256C29.3291 15.2775 29.2827 15.5492 29.2827 15.8409C29.2827 16.1326 29.3291 16.4034 29.4219 16.6534C29.5147 16.9034 29.6577 17.1051 29.8509 17.2585C30.044 17.4119 30.2902 17.4886 30.5895 17.4886ZM34.2152 16.4091L34.2038 15.5795H34.3402L36.2493 13.6364H37.0788L35.0447 15.6932H34.9879L34.2152 16.4091ZM33.5902 18V12.1818H34.2607V18H33.5902ZM36.3629 18L34.6584 15.8409L35.1357 15.375L37.2152 18H36.3629ZM39.2259 18.1023C38.9493 18.1023 38.6984 18.0502 38.473 17.946C38.2476 17.84 38.0687 17.6875 37.9361 17.4886C37.8035 17.2879 37.7372 17.0455 37.7372 16.7614C37.7372 16.5114 37.7865 16.3087 37.8849 16.1534C37.9834 15.9962 38.1151 15.8731 38.2798 15.7841C38.4446 15.6951 38.6264 15.6288 38.8253 15.5852C39.026 15.5398 39.2277 15.5038 39.4304 15.4773C39.6955 15.4432 39.9105 15.4176 40.0753 15.4006C40.242 15.3816 40.3632 15.3504 40.4389 15.3068C40.5166 15.2633 40.5554 15.1875 40.5554 15.0795V15.0568C40.5554 14.7765 40.4787 14.5587 40.3253 14.4034C40.1738 14.2481 39.9437 14.1705 39.6349 14.1705C39.3149 14.1705 39.0639 14.2405 38.8821 14.3807C38.7003 14.5208 38.5724 14.6705 38.4986 14.8295L37.8622 14.6023C37.9759 14.3371 38.1274 14.1307 38.3168 13.983C38.508 13.8333 38.7164 13.7292 38.9418 13.6705C39.169 13.6098 39.3925 13.5795 39.6122 13.5795C39.7524 13.5795 39.9134 13.5966 40.0952 13.6307C40.2789 13.6629 40.456 13.7301 40.6264 13.8324C40.7988 13.9347 40.9418 14.089 41.0554 14.2955C41.169 14.5019 41.2259 14.7784 41.2259 15.125V18H40.5554V17.4091H40.5213C40.4759 17.5038 40.4001 17.6051 40.294 17.7131C40.188 17.821 40.0469 17.9129 39.8707 17.9886C39.6946 18.0644 39.4796 18.1023 39.2259 18.1023ZM39.3281 17.5C39.5933 17.5 39.8168 17.4479 39.9986 17.3438C40.1823 17.2396 40.3205 17.1051 40.4134 16.9403C40.508 16.7756 40.5554 16.6023 40.5554 16.4205V15.8068C40.527 15.8409 40.4645 15.8722 40.3679 15.9006C40.2732 15.9271 40.1634 15.9508 40.0384 15.9716C39.9152 15.9905 39.795 16.0076 39.6776 16.0227C39.562 16.036 39.4683 16.0473 39.3963 16.0568C39.2221 16.0795 39.0592 16.1165 38.9077 16.1676C38.758 16.2169 38.6368 16.2917 38.544 16.392C38.4531 16.4905 38.4077 16.625 38.4077 16.7955C38.4077 17.0284 38.4938 17.2045 38.6662 17.3239C38.8404 17.4413 39.0611 17.5 39.3281 17.5ZM44.0973 18.0909C43.7337 18.0909 43.4126 17.9991 43.1342 17.8153C42.8558 17.6297 42.638 17.3684 42.4808 17.0312C42.3236 16.6922 42.245 16.2917 42.245 15.8295C42.245 15.3712 42.3236 14.9735 42.4808 14.6364C42.638 14.2992 42.8568 14.0388 43.1371 13.8551C43.4174 13.6714 43.7412 13.5795 44.1087 13.5795C44.3928 13.5795 44.6172 13.6269 44.782 13.7216C44.9486 13.8144 45.0755 13.9205 45.1626 14.0398C45.2517 14.1572 45.3208 14.2538 45.37 14.3295H45.4268V12.1818H46.0973V18H45.4496V17.3295H45.37C45.3208 17.4091 45.2507 17.5095 45.1598 17.6307C45.0689 17.75 44.9392 17.857 44.7706 17.9517C44.602 18.0445 44.3776 18.0909 44.0973 18.0909ZM44.1882 17.4886C44.4571 17.4886 44.6844 17.4186 44.87 17.2784C45.0556 17.1364 45.1967 16.9403 45.2933 16.6903C45.3899 16.4384 45.4382 16.1477 45.4382 15.8182C45.4382 15.4924 45.3909 15.2074 45.2962 14.9631C45.2015 14.7169 45.0613 14.5256 44.8757 14.3892C44.6901 14.2509 44.4609 14.1818 44.1882 14.1818C43.9041 14.1818 43.6674 14.2547 43.478 14.4006C43.2905 14.5445 43.1494 14.7405 43.0547 14.9886C42.9619 15.2348 42.9155 15.5114 42.9155 15.8182C42.9155 16.1288 42.9628 16.411 43.0575 16.6648C43.1541 16.9167 43.2962 17.1174 43.4837 17.267C43.6731 17.4148 43.9079 17.4886 44.1882 17.4886Z" fill="black" fill-opacity="0.2"/>
</svg>
