<svg width="16" height="16" viewBox="0 0 16 16" fill="none" xmlns="http://www.w3.org/2000/svg">
<g clip-path="url(#clip0_26_167)">
<path d="M15.4375 0.563232L12.2812 0.566451V3.71886H15.4375V0.563232ZM11.7188 0.566982L4.28125 0.574701V3.71886H11.7188V0.566982ZM3.71875 0.575295L0.5625 0.578545V3.71886H3.71875V0.575295ZM0.5625 4.28136V7.71886H7.71875V4.28136H0.5625ZM8.28125 4.28136V7.71886H15.4375V4.28136H8.28125ZM0.5625 8.28136V11.7189H3.71875V8.28136H0.5625ZM4.28125 8.28136V11.7189H11.7188V8.28136H4.28125ZM12.2812 8.28136V11.7189H15.4375V8.28136H12.2812ZM0.5625 12.2814V15.437L7.71875 15.4296V12.2814H0.5625ZM8.28125 12.2814V15.4291L15.4375 15.4217V12.2814H8.28125Z" fill="black"/>
</g>
<defs>
<clipPath id="clip0_26_167">
<rect width="16" height="16" fill="white"/>
</clipPath>
</defs>
</svg>
