<svg width="39" height="39" viewBox="0 0 39 39" fill="none" xmlns="http://www.w3.org/2000/svg">
<circle cx="19.6665" cy="19.5" r="18" fill="white"/>
<circle cx="19.6665" cy="19.5" r="18" stroke="#03045E" stroke-width="2"/>
<circle cx="19.6665" cy="19.5" r="18" stroke="black" stroke-opacity="0.2" stroke-width="2"/>
<path d="M19.95 17.384C21.3393 17.384 22.6973 16.9721 23.8524 16.2003C25.0075 15.4284 25.9078 14.3314 26.4395 13.0479C26.9711 11.7645 27.1102 10.3521 26.8392 8.98959C26.5682 7.62705 25.8992 6.37547 24.9168 5.39313C23.9345 4.41079 22.6829 3.74181 21.3204 3.47078C19.9578 3.19976 18.5455 3.33886 17.262 3.8705C15.9785 4.40214 14.8815 5.30243 14.1097 6.45754C13.3379 7.61265 12.9259 8.97069 12.9259 10.3599C12.9259 12.2228 13.666 14.0094 14.9833 15.3267C16.3005 16.644 18.0871 17.384 19.95 17.384ZM19.95 19.3909C15.5964 19.3909 6.90527 22.0802 6.90527 27.4185V31.4323H32.9948V27.4185C32.9948 22.0802 24.3037 19.3909 19.95 19.3909Z" fill="#03045E"/>
<path d="M19.95 17.384C21.3393 17.384 22.6973 16.9721 23.8524 16.2003C25.0075 15.4284 25.9078 14.3314 26.4395 13.0479C26.9711 11.7645 27.1102 10.3521 26.8392 8.98959C26.5682 7.62705 25.8992 6.37547 24.9168 5.39313C23.9345 4.41079 22.6829 3.74181 21.3204 3.47078C19.9578 3.19976 18.5455 3.33886 17.262 3.8705C15.9785 4.40214 14.8815 5.30243 14.1097 6.45754C13.3379 7.61265 12.9259 8.97069 12.9259 10.3599C12.9259 12.2228 13.666 14.0094 14.9833 15.3267C16.3005 16.644 18.0871 17.384 19.95 17.384ZM19.95 19.3909C15.5964 19.3909 6.90527 22.0802 6.90527 27.4185V31.4323H32.9948V27.4185C32.9948 22.0802 24.3037 19.3909 19.95 19.3909Z" fill="black" fill-opacity="0.2"/>
</svg>
