<svg width="49" height="56" viewBox="0 0 49 56" fill="none" xmlns="http://www.w3.org/2000/svg">
<rect width="48.2129" height="48.2129" rx="6.18114" fill="#D9D9D9"/>
<circle cx="24.4156" cy="24.4155" r="23.1793" fill="#546CEF" fill-opacity="0.45"/>
<mask id="path-3-outside-1_74_2449" maskUnits="userSpaceOnUse" x="2.62079" y="4.5295" width="43.8708" height="52.0633" fill="black">
<rect fill="white" x="2.62079" y="4.5295" width="43.8708" height="52.0633"/>
<path d="M43.7634 51.0971L40.8182 54.4836C40.4297 54.9278 39.9103 55.1695 39.3735 55.1562C38.8368 55.1428 38.3262 54.8754 37.9534 54.4123L14.3164 24.926C13.6518 25.1393 12.9663 25.2451 12.2783 25.2407C10.9847 25.2074 9.71637 24.8043 8.57885 24.0652C7.44133 23.326 6.46745 22.272 5.73817 20.9908C5.0089 19.7096 4.54531 18.2382 4.38594 16.699C4.22657 15.1598 4.37603 13.5973 4.82189 12.1413L9.87541 18.456L10.9746 17.192L13.9198 13.8055L15.019 12.5415L9.96549 6.22678C11.1976 5.75329 12.5063 5.63922 13.7826 5.89404C15.059 6.14886 16.2661 6.76522 17.3037 7.69186C18.3413 8.61851 19.1794 9.82867 19.7483 11.2217C20.3171 12.6148 20.6004 14.1505 20.5744 15.7012C20.5495 16.5254 20.4328 17.342 20.2274 18.1291L43.8229 47.6631C44.1934 48.1288 44.3951 48.7514 44.384 49.3948C44.3728 50.0382 44.1497 50.6502 43.7634 51.0971ZM4.36531 46.68C3.97897 47.1269 3.75586 47.7389 3.74471 48.3824C3.73355 49.0258 3.93525 49.6483 4.30577 50.1141L7.13096 53.6444C7.50378 54.1075 8.01433 54.3749 8.5511 54.3883C9.08787 54.4017 9.60725 54.1599 9.9958 53.7157L21.3403 40.6949L15.7098 33.6592M41.0614 6.46545L32.8497 11.134L32.7652 16.0049L28.2646 21.1801L32.2437 26.1523L36.7444 20.9772L40.808 21.0784L45.0405 11.4377L41.0614 6.46545Z"/>
</mask>
<path d="M43.7634 51.0971L40.8182 54.4836C40.4297 54.9278 39.9103 55.1695 39.3735 55.1562C38.8368 55.1428 38.3262 54.8754 37.9534 54.4123L14.3164 24.926C13.6518 25.1393 12.9663 25.2451 12.2783 25.2407C10.9847 25.2074 9.71637 24.8043 8.57885 24.0652C7.44133 23.326 6.46745 22.272 5.73817 20.9908C5.0089 19.7096 4.54531 18.2382 4.38594 16.699C4.22657 15.1598 4.37603 13.5973 4.82189 12.1413L9.87541 18.456L10.9746 17.192L13.9198 13.8055L15.019 12.5415L9.96549 6.22678C11.1976 5.75329 12.5063 5.63922 13.7826 5.89404C15.059 6.14886 16.2661 6.76522 17.3037 7.69186C18.3413 8.61851 19.1794 9.82867 19.7483 11.2217C20.3171 12.6148 20.6004 14.1505 20.5744 15.7012C20.5495 16.5254 20.4328 17.342 20.2274 18.1291L43.8229 47.6631C44.1934 48.1288 44.3951 48.7514 44.384 49.3948C44.3728 50.0382 44.1497 50.6502 43.7634 51.0971ZM4.36531 46.68C3.97897 47.1269 3.75586 47.7389 3.74471 48.3824C3.73355 49.0258 3.93525 49.6483 4.30577 50.1141L7.13096 53.6444C7.50378 54.1075 8.01433 54.3749 8.5511 54.3883C9.08787 54.4017 9.60725 54.1599 9.9958 53.7157L21.3403 40.6949L15.7098 33.6592M41.0614 6.46545L32.8497 11.134L32.7652 16.0049L28.2646 21.1801L32.2437 26.1523L36.7444 20.9772L40.808 21.0784L45.0405 11.4377L41.0614 6.46545Z" fill="#6C59FF" fill-opacity="0.51"/>
<path d="M43.7634 51.0971L44.231 51.5049L44.2321 51.5035L43.7634 51.0971ZM40.8182 54.4836L41.2846 54.8928L41.2858 54.8914L40.8182 54.4836ZM37.9534 54.4123L37.4724 54.7968L37.4732 54.7978L37.9534 54.4123ZM14.3164 24.926L14.7974 24.5415L14.5293 24.207L14.1236 24.3372L14.3164 24.926ZM12.2783 25.2407L12.267 25.8588L12.279 25.8589L12.2783 25.2407ZM4.82189 12.1413L5.30321 11.7571L4.5717 10.8431L4.23086 11.9561L4.82189 12.1413ZM9.87541 18.456L9.39409 18.8401L9.85868 19.4206L10.343 18.8637L9.87541 18.456ZM10.9746 17.192L11.4422 17.5998L10.9746 17.192ZM13.9198 13.8055L13.4522 13.3977L13.9198 13.8055ZM15.019 12.5415L15.4866 12.9493L15.8238 12.5615L15.5003 12.1574L15.019 12.5415ZM9.96549 6.22678L9.74007 5.64947L8.95591 5.9508L9.48417 6.6109L9.96549 6.22678ZM20.5744 15.7012L21.1922 15.7246L21.1923 15.7162L20.5744 15.7012ZM20.2274 18.1291L19.6294 17.9688L19.551 18.269L19.7458 18.5128L20.2274 18.1291ZM43.8229 47.6631L44.3054 47.2804L44.3045 47.2794L43.8229 47.6631ZM4.30577 50.1141L3.82331 50.4968L3.82445 50.4982L4.30577 50.1141ZM7.13096 53.6444L6.64964 54.0285L6.65078 54.0299L7.13096 53.6444ZM9.9958 53.7157L10.4622 54.1249L10.463 54.1239L9.9958 53.7157ZM21.3403 40.6949L21.8076 41.103L22.1454 40.7153L21.8217 40.3107L21.3403 40.6949ZM41.0614 6.46545L41.5427 6.08133L41.2111 5.66695L40.7529 5.92741L41.0614 6.46545ZM32.8497 11.134L32.5413 10.5959L32.2378 10.7684L32.2318 11.1186L32.8497 11.134ZM32.7652 16.0049L33.2328 16.4127L33.3793 16.2443L33.3831 16.0203L32.7652 16.0049ZM28.2646 21.1801L27.797 20.7723L27.4598 21.1601L27.7833 21.5642L28.2646 21.1801ZM32.2437 26.1523L31.7624 26.5364L32.227 27.117L32.7113 26.5601L32.2437 26.1523ZM36.7444 20.9772L36.7551 20.3591L36.4659 20.3519L36.2768 20.5694L36.7444 20.9772ZM40.808 21.0784L40.7973 21.6964L41.209 21.7067L41.3741 21.3306L40.808 21.0784ZM45.0405 11.4377L45.6067 11.6898L45.757 11.3474L45.5218 11.0535L45.0405 11.4377ZM43.7634 51.0971L43.2958 50.6894L40.3507 54.0759L40.8182 54.4836L41.2858 54.8914L44.231 51.5049L43.7634 51.0971ZM40.8182 54.4836L40.3518 54.0745C40.0692 54.3976 39.7181 54.5465 39.3843 54.5382L39.3735 55.1562L39.3628 55.7742C40.1025 55.7926 40.7902 55.4579 41.2846 54.8928L40.8182 54.4836ZM39.3735 55.1562L39.3843 54.5382C39.0504 54.5298 38.7048 54.3636 38.4336 54.0267L37.9534 54.4123L37.4732 54.7978C37.9476 55.3871 38.6232 55.7558 39.3628 55.7742L39.3735 55.1562ZM37.9534 54.4123L38.4344 54.0277L14.7974 24.5415L14.3164 24.926L13.8354 25.3105L37.4724 54.7968L37.9534 54.4123ZM14.3164 24.926L14.1236 24.3372C13.5199 24.5309 12.8993 24.6265 12.2776 24.6225L12.2783 25.2407L12.279 25.8589C13.0334 25.8637 13.7836 25.7476 14.5092 25.5148L14.3164 24.926ZM12.2783 25.2407L12.2895 24.6227C11.1157 24.5924 9.9584 24.227 8.91276 23.5475L8.57885 24.0652L8.24494 24.5828C9.47434 25.3817 10.8536 25.8223 12.267 25.8587L12.2783 25.2407ZM8.57885 24.0652L8.91276 23.5475C7.86606 22.8673 6.95893 21.8901 6.27466 20.688L5.73817 20.9908L5.20168 21.2936C5.97596 22.6538 7.01659 23.7846 8.24494 24.5828L8.57885 24.0652ZM5.73817 20.9908L6.27466 20.688C5.59032 19.4857 5.15163 18.098 5.00066 16.6399L4.38594 16.699L3.77122 16.7581C3.93899 18.3784 4.42748 19.9335 5.20168 21.2936L5.73817 20.9908ZM4.38594 16.699L5.00066 16.6399C4.8497 15.1819 4.99155 13.7025 5.41293 12.3264L4.82189 12.1413L4.23086 11.9561C3.76052 13.4921 3.60344 15.1377 3.77122 16.7581L4.38594 16.699ZM4.82189 12.1413L4.34057 12.5254L9.39409 18.8401L9.87541 18.456L10.3567 18.0719L5.30321 11.7571L4.82189 12.1413ZM9.87541 18.456L10.343 18.8637L11.4422 17.5998L10.9746 17.192L10.5071 16.7842L9.40782 18.0482L9.87541 18.456ZM10.9746 17.192L11.4422 17.5998L14.3874 14.2132L13.9198 13.8055L13.4522 13.3977L10.5071 16.7842L10.9746 17.192ZM13.9198 13.8055L14.3874 14.2132L15.4866 12.9493L15.019 12.5415L14.5514 12.1337L13.4522 13.3977L13.9198 13.8055ZM15.019 12.5415L15.5003 12.1574L10.4468 5.84266L9.96549 6.22678L9.48417 6.6109L14.5377 12.9256L15.019 12.5415ZM9.96549 6.22678L10.1909 6.80409C11.3164 6.37158 12.5066 6.26877 13.6661 6.50026L13.7826 5.89404L13.8992 5.28782C12.506 5.00966 11.0789 5.135 9.74007 5.64947L9.96549 6.22678ZM13.7826 5.89404L13.6661 6.50026C14.8263 6.7319 15.9338 7.29402 16.8941 8.15165L17.3037 7.69186L17.7134 7.23208C16.5985 6.23641 15.2916 5.56582 13.8992 5.28782L13.7826 5.89404ZM17.3037 7.69186L16.8941 8.15165C17.8551 9.00989 18.6404 10.1392 19.1764 11.4518L19.7483 11.2217L20.3202 10.9917C19.7184 9.51816 18.8276 8.22712 17.7134 7.23208L17.3037 7.69186ZM19.7483 11.2217L19.1764 11.4518C19.7124 12.7644 19.9811 14.2165 19.9565 15.6862L20.5744 15.7012L21.1923 15.7162C21.2197 14.0846 20.9219 12.4652 20.3202 10.9917L19.7483 11.2217ZM20.5744 15.7012L19.9567 15.6779C19.9331 16.4563 19.8229 17.2269 19.6294 17.9688L20.2274 18.1291L20.8255 18.2895C21.0427 17.457 21.1658 16.5945 21.1921 15.7246L20.5744 15.7012ZM20.2274 18.1291L19.7458 18.5128L43.3413 48.0468L43.8229 47.6631L44.3045 47.2794L20.7091 17.7454L20.2274 18.1291ZM43.8229 47.6631L43.3404 48.0458C43.613 48.3884 43.7749 48.8669 43.766 49.3794L44.384 49.3948L45.0019 49.4102C45.0153 48.6359 44.7738 47.8693 44.3054 47.2804L43.8229 47.6631ZM44.384 49.3948L43.766 49.3794C43.7572 49.8919 43.5788 50.362 43.2946 50.6907L43.7634 51.0971L44.2321 51.5035C44.7206 50.9385 44.9885 50.1845 45.0019 49.4102L44.384 49.3948ZM4.36531 46.68L3.89654 46.2737C3.40806 46.8387 3.14021 47.5926 3.12678 48.367L3.74471 48.3824L4.36263 48.3977C4.37151 47.8852 4.54989 47.4152 4.83408 47.0864L4.36531 46.68ZM3.74471 48.3824L3.12678 48.367C3.11336 49.1413 3.35484 49.9079 3.82331 50.4968L4.30577 50.1141L4.78822 49.7314C4.51567 49.3888 4.35374 48.9103 4.36263 48.3977L3.74471 48.3824ZM4.30577 50.1141L3.82445 50.4982L6.64964 54.0285L7.13096 53.6444L7.61228 53.2602L4.78709 49.73L4.30577 50.1141ZM7.13096 53.6444L6.65078 54.0299C7.12517 54.6192 7.80072 54.9879 8.54038 55.0063L8.5511 54.3883L8.56182 53.7703C8.22793 53.7619 7.88239 53.5957 7.61115 53.2588L7.13096 53.6444ZM8.5511 54.3883L8.54038 55.0063C9.28005 55.0247 9.9678 54.69 10.4622 54.1249L9.9958 53.7157L9.5294 53.3066C9.24671 53.6297 8.8957 53.7786 8.56182 53.7703L8.5511 54.3883ZM9.9958 53.7157L10.463 54.1239L21.8076 41.103L21.3403 40.6949L20.8731 40.2867L9.52857 53.3076L9.9958 53.7157ZM21.3403 40.6949L21.8217 40.3107L16.1912 33.275L15.7098 33.6592L15.2285 34.0433L20.859 41.079L21.3403 40.6949ZM41.0614 6.46545L40.7529 5.92741L32.5413 10.5959L32.8497 11.134L33.1581 11.672L41.3698 7.00349L41.0614 6.46545ZM32.8497 11.134L32.2318 11.1186L32.1473 15.9895L32.7652 16.0049L33.3831 16.0203L33.4676 11.1493L32.8497 11.134ZM32.7652 16.0049L32.2976 15.5972L27.797 20.7723L28.2646 21.1801L28.7322 21.5879L33.2328 16.4127L32.7652 16.0049ZM28.2646 21.1801L27.7833 21.5642L31.7624 26.5364L32.2437 26.1523L32.725 25.7682L28.7459 20.796L28.2646 21.1801ZM32.2437 26.1523L32.7113 26.5601L37.212 21.3849L36.7444 20.9772L36.2768 20.5694L31.7761 25.7446L32.2437 26.1523ZM36.7444 20.9772L36.7337 21.5952L40.7973 21.6964L40.808 21.0784L40.8187 20.4604L36.7551 20.3591L36.7444 20.9772ZM40.808 21.0784L41.3741 21.3306L45.6067 11.6898L45.0405 11.4377L44.4743 11.1855L40.2418 20.8262L40.808 21.0784ZM45.0405 11.4377L45.5218 11.0535L41.5427 6.08133L41.0614 6.46545L40.58 6.84957L44.5592 11.8218L45.0405 11.4377Z" fill="#4637B7" fill-opacity="0.51" mask="url(#path-3-outside-1_74_2449)"/>
<path d="M10.3931 14.1211C10.3931 14.4117 10.3251 14.662 10.1891 14.8721C10.0593 15.0761 9.84294 15.2646 9.54006 15.4377C9.33609 15.5613 9.09811 15.6541 8.82614 15.7159C8.55417 15.7777 8.27911 15.8086 8.00096 15.8086C7.71663 15.8086 7.3643 15.7159 6.94398 15.5304C6.64111 15.3821 6.40004 15.2059 6.22079 15.0019C6.04772 14.798 5.96118 14.5755 5.96118 14.3344C5.96118 14.1675 5.99827 14.047 6.07244 13.9728C6.14662 13.8924 6.26715 13.8523 6.43404 13.8523C6.52058 13.8523 6.6102 13.8893 6.70292 13.9635C6.79564 14.0315 6.85127 14.0995 6.86981 14.1675C6.95635 14.4209 7.10778 14.6156 7.32412 14.7516C7.54046 14.8814 7.80934 14.9463 8.13076 14.9463C8.50163 14.9463 8.81069 14.8783 9.05793 14.7423C9.31136 14.6064 9.43807 14.424 9.43807 14.1953C9.43807 13.9728 9.30209 13.775 9.03012 13.6019C8.75815 13.4288 8.48 13.3083 8.19567 13.2403C7.78771 13.1291 7.42611 12.9962 7.11088 12.8416C6.78328 12.6809 6.53912 12.4831 6.37841 12.2483C6.2177 12.0134 6.13735 11.7661 6.13735 11.5065C6.13735 11.2655 6.22079 11.0213 6.38768 10.774C6.55457 10.5206 6.75237 10.3383 6.98107 10.227C7.10469 10.1652 7.31485 10.1003 7.61155 10.0323C7.91442 9.95814 8.13385 9.92105 8.26984 9.92105C8.44909 9.92105 8.64689 9.94269 8.86323 9.98595C9.07957 10.0292 9.25573 10.091 9.39172 10.1714C9.66369 10.3259 9.86457 10.465 9.99438 10.5886C10.1242 10.7122 10.1891 10.8668 10.1891 11.0522C10.1891 11.1635 10.1458 11.2624 10.0593 11.3489C9.97892 11.4354 9.83676 11.4787 9.63278 11.4787C9.58333 11.4787 9.53388 11.4571 9.48443 11.4138C9.43498 11.3705 9.37317 11.3056 9.299 11.2191C9.2001 11.0893 9.10429 11.0028 9.01158 10.9595C8.91886 10.9286 8.78287 10.8946 8.60362 10.8575C8.43055 10.8204 8.27602 10.8019 8.14004 10.8019C7.99169 10.8019 7.83716 10.8328 7.67645 10.8946C7.51574 10.9564 7.37976 11.046 7.26849 11.1635C7.16342 11.2747 7.11088 11.4045 7.11088 11.5529C7.11088 11.6765 7.16651 11.7847 7.27777 11.8774C7.39521 11.9639 7.53428 12.035 7.69499 12.0906C7.88043 12.1648 8.08131 12.2297 8.29765 12.2853C8.58199 12.3719 8.81378 12.4522 8.99303 12.5264C9.17847 12.5944 9.35772 12.6809 9.53079 12.786C9.83367 12.9653 10.0531 13.1507 10.1891 13.3423C10.3251 13.5277 10.3931 13.7874 10.3931 14.1211ZM13.4112 13.4165C13.4298 13.367 13.4947 13.1878 13.6059 12.8787C13.7234 12.5697 13.8315 12.3348 13.9304 12.1741C14.0911 11.9207 14.2333 11.7939 14.3569 11.7939C14.53 11.7939 14.6629 11.8279 14.7556 11.8959C14.8483 11.9577 14.8947 12.0474 14.8947 12.1648C14.8947 12.2204 14.87 12.2977 14.8205 12.3966C14.7773 12.4955 14.7525 12.5542 14.7463 12.5728C14.4991 13.1167 14.2766 13.7008 14.0788 14.3251L13.8841 15.0483C13.8099 15.2832 13.6832 15.4748 13.5039 15.6232C13.3247 15.7653 13.1145 15.8364 12.8735 15.8364C12.6571 15.8364 12.4562 15.7375 12.2708 15.5397C12.1595 15.3666 12.0421 15.1472 11.9185 14.8814C11.801 14.6156 11.699 14.356 11.6125 14.1026L11.288 13.1291C11.22 12.9374 11.1644 12.7736 11.1211 12.6377C11.084 12.5017 11.0655 12.3781 11.0655 12.2668C11.0593 12.137 11.0964 12.0319 11.1767 11.9516C11.2571 11.8712 11.3684 11.831 11.5105 11.831C11.6712 11.831 11.7856 11.865 11.8536 11.933C11.9216 11.9948 11.9834 12.0937 12.039 12.2297C12.0637 12.3719 12.1317 12.6624 12.243 13.1012L12.3079 13.3609C12.3635 13.571 12.4346 13.7843 12.5211 14.0006C12.6077 14.2169 12.6942 14.424 12.7807 14.6218C12.7684 14.5909 12.8116 14.6929 12.9105 14.9278C12.9724 14.7485 13.0434 14.5291 13.1238 14.2695L13.4112 13.4165ZM15.4778 13.8337C15.4778 13.5988 15.5211 13.3639 15.6076 13.1291C15.6941 12.888 15.8085 12.6686 15.9507 12.4708C16.0928 12.273 16.3184 12.1123 16.6275 11.9886C16.9365 11.8588 17.2116 11.7939 17.4527 11.7939C17.6999 11.7939 17.9503 11.8279 18.2037 11.8959C18.4633 11.9639 18.6425 12.069 18.7414 12.2112C18.9701 12.5326 19.0845 12.8478 19.0845 13.1569C19.0845 13.3238 19.0474 13.4659 18.9732 13.5834C18.9052 13.7008 18.8063 13.8275 18.6765 13.9635C18.5715 14.0748 18.4046 14.149 18.1759 14.186C17.9533 14.2231 17.7308 14.2417 17.5083 14.2417C17.3661 14.2417 17.1931 14.2293 16.9891 14.2046C16.7851 14.1737 16.5873 14.1366 16.3957 14.0933C16.4081 14.2169 16.439 14.3375 16.4884 14.4549C16.5379 14.5724 16.5966 14.662 16.6646 14.7238C16.7882 14.8412 16.9149 14.9154 17.0447 14.9463C17.1807 14.9772 17.3538 14.9927 17.5639 14.9927C17.7865 14.9927 17.9935 14.9556 18.1851 14.8814C18.3397 14.8258 18.4664 14.798 18.5653 14.798C18.6827 14.798 18.7723 14.8351 18.8342 14.9092C18.896 14.9772 18.9269 15.0669 18.9269 15.1781C18.9269 15.3326 18.8372 15.4594 18.658 15.5583C18.4787 15.6572 18.2717 15.7313 18.0368 15.7808C17.8081 15.824 17.6227 15.8457 17.4805 15.8457C17.19 15.8457 16.9087 15.7931 16.6368 15.6881C16.3648 15.583 16.1392 15.4346 15.9599 15.243C15.8116 15.0699 15.6941 14.8629 15.6076 14.6218C15.5211 14.3746 15.4778 14.1119 15.4778 13.8337ZM17.499 12.582C17.363 12.582 17.2271 12.6098 17.0911 12.6655C16.9551 12.7149 16.8438 12.786 16.7573 12.8787C16.646 12.9962 16.5688 13.092 16.5255 13.1662C16.4884 13.2341 16.4637 13.33 16.4513 13.4536C16.6059 13.503 16.9273 13.5277 17.4156 13.5277C17.6814 13.5277 17.8854 13.4876 18.0275 13.4072C18.1759 13.3269 18.25 13.2218 18.25 13.092C18.25 12.9622 18.1697 12.8447 18.009 12.7397C17.8483 12.6346 17.6783 12.582 17.499 12.582ZM19.8963 12.5357C19.8469 12.4986 19.8067 12.4615 19.7758 12.4244C19.7449 12.3811 19.7295 12.307 19.7295 12.2019C19.7295 12.0845 19.7696 11.9948 19.85 11.933C19.9365 11.865 20.0354 11.831 20.1467 11.831C20.363 11.831 20.5485 11.8867 20.703 11.9979C20.8637 12.1092 20.9811 12.2637 21.0553 12.4615C21.1913 12.2081 21.3644 12.035 21.5745 11.9423C21.7847 11.8434 22.0752 11.7939 22.4461 11.7939C22.5944 11.7939 22.7459 11.8403 22.9004 11.933C23.0611 12.0195 23.2063 12.1277 23.3361 12.2575C23.4412 12.3935 23.5309 12.5635 23.605 12.7675C23.6792 12.9653 23.7163 13.1445 23.7163 13.3052C23.7163 13.3979 23.7101 13.5494 23.6977 13.7595C23.6854 13.9821 23.6792 14.1582 23.6792 14.288C23.6792 14.7207 23.7626 14.9865 23.9295 15.0854C23.9543 15.0978 24.0006 15.1132 24.0686 15.1318C24.1366 15.1503 24.1861 15.1688 24.217 15.1874C24.254 15.2059 24.2726 15.2337 24.2726 15.2708C24.2788 15.4192 24.2231 15.5428 24.1057 15.6417C23.9944 15.7344 23.8585 15.7808 23.6977 15.7808C23.4567 15.7808 23.2682 15.7159 23.1322 15.5861C22.9962 15.4563 22.9004 15.2585 22.8447 14.9927C22.8138 14.8938 22.7984 14.7485 22.7984 14.5569C22.7984 14.4518 22.8046 14.2818 22.8169 14.047C22.8355 13.8615 22.8447 13.6637 22.8447 13.4536C22.8447 13.2372 22.7829 13.0487 22.6593 12.888C22.5357 12.7211 22.3657 12.6377 22.1494 12.6377C22.0196 12.6377 21.8836 12.6778 21.7414 12.7582C21.5992 12.8324 21.5004 12.9251 21.4447 13.0363C21.352 13.228 21.2902 13.4227 21.2593 13.6205C21.1851 14.0037 21.148 14.3715 21.148 14.7238C21.148 14.8103 21.1542 14.9772 21.1666 15.2245C21.1666 15.243 21.1666 15.2894 21.1666 15.3635C21.1666 15.4315 21.1573 15.4964 21.1388 15.5583C21.1264 15.6201 21.1017 15.6757 21.0646 15.7251C21.0399 15.7499 20.9935 15.7746 20.9255 15.7993C20.8575 15.824 20.7988 15.8364 20.7493 15.8364C20.6628 15.8364 20.5546 15.7993 20.4248 15.7251C20.295 15.651 20.2178 15.5675 20.193 15.4748L20.1838 15.345C20.1838 15.2956 20.1899 15.2214 20.2023 15.1225C20.2765 14.6898 20.3136 14.3128 20.3136 13.9913C20.3136 13.8492 20.3105 13.741 20.3043 13.6668L20.295 13.2403C20.295 13.1105 20.2579 12.9869 20.1838 12.8695C20.1096 12.7458 20.0138 12.6346 19.8963 12.5357ZM27.5474 13.6761C27.7946 13.8183 27.9677 13.9604 28.0666 14.1026C28.1655 14.2386 28.215 14.4178 28.215 14.6404C28.215 14.8629 28.1501 15.0607 28.0202 15.2337C27.8904 15.4006 27.7236 15.5304 27.5196 15.6232C27.3712 15.6911 27.1858 15.7437 26.9633 15.7808C26.7469 15.8179 26.577 15.8364 26.4533 15.8364C26.237 15.8364 26.0021 15.7962 25.7487 15.7159C25.4953 15.6355 25.2789 15.5212 25.0997 15.3728C24.9266 15.2245 24.84 15.0514 24.84 14.8536C24.84 14.73 24.8802 14.6342 24.9606 14.5662C25.0409 14.492 25.146 14.4549 25.2758 14.4549C25.3809 14.4549 25.4922 14.5291 25.6096 14.6774C25.727 14.8072 25.863 14.9061 26.0176 14.9741C26.1783 15.0421 26.3359 15.0761 26.4904 15.0761C27.0776 15.0761 27.3712 14.9432 27.3712 14.6774C27.3712 14.6218 27.3527 14.5693 27.3156 14.5198C27.2785 14.4642 27.2445 14.4271 27.2136 14.4086C27.158 14.3653 27.0807 14.3282 26.9818 14.2973C26.8829 14.2664 26.784 14.2417 26.6851 14.2231C26.5862 14.1984 26.512 14.1799 26.4626 14.1675C26.4132 14.1551 26.3081 14.1335 26.1474 14.1026C25.9928 14.0717 25.8445 14.0191 25.7023 13.945C25.4674 13.8337 25.2758 13.6977 25.1275 13.537C24.9853 13.3763 24.9142 13.1692 24.9142 12.9158C24.9142 12.7736 24.9482 12.6315 25.0162 12.4893C25.0904 12.341 25.1893 12.2297 25.3129 12.1555C25.4983 12.0381 25.7023 11.9485 25.9248 11.8867C26.1474 11.8248 26.3544 11.7939 26.546 11.7939C26.7006 11.7939 26.8736 11.8094 27.0653 11.8403C27.2631 11.8712 27.4052 11.9145 27.4918 11.9701C27.6525 12.0566 27.7699 12.1463 27.8441 12.239C27.9183 12.3317 27.9553 12.4491 27.9553 12.5913C27.9553 12.6593 27.9399 12.7273 27.909 12.7953C27.8781 12.8571 27.841 12.9004 27.7977 12.9251C27.6988 12.9622 27.6123 12.9807 27.5381 12.9807C27.4825 12.9807 27.4361 12.9714 27.399 12.9529C27.362 12.9282 27.328 12.9035 27.2971 12.8787C27.2723 12.854 27.2569 12.8386 27.2507 12.8324C27.1703 12.7458 27.0807 12.6778 26.9818 12.6284C26.8829 12.5789 26.7377 12.5542 26.546 12.5542C26.4224 12.5542 26.3019 12.5728 26.1844 12.6098C26.0732 12.6408 25.9867 12.6809 25.9248 12.7304C25.8754 12.7675 25.8414 12.8015 25.8229 12.8324C25.8043 12.8571 25.795 12.8911 25.795 12.9344C25.795 13.1074 25.9681 13.2341 26.3143 13.3145C26.6666 13.3949 26.852 13.4381 26.8706 13.4443C26.9076 13.4567 27.0096 13.4876 27.1765 13.537C27.3496 13.5865 27.4732 13.6328 27.5474 13.6761ZM31.6844 13.7132C31.7338 13.7441 31.8296 13.8028 31.9718 13.8893C32.1202 13.9697 32.2191 14.0655 32.2685 14.1768C32.3179 14.288 32.3427 14.4426 32.3427 14.6404C32.3427 14.8629 32.2778 15.0607 32.148 15.2337C32.0182 15.4006 31.8513 15.5304 31.6473 15.6232C31.4989 15.6911 31.3166 15.7437 31.1003 15.7808C30.8901 15.8179 30.7232 15.8364 30.5996 15.8364C30.476 15.8364 30.3153 15.8179 30.1175 15.7808C29.9258 15.7437 29.793 15.7097 29.7188 15.6788C29.5272 15.5675 29.3603 15.4315 29.2181 15.2708C29.0821 15.1101 29.0141 14.9463 29.0141 14.7794C29.0141 14.6558 29.0543 14.56 29.1347 14.492C29.215 14.4178 29.3201 14.3807 29.4499 14.3807C29.5117 14.3807 29.5766 14.4055 29.6446 14.4549C29.7126 14.4982 29.759 14.5445 29.7837 14.594C29.8517 14.7547 29.966 14.8752 30.1267 14.9556C30.2874 15.0359 30.4512 15.0761 30.6181 15.0761C30.8345 15.0761 31.0354 15.0421 31.2208 14.9741C31.4062 14.9 31.4989 14.8011 31.4989 14.6774C31.4989 14.6218 31.4835 14.5785 31.4526 14.5476C31.4279 14.5105 31.3908 14.4735 31.3413 14.4364C31.2548 14.3746 31.125 14.3251 30.9519 14.288C30.7788 14.2448 30.6676 14.2169 30.6181 14.2046C30.3647 14.149 30.1175 14.0655 29.8764 13.9542C29.6353 13.8368 29.4437 13.6977 29.3016 13.537C29.1594 13.3763 29.0883 13.1692 29.0883 12.9158C29.0883 12.7489 29.1501 12.5759 29.2737 12.3966C29.3974 12.2112 29.5364 12.0814 29.691 12.0072C29.8022 11.9639 29.9877 11.9176 30.2473 11.8681C30.5131 11.8187 30.6923 11.7939 30.785 11.7939C30.9272 11.7939 31.0817 11.8094 31.2486 11.8403C31.4155 11.865 31.5422 11.9083 31.6288 11.9701C31.7956 12.069 31.9316 12.1741 32.0367 12.2853C32.1418 12.3904 32.1943 12.5109 32.1943 12.6469C32.1943 12.7149 32.1789 12.7891 32.148 12.8695C32.1171 12.9436 32.08 12.99 32.0367 13.0085C31.944 13.0518 31.8358 13.0734 31.7122 13.0734C31.6566 13.0734 31.6102 13.058 31.5731 13.0271C31.5422 12.9962 31.4989 12.9467 31.4433 12.8787C31.3753 12.7736 31.3104 12.7118 31.2486 12.6933C31.1744 12.6748 31.0663 12.6531 30.9241 12.6284C30.7819 12.5975 30.6861 12.582 30.6367 12.582C30.4945 12.582 30.3462 12.6222 30.1916 12.7026C30.0433 12.7829 29.9691 12.8756 29.9691 12.9807C29.9691 13.0363 29.9907 13.0796 30.034 13.1105C30.0835 13.1414 30.1329 13.1692 30.1824 13.194C30.238 13.2187 30.2751 13.2341 30.2936 13.2403C30.4234 13.3021 30.5656 13.3547 30.7201 13.3979C30.8808 13.4412 30.9797 13.469 31.0168 13.4814C31.3506 13.5617 31.5731 13.639 31.6844 13.7132ZM36.8702 12.8231C36.9196 12.9096 36.9598 13.0363 36.9907 13.2032C37.0216 13.3639 37.0371 13.5092 37.0371 13.639C37.0371 13.8059 37.0185 13.9913 36.9814 14.1953C36.9443 14.3993 36.9103 14.5569 36.8794 14.6682C36.4529 15.447 35.8225 15.8364 34.988 15.8364C34.679 15.8364 34.3637 15.7344 34.0423 15.5304C33.7209 15.3265 33.4984 15.0916 33.3747 14.8258C33.2078 14.3004 33.1244 13.9635 33.1244 13.8152C33.1244 13.5679 33.1769 13.3052 33.282 13.0271C33.3933 12.7489 33.5324 12.5079 33.6992 12.3039C33.8105 12.1617 34.0021 12.0412 34.2741 11.9423C34.5461 11.8372 34.7933 11.7847 35.0158 11.7847C35.4485 11.7847 35.8132 11.8681 36.1099 12.035C36.4128 12.1957 36.6662 12.4584 36.8702 12.8231ZM36.0635 14.3158C36.0944 14.254 36.1099 14.047 36.1099 13.6946C36.1099 13.5154 36.0759 13.3392 36.0079 13.1662C35.9461 12.9931 35.8534 12.8447 35.7297 12.7211C35.7174 12.7087 35.6834 12.6902 35.6278 12.6655C35.5721 12.6346 35.4949 12.6068 35.396 12.582C35.3032 12.5511 35.1951 12.5357 35.0715 12.5357C34.7253 12.5357 34.4719 12.6748 34.3112 12.9529C34.1505 13.2311 34.0701 13.5463 34.0701 13.8986C34.0701 13.9542 34.0887 14.0686 34.1257 14.2417C34.1628 14.4147 34.1906 14.526 34.2092 14.5755C34.2586 14.662 34.3575 14.764 34.5059 14.8814C34.6604 14.9927 34.8273 15.0483 35.0066 15.0483C35.2847 15.0483 35.5041 14.9834 35.6648 14.8536C35.8317 14.7176 35.9646 14.5384 36.0635 14.3158ZM37.8512 12.5357C37.8018 12.4986 37.7616 12.4615 37.7307 12.4244C37.6998 12.3811 37.6843 12.307 37.6843 12.2019C37.6843 12.0845 37.7245 11.9948 37.8049 11.933C37.8914 11.865 37.9903 11.831 38.1016 11.831C38.3179 11.831 38.5033 11.8867 38.6579 11.9979C38.8186 12.1092 38.936 12.2637 39.0102 12.4615C39.1462 12.2081 39.3192 12.035 39.5294 11.9423C39.7396 11.8434 40.0301 11.7939 40.4009 11.7939C40.5493 11.7939 40.7007 11.8403 40.8553 11.933C41.016 12.0195 41.1612 12.1277 41.291 12.2575C41.3961 12.3935 41.4857 12.5635 41.5599 12.7675C41.6341 12.9653 41.6712 13.1445 41.6712 13.3052C41.6712 13.3979 41.665 13.5494 41.6526 13.7595C41.6403 13.9821 41.6341 14.1582 41.6341 14.288C41.6341 14.7207 41.7175 14.9865 41.8844 15.0854C41.9091 15.0978 41.9555 15.1132 42.0235 15.1318C42.0915 15.1503 42.1409 15.1688 42.1718 15.1874C42.2089 15.2059 42.2275 15.2337 42.2275 15.2708C42.2337 15.4192 42.178 15.5428 42.0606 15.6417C41.9493 15.7344 41.8133 15.7808 41.6526 15.7808C41.4116 15.7808 41.223 15.7159 41.0871 15.5861C40.9511 15.4563 40.8553 15.2585 40.7996 14.9927C40.7687 14.8938 40.7533 14.7485 40.7533 14.5569C40.7533 14.4518 40.7595 14.2818 40.7718 14.047C40.7904 13.8615 40.7996 13.6637 40.7996 13.4536C40.7996 13.2372 40.7378 13.0487 40.6142 12.888C40.4906 12.7211 40.3206 12.6377 40.1043 12.6377C39.9745 12.6377 39.8385 12.6778 39.6963 12.7582C39.5541 12.8324 39.4552 12.9251 39.3996 13.0363C39.3069 13.228 39.2451 13.4227 39.2142 13.6205C39.14 14.0037 39.1029 14.3715 39.1029 14.7238C39.1029 14.8103 39.1091 14.9772 39.1215 15.2245C39.1215 15.243 39.1215 15.2894 39.1215 15.3635C39.1215 15.4315 39.1122 15.4964 39.0936 15.5583C39.0813 15.6201 39.0566 15.6757 39.0195 15.7251C38.9947 15.7499 38.9484 15.7746 38.8804 15.7993C38.8124 15.824 38.7537 15.8364 38.7042 15.8364C38.6177 15.8364 38.5095 15.7993 38.3797 15.7251C38.2499 15.651 38.1726 15.5675 38.1479 15.4748L38.1387 15.345C38.1387 15.2956 38.1448 15.2214 38.1572 15.1225C38.2314 14.6898 38.2685 14.3128 38.2685 13.9913C38.2685 13.8492 38.2654 13.741 38.2592 13.6668L38.2499 13.2403C38.2499 13.1105 38.2128 12.9869 38.1387 12.8695C38.0645 12.7458 37.9687 12.6346 37.8512 12.5357ZM45.5023 13.6761C45.7495 13.8183 45.9226 13.9604 46.0215 14.1026C46.1204 14.2386 46.1698 14.4178 46.1698 14.6404C46.1698 14.8629 46.1049 15.0607 45.9751 15.2337C45.8453 15.4006 45.6784 15.5304 45.4745 15.6232C45.3261 15.6911 45.1407 15.7437 44.9182 15.7808C44.7018 15.8179 44.5318 15.8364 44.4082 15.8364C44.1919 15.8364 43.957 15.7962 43.7036 15.7159C43.4501 15.6355 43.2338 15.5212 43.0545 15.3728C42.8815 15.2245 42.7949 15.0514 42.7949 14.8536C42.7949 14.73 42.8351 14.6342 42.9155 14.5662C42.9958 14.492 43.1009 14.4549 43.2307 14.4549C43.3358 14.4549 43.447 14.5291 43.5645 14.6774C43.6819 14.8072 43.8179 14.9061 43.9724 14.9741C44.1331 15.0421 44.2908 15.0761 44.4453 15.0761C45.0325 15.0761 45.3261 14.9432 45.3261 14.6774C45.3261 14.6218 45.3076 14.5693 45.2705 14.5198C45.2334 14.4642 45.1994 14.4271 45.1685 14.4086C45.1129 14.3653 45.0356 14.3282 44.9367 14.2973C44.8378 14.2664 44.7389 14.2417 44.64 14.2231C44.5411 14.1984 44.4669 14.1799 44.4175 14.1675C44.368 14.1551 44.263 14.1335 44.1022 14.1026C43.9477 14.0717 43.7994 14.0191 43.6572 13.945C43.4223 13.8337 43.2307 13.6977 43.0824 13.537C42.9402 13.3763 42.8691 13.1692 42.8691 12.9158C42.8691 12.7736 42.9031 12.6315 42.9711 12.4893C43.0453 12.341 43.1442 12.2297 43.2678 12.1555C43.4532 12.0381 43.6572 11.9485 43.8797 11.8867C44.1022 11.8248 44.3093 11.7939 44.5009 11.7939C44.6555 11.7939 44.8285 11.8094 45.0201 11.8403C45.2179 11.8712 45.3601 11.9145 45.4466 11.9701C45.6074 12.0566 45.7248 12.1463 45.799 12.239C45.8731 12.3317 45.9102 12.4491 45.9102 12.5913C45.9102 12.6593 45.8948 12.7273 45.8639 12.7953C45.833 12.8571 45.7959 12.9004 45.7526 12.9251C45.6537 12.9622 45.5672 12.9807 45.493 12.9807C45.4374 12.9807 45.391 12.9714 45.3539 12.9529C45.3168 12.9282 45.2828 12.9035 45.2519 12.8787C45.2272 12.854 45.2118 12.8386 45.2056 12.8324C45.1252 12.7458 45.0356 12.6778 44.9367 12.6284C44.8378 12.5789 44.6925 12.5542 44.5009 12.5542C44.3773 12.5542 44.2568 12.5728 44.1393 12.6098C44.0281 12.6408 43.9415 12.6809 43.8797 12.7304C43.8303 12.7675 43.7963 12.8015 43.7777 12.8324C43.7592 12.8571 43.7499 12.8911 43.7499 12.9344C43.7499 13.1074 43.923 13.2341 44.2691 13.3145C44.6215 13.3949 44.8069 13.4381 44.8254 13.4443C44.8625 13.4567 44.9645 13.4876 45.1314 13.537C45.3045 13.5865 45.4281 13.6328 45.5023 13.6761ZM10.3189 23.48C10.3127 23.3811 10.3096 23.2328 10.3096 23.035V22.6827C10.3096 22.4478 10.3034 22.2716 10.2911 22.1542C10.2787 22.0553 10.2725 21.7988 10.2725 21.3846C10.2725 21.2363 10.3158 21.1219 10.4023 21.0416C10.495 20.955 10.6187 20.9118 10.7732 20.9118C10.971 20.9118 11.1039 20.955 11.1719 21.0416C11.2399 21.1281 11.2739 21.2703 11.2739 21.4681V21.8204L11.2646 22.8403C11.2584 23.0381 11.2553 23.3348 11.2553 23.7304L11.2646 24.4907C11.2708 24.6081 11.2739 24.7719 11.2739 24.9821C11.2739 25.149 11.2801 25.3869 11.2924 25.696C11.3048 25.9803 11.311 26.1936 11.311 26.3357C11.311 26.4532 11.277 26.5613 11.209 26.6602C11.1472 26.7591 11.0606 26.8086 10.9494 26.8086C10.5167 26.8086 10.3003 26.6633 10.3003 26.3728C10.3003 26.2121 10.3065 26.0329 10.3189 25.8351C10.3312 25.6929 10.3374 25.4766 10.3374 25.186C10.3374 24.9821 10.3312 24.6885 10.3189 24.3052C10.0284 24.33 9.5277 24.3423 8.81687 24.3423C8.37183 24.3423 8.02568 24.3423 7.77844 24.3423C7.53119 24.3361 7.35194 24.3207 7.24068 24.296L7.23141 25.3622C7.23141 25.4302 7.24686 25.6125 7.27777 25.9092C7.30867 26.107 7.32412 26.2801 7.32412 26.4284C7.32412 26.5212 7.26849 26.6108 7.15723 26.6973C7.05215 26.7777 6.95326 26.8179 6.86054 26.8179C6.63802 26.8179 6.48658 26.7653 6.40623 26.6602C6.32587 26.549 6.28569 26.3821 6.28569 26.1596L6.27642 25.4271C6.27024 25.3406 6.26715 25.22 6.26715 25.0655C6.26715 24.8368 6.26097 24.5247 6.24861 24.1291C6.23624 23.7706 6.23006 23.5109 6.23006 23.3502C6.23006 23.1092 6.23624 22.7723 6.24861 22.3396C6.26097 21.9317 6.26715 21.6288 6.26715 21.431C6.26715 21.2332 6.3166 21.1003 6.4155 21.0323C6.5144 20.9643 6.62566 20.9303 6.74928 20.9303C7.09542 20.9303 7.26849 21.0447 7.26849 21.2734C7.26849 21.6813 7.25922 22.0707 7.24068 22.4416C7.22832 22.9114 7.22214 23.2544 7.22214 23.4708C7.40139 23.514 7.58991 23.5419 7.78771 23.5542C7.98551 23.5666 8.26366 23.5728 8.62216 23.5728C9.35154 23.5728 9.91711 23.5419 10.3189 23.48ZM16.6921 26.3543C16.6921 26.4903 16.6179 26.6046 16.4696 26.6973C16.3274 26.79 16.1945 26.8364 16.0709 26.8364C15.836 26.8364 15.6475 26.8086 15.5053 26.753C15.3693 26.6911 15.2426 26.5799 15.1252 26.4192C14.9645 26.5613 14.745 26.6695 14.4669 26.7437C14.1887 26.8117 13.9322 26.8457 13.6973 26.8457C13.3141 26.8457 12.9989 26.7437 12.7516 26.5397C12.5044 26.3295 12.3808 26.0236 12.3808 25.6218C12.3808 25.4487 12.4271 25.2911 12.5198 25.149C12.6125 25.0006 12.7393 24.8708 12.9 24.7595C13.0792 24.6421 13.2832 24.5525 13.5119 24.4907C13.7406 24.4227 13.9786 24.3887 14.2258 24.3887C14.3556 24.3887 14.5102 24.4134 14.6894 24.4628C14.8687 24.5123 15.0077 24.5648 15.1066 24.6205V24.4721C15.1066 24.1383 15.0263 23.9096 14.8656 23.786C14.7049 23.6562 14.4453 23.5913 14.0868 23.5913C13.9817 23.5913 13.8766 23.6129 13.7715 23.6562C13.6726 23.6995 13.5583 23.7582 13.4285 23.8324C13.2554 23.9251 13.0916 23.9714 12.9371 23.9714C12.8814 23.9714 12.8289 23.9344 12.7794 23.8602C12.73 23.7798 12.7053 23.7087 12.7053 23.6469C12.7053 23.4677 12.7887 23.3132 12.9556 23.1833C13.1287 23.0535 13.3327 22.9577 13.5675 22.8959C13.8024 22.8279 14.0126 22.7939 14.198 22.7939C14.3834 22.7939 14.5967 22.831 14.8378 22.9052C15.0788 22.9732 15.2766 23.069 15.4311 23.1926C15.6166 23.3533 15.7587 23.5419 15.8576 23.7582C15.9627 23.9684 16.0153 24.2001 16.0153 24.4536C16.0153 24.5339 16.0091 24.6545 15.9967 24.8152C15.9844 24.9882 15.9782 25.1366 15.9782 25.2602C15.9782 25.3158 15.972 25.3993 15.9596 25.5105C15.9473 25.6465 15.9411 25.7547 15.9411 25.8351C15.9411 25.9092 15.9689 25.9741 16.0245 26.0298C16.0802 26.0792 16.1451 26.1039 16.2192 26.1039L16.4789 26.0947C16.5468 26.0947 16.5994 26.1194 16.6365 26.1688C16.6736 26.2183 16.6921 26.2801 16.6921 26.3543ZM13.7066 26.1132C13.9724 26.1132 14.1949 26.0854 14.3742 26.0298C14.5534 25.9741 14.7698 25.8721 15.0232 25.7238C15.0479 25.6187 15.0634 25.4796 15.0696 25.3066C14.7296 25.1459 14.4483 25.0655 14.2258 25.0655C13.9724 25.0655 13.7468 25.1119 13.549 25.2046C13.3512 25.2973 13.2523 25.4611 13.2523 25.696C13.2523 25.8134 13.3017 25.9123 13.4006 25.9927C13.4995 26.073 13.6015 26.1132 13.7066 26.1132ZM21.5364 26.0854C21.5673 26.0978 21.6168 26.1132 21.6848 26.1318C21.7528 26.1503 21.8022 26.1688 21.8331 26.1874C21.864 26.2059 21.8795 26.2337 21.8795 26.2708C21.8857 26.4192 21.83 26.5428 21.7126 26.6417C21.6013 26.7344 21.4684 26.7808 21.3139 26.7808C21.0728 26.7808 20.8843 26.7159 20.7483 26.5861C20.6123 26.4563 20.5134 26.2585 20.4516 25.9927C20.4269 25.8876 20.4145 25.7423 20.4145 25.5569C20.4145 25.4518 20.4207 25.2818 20.4331 25.047C20.4455 24.7997 20.4516 24.6019 20.4516 24.4536C20.4516 24.2372 20.3898 24.0487 20.2662 23.888C20.1488 23.7211 19.9819 23.6377 19.7655 23.6377C19.6357 23.6377 19.4997 23.6778 19.3576 23.7582C19.2154 23.8324 19.1165 23.9251 19.0609 24.0363C18.9682 24.2156 18.9033 24.4103 18.8662 24.6205C18.7982 24.9913 18.7642 25.3777 18.7642 25.7794C18.7642 25.971 18.7673 26.1194 18.7735 26.2245C18.7735 26.2492 18.7735 26.2986 18.7735 26.3728C18.7796 26.4408 18.7735 26.5057 18.7549 26.5675C18.7425 26.6232 18.7178 26.6757 18.6807 26.7251C18.6498 26.756 18.6004 26.7808 18.5324 26.7993C18.4706 26.824 18.4119 26.8364 18.3562 26.8364C18.2697 26.8364 18.1615 26.7993 18.0317 26.7251C17.9019 26.651 17.8277 26.5675 17.8092 26.4748L17.7999 26.3172C17.7999 26.2616 17.8061 26.1967 17.8185 26.1225C17.8926 25.6898 17.9297 25.3128 17.9297 24.9913C17.9297 24.8492 17.9266 24.7379 17.9205 24.6576L17.9112 24.2218C17.9112 24.0734 17.8741 23.9313 17.7999 23.7953C17.7258 23.6531 17.6392 23.582 17.5403 23.582C17.5094 23.582 17.4661 23.5944 17.4105 23.6191C17.3549 23.6377 17.3085 23.6469 17.2714 23.6469C17.2096 23.6469 17.1416 23.616 17.0675 23.5542C16.9995 23.4924 16.9655 23.4275 16.9655 23.3595C16.9655 23.2297 17.0087 23.1246 17.0953 23.0443C17.188 22.9701 17.2776 22.9114 17.3642 22.8681C17.4569 22.8248 17.562 22.8032 17.6794 22.8032C17.7783 22.8032 17.8586 22.8125 17.9205 22.831C17.9823 22.8496 18.0657 22.8897 18.1708 22.9516C18.2264 22.9825 18.2913 23.0505 18.3655 23.1555C18.4397 23.2606 18.5015 23.409 18.5509 23.6006C18.7116 23.3039 18.9094 23.0968 19.1443 22.9794C19.3854 22.8557 19.6914 22.7939 20.0622 22.7939C20.2044 22.7939 20.3558 22.8403 20.5165 22.933C20.6834 23.0257 20.8256 23.1339 20.943 23.2575C21.0543 23.3935 21.147 23.5635 21.2212 23.7675C21.2954 23.9653 21.3324 24.1445 21.3324 24.3052C21.3324 24.3979 21.3263 24.5494 21.3139 24.7595C21.2954 24.9264 21.2861 25.1026 21.2861 25.288C21.2861 25.7207 21.3695 25.9865 21.5364 26.0854ZM22.551 23.5728C22.4645 23.5604 22.3934 23.5264 22.3378 23.4708C22.2883 23.409 22.2636 23.3348 22.2636 23.2483C22.2636 23.137 22.3069 23.0443 22.3934 22.9701C22.4119 22.9516 22.4429 22.9361 22.4861 22.9237C22.5294 22.9052 22.5634 22.8897 22.5881 22.8774C22.7241 22.8341 22.8106 22.8001 22.8477 22.7754C22.9899 22.6889 23.0857 22.5467 23.1351 22.3489C23.1846 22.114 23.2155 21.9533 23.2279 21.8668C23.2402 21.7308 23.2835 21.6288 23.3577 21.5608C23.438 21.4866 23.5369 21.4495 23.6544 21.4495C23.8089 21.4495 23.9171 21.4897 23.9789 21.5701C24.0407 21.6504 24.0716 21.7988 24.0716 22.0151C24.0716 22.2994 24.0036 22.5683 23.8676 22.8218C23.9541 22.8218 24.0963 22.8156 24.2941 22.8032C24.5908 22.7908 24.7979 22.7847 24.9153 22.7847C25.0204 22.7847 25.11 22.8125 25.1842 22.8681C25.2645 22.9176 25.3047 22.9917 25.3047 23.0906C25.3047 23.3255 25.1966 23.4646 24.9802 23.5079C24.7824 23.5635 24.4239 23.5975 23.9047 23.6098C23.8614 24.2156 23.8398 24.6946 23.8398 25.047C23.8398 25.2633 23.8491 25.4178 23.8676 25.5105C23.9047 25.7022 23.9665 25.8443 24.053 25.937C24.1458 26.0236 24.2817 26.0669 24.461 26.0669C24.5475 26.0669 24.6773 26.0452 24.8504 26.0019C24.9555 25.971 25.0389 25.9556 25.1007 25.9556C25.1811 25.9556 25.2429 25.9834 25.2862 26.039C25.3294 26.0947 25.3511 26.1688 25.3511 26.2616C25.3511 26.4284 25.2429 26.5675 25.0266 26.6788C24.8102 26.7839 24.5537 26.8364 24.257 26.8364C24.0716 26.8364 23.8892 26.7931 23.71 26.7066C23.5307 26.6139 23.3793 26.5026 23.2557 26.3728C23.2309 26.3605 23.1939 26.2925 23.1444 26.1688C23.1011 26.0452 23.0579 25.9092 23.0146 25.7609C22.9961 25.6867 22.9868 25.5075 22.9868 25.2231C22.9868 24.9512 23.0053 24.4814 23.0424 23.8138L23.0517 23.6098C23.0084 23.6098 22.9281 23.6068 22.8106 23.6006C22.6932 23.5882 22.6067 23.5789 22.551 23.5728ZM28.1699 24.4165C28.1884 24.367 28.2533 24.1878 28.3646 23.8787C28.482 23.5697 28.5902 23.3348 28.6891 23.1741C28.8498 22.9207 28.992 22.7939 29.1156 22.7939C29.2887 22.7939 29.4216 22.8279 29.5143 22.8959C29.607 22.9577 29.6534 23.0474 29.6534 23.1648C29.6534 23.2204 29.6286 23.2977 29.5792 23.3966C29.5359 23.4955 29.5112 23.5542 29.505 23.5728C29.2578 24.1167 29.0353 24.7008 28.8375 25.3251L28.6428 26.0483C28.5686 26.2832 28.4419 26.4748 28.2626 26.6232C28.0834 26.7653 27.8732 26.8364 27.6321 26.8364C27.4158 26.8364 27.2149 26.7375 27.0295 26.5397C26.9182 26.3666 26.8008 26.1472 26.6772 25.8814C26.5597 25.6156 26.4577 25.356 26.3712 25.1026L26.0467 24.1291C25.9787 23.9374 25.9231 23.7736 25.8798 23.6377C25.8427 23.5017 25.8242 23.3781 25.8242 23.2668C25.818 23.137 25.8551 23.0319 25.9354 22.9516C26.0158 22.8712 26.127 22.831 26.2692 22.831C26.4299 22.831 26.5443 22.865 26.6123 22.933C26.6802 22.9948 26.7421 23.0937 26.7977 23.2297C26.8224 23.3719 26.8904 23.6624 27.0017 24.1012L27.0666 24.3609C27.1222 24.571 27.1933 24.7843 27.2798 25.0006C27.3663 25.2169 27.4529 25.424 27.5394 25.6218C27.5271 25.5909 27.5703 25.6929 27.6692 25.9278C27.731 25.7485 27.8021 25.5291 27.8825 25.2695L28.1699 24.4165ZM30.2179 24.6761C30.2179 24.299 30.3014 23.9869 30.4683 23.7397C30.6352 23.4862 30.867 23.2483 31.1636 23.0257C31.2502 22.9639 31.3954 22.9114 31.5994 22.8681C31.8034 22.8187 31.9826 22.7939 32.1372 22.7939C32.3226 22.7939 32.5173 22.8341 32.7213 22.9145C32.9315 22.9886 33.1014 23.0752 33.2312 23.1741C33.4599 23.341 33.6176 23.5357 33.7041 23.7582C33.7906 23.9745 33.8339 24.2341 33.8339 24.537C33.8339 24.6668 33.7597 24.7935 33.6114 24.9172C33.4692 25.0346 33.3147 25.0933 33.1478 25.0933L32.7955 25.0841C32.6162 25.0841 32.3597 25.0902 32.0259 25.1026L31.8312 25.1119C31.6952 25.1242 31.5932 25.1304 31.5252 25.1304C31.4263 25.1304 31.2904 25.118 31.1173 25.0933C31.142 25.3838 31.2502 25.6125 31.4418 25.7794C31.6334 25.9401 31.8405 26.0205 32.063 26.0205C32.4524 26.0205 32.7244 25.9432 32.8789 25.7887C33.0087 25.696 33.0953 25.6373 33.1385 25.6125C33.1818 25.5878 33.2498 25.5755 33.3425 25.5755C33.4414 25.5755 33.5279 25.6218 33.6021 25.7145C33.6763 25.8072 33.7134 25.9 33.7134 25.9927C33.7134 26.0978 33.6485 26.2059 33.5187 26.3172C33.395 26.4223 33.2251 26.5335 33.0087 26.651C32.8913 26.7004 32.7306 26.7437 32.5266 26.7808C32.3226 26.8179 32.1526 26.8364 32.0166 26.8364C31.8003 26.8364 31.5592 26.7746 31.2935 26.651C31.0277 26.5212 30.8299 26.379 30.7001 26.2245C30.5703 26.0699 30.4559 25.8505 30.357 25.5662C30.2643 25.2818 30.2179 24.9852 30.2179 24.6761ZM32.063 24.4258C32.5019 24.4258 32.8233 24.4103 33.0273 24.3794C33.0149 24.2001 32.9593 24.0549 32.8604 23.9436C32.7615 23.8262 32.6255 23.7273 32.4524 23.6469C32.3968 23.6222 32.3473 23.6037 32.3041 23.5913C32.2608 23.5789 32.2113 23.5728 32.1557 23.5728C31.8714 23.5728 31.6303 23.65 31.4325 23.8046C31.2409 23.9591 31.1266 24.1569 31.0895 24.3979C31.3985 24.4165 31.723 24.4258 32.063 24.4258ZM36.0833 26.4284C36.0833 26.5335 36.0431 26.6262 35.9628 26.7066C35.8824 26.787 35.7835 26.8271 35.6661 26.8271C35.4806 26.8271 35.3447 26.7931 35.2581 26.7251C35.1716 26.651 35.1283 26.5181 35.1283 26.3265C35.1283 26.0978 35.1221 25.798 35.1098 25.4271C35.0974 25.118 35.0912 24.8584 35.0912 24.6483C35.0912 24.5494 35.0974 24.4196 35.1098 24.2589C35.1221 24.1105 35.1283 23.9993 35.1283 23.9251C35.1098 23.8076 35.0634 23.7118 34.9892 23.6377C34.9151 23.5573 34.8193 23.5171 34.7018 23.5171C34.6462 23.5171 34.5998 23.4924 34.5627 23.443C34.5257 23.3873 34.5071 23.3317 34.5071 23.2761C34.5071 23.1339 34.5627 23.0257 34.674 22.9516C34.7914 22.8774 34.9305 22.8403 35.0912 22.8403C35.425 22.8403 35.6568 23.0381 35.7866 23.4337C35.9473 23.2483 36.1297 23.0999 36.3336 22.9886C36.5438 22.8712 36.7447 22.8125 36.9363 22.8125C37.165 22.8125 37.3721 22.8743 37.5575 22.9979C37.7491 23.1215 37.8449 23.2884 37.8449 23.4986C37.8449 23.616 37.7924 23.7366 37.6873 23.8602C37.5884 23.9838 37.4864 24.0456 37.3813 24.0456C37.3257 24.0456 37.2763 24.0333 37.233 24.0085C37.1959 23.9776 37.1495 23.9344 37.0939 23.8787C37.0321 23.8169 36.9796 23.7736 36.9363 23.7489C36.893 23.718 36.8436 23.7026 36.788 23.7026C36.6891 23.7026 36.5963 23.718 36.5098 23.7489C36.4233 23.7798 36.3645 23.8169 36.3336 23.8602C36.2347 24.0147 36.1606 24.1538 36.1111 24.2774C36.0678 24.401 36.0462 24.5339 36.0462 24.6761C36.0462 24.7812 36.0431 24.8646 36.0369 24.9264L36.0277 25.4549C36.0277 25.5353 36.0308 25.6249 36.0369 25.7238C36.0431 25.8227 36.0493 25.8969 36.0555 25.9463C36.074 26.1132 36.0833 26.2739 36.0833 26.4284ZM42.1142 25.9556C42.2193 26.0359 42.2903 26.1132 42.3274 26.1874C42.3645 26.2616 42.3831 26.3543 42.3831 26.4655C42.3831 26.5583 42.3336 26.6448 42.2347 26.7251C42.142 26.7993 42.0555 26.8364 41.9751 26.8364C41.9071 26.8364 41.8268 26.8148 41.734 26.7715C41.6413 26.7282 41.5702 26.6788 41.5208 26.6232C41.4528 26.5675 41.3199 26.4315 41.1221 26.2152C40.9305 25.9989 40.7883 25.8289 40.6956 25.7053C40.4731 25.4271 40.3618 25.288 40.3618 25.288L40.0373 24.8893L39.4439 25.3715L39.481 26.3821C39.481 26.549 39.4378 26.6664 39.3512 26.7344C39.2709 26.8024 39.1905 26.8364 39.1102 26.8364C38.9927 26.8364 38.8876 26.8148 38.7949 26.7715C38.7084 26.7282 38.6558 26.6788 38.6373 26.6232C38.5693 26.3759 38.5353 26.0514 38.5353 25.6496C38.5353 24.8955 38.5477 24.2929 38.5724 23.8416C38.5971 23.2792 38.6095 22.7476 38.6095 22.2469C38.6095 22.0924 38.5909 21.8791 38.5539 21.6072C38.5477 21.5515 38.5384 21.4619 38.526 21.3383C38.5137 21.2147 38.5075 21.1034 38.5075 21.0045C38.5075 20.8623 38.5539 20.7511 38.6466 20.6707C38.7455 20.5904 38.8722 20.5502 39.0267 20.5502C39.1503 20.5502 39.2492 20.5904 39.3234 20.6707C39.4038 20.7449 39.4439 20.85 39.4439 20.986C39.4439 21.1899 39.4501 21.4588 39.4625 21.7926C39.4748 22.1264 39.481 22.3705 39.481 22.5251C39.481 22.7167 39.4748 22.9732 39.4625 23.2946C39.4501 23.4677 39.4439 23.5975 39.4439 23.684C39.4439 23.956 39.447 24.1816 39.4532 24.3609C39.6757 24.1322 39.9724 23.8664 40.3433 23.5635C40.7203 23.2544 41.0139 23.0381 41.2241 22.9145C41.459 22.7723 41.6012 22.7012 41.6506 22.7012C41.7804 22.7012 41.8917 22.729 41.9844 22.7847C42.0771 22.8403 42.1235 22.9237 42.1235 23.035C42.1235 23.1463 42.108 23.2328 42.0771 23.2946C42.0462 23.3502 41.9906 23.409 41.9102 23.4708L40.7142 24.3423C40.9799 24.6699 41.255 25.0037 41.5393 25.3437C41.8237 25.6774 42.0153 25.8814 42.1142 25.9556ZM10.458 37.6602C10.3776 37.5552 10.3096 37.4408 10.254 37.3172C10.1984 37.1874 10.1396 37.0329 10.0778 36.8536C10.0655 36.8227 10.0284 36.73 9.96656 36.5755C9.91093 36.4209 9.84603 36.288 9.77186 36.1768C9.38244 36.2324 9.06412 36.2602 8.81687 36.2602C8.68089 36.2602 8.52945 36.2571 8.36256 36.2509C8.20185 36.2386 8.08131 36.2324 8.00096 36.2324C7.6919 36.2077 7.44466 36.1953 7.25922 36.1953C7.18505 36.2942 7.12015 36.3993 7.06452 36.5105C7.01507 36.6218 6.95017 36.7887 6.86981 37.0112C6.75855 37.3326 6.66274 37.5613 6.58239 37.6973C6.52676 37.79 6.41859 37.8364 6.25788 37.8364C6.12189 37.8364 5.99518 37.8086 5.87774 37.753C5.76648 37.6911 5.71085 37.6077 5.71085 37.5026C5.7603 37.2677 5.83756 37.0205 5.94264 36.7609C6.0539 36.4951 6.21152 36.1428 6.4155 35.7039L6.78637 34.7953C6.99034 34.2761 7.17578 33.831 7.34267 33.4602C7.51574 33.0893 7.74135 32.6504 8.0195 32.1436C8.05659 32.0694 8.1184 32.0076 8.20494 31.9581C8.29147 31.9025 8.38728 31.8747 8.49236 31.8747C8.6098 31.8747 8.69325 31.884 8.7427 31.9025C8.79833 31.9149 8.84159 31.9396 8.8725 31.9767C8.90341 32.0076 8.94976 32.0756 9.01158 32.1807C9.22173 32.5083 9.40099 32.8451 9.54934 33.1913C9.70386 33.5374 9.89857 34.0165 10.1335 34.6284L10.3282 35.1198C10.5012 35.5648 10.6496 35.9388 10.7732 36.2417C10.903 36.5384 11.0452 36.8103 11.1997 37.0576C11.2986 37.2183 11.348 37.3295 11.348 37.3914C11.348 37.5397 11.3017 37.6541 11.209 37.7344C11.1224 37.8086 11.0081 37.8457 10.8659 37.8457C10.6867 37.8457 10.5507 37.7839 10.458 37.6602ZM9.50298 35.4165C9.40408 35.2063 9.26191 34.8416 9.07648 34.3224C8.88486 33.7661 8.69325 33.3242 8.50163 32.9966C8.38419 33.2933 8.21112 33.6765 7.98242 34.1463C7.82789 34.4368 7.65173 34.8571 7.45393 35.4072C7.84952 35.4567 8.27602 35.4814 8.73342 35.4814C9.06103 35.4814 9.31754 35.4598 9.50298 35.4165ZM15.7859 34.6655C16.2372 34.7211 16.5709 34.8664 16.7873 35.1012C17.0098 35.33 17.1211 35.6143 17.1211 35.9542C17.1211 36.2942 16.9943 36.6156 16.7409 36.9185C16.4937 37.2214 16.1753 37.4563 15.7859 37.6232C15.6129 37.6911 15.3842 37.7406 15.0998 37.7715C14.8217 37.8024 14.5343 37.8179 14.2376 37.8179C13.7431 37.8179 13.2362 37.7715 12.717 37.6788C12.6243 37.6602 12.5254 37.6139 12.4203 37.5397C12.3214 37.4655 12.272 37.3574 12.272 37.2152C12.2658 36.6465 12.2441 35.8553 12.2071 34.8416L12.1978 34.3317C12.1731 33.5405 12.1607 32.9193 12.1607 32.4681C12.1607 32.3877 12.2071 32.295 12.2998 32.1899C12.3987 32.0787 12.5161 32.0169 12.6521 32.0045C12.7325 32.0045 12.8097 32.0014 12.8839 31.9952C13.5824 31.9272 14.049 31.8932 14.2839 31.8932C14.7475 31.8932 15.1555 31.9396 15.5078 32.0323C15.8663 32.1188 16.163 32.2796 16.3979 32.5144C16.4844 32.6133 16.5555 32.7401 16.6111 32.8946C16.6667 33.0429 16.6946 33.1882 16.6946 33.3304C16.7007 33.6332 16.6204 33.9114 16.4535 34.1648C16.2928 34.4182 16.0703 34.5851 15.7859 34.6655ZM14.3395 32.6813C14.1294 32.6813 13.91 32.6937 13.6813 32.7184C13.4587 32.7431 13.2702 32.774 13.1157 32.8111L13.1713 34.5635L13.5051 34.5542C14.0429 34.4986 14.4384 34.4522 14.6919 34.4151C14.8526 34.3781 15.0102 34.307 15.1647 34.2019C15.3193 34.0906 15.446 33.9763 15.5449 33.8588C15.65 33.7352 15.7025 33.6425 15.7025 33.5807C15.7025 33.488 15.6839 33.3953 15.6469 33.3025C15.6098 33.2036 15.5696 33.1326 15.5263 33.0893C15.3594 32.9286 15.1895 32.8204 15.0164 32.7648C14.8433 32.7091 14.6177 32.6813 14.3395 32.6813ZM13.1991 37.0019C13.5144 37.0452 13.8142 37.0669 14.0985 37.0669C14.7228 37.0669 15.2142 36.9865 15.5727 36.8258C15.9374 36.6589 16.1197 36.3437 16.1197 35.8801C16.1197 35.6946 15.9806 35.5401 15.7025 35.4165C15.4243 35.2929 15.1246 35.2311 14.8031 35.2311C14.5868 35.2311 14.3117 35.2558 13.978 35.3052C13.7122 35.3423 13.4526 35.367 13.1991 35.3794C13.2115 35.7503 13.2177 35.9852 13.2177 36.0841C13.2177 36.2757 13.2146 36.4209 13.2084 36.5198L13.1991 37.0019Z" fill="#03045E"/>
<path d="M10.3931 14.1211C10.3931 14.4117 10.3251 14.662 10.1891 14.8721C10.0593 15.0761 9.84294 15.2646 9.54006 15.4377C9.33609 15.5613 9.09811 15.6541 8.82614 15.7159C8.55417 15.7777 8.27911 15.8086 8.00096 15.8086C7.71663 15.8086 7.3643 15.7159 6.94398 15.5304C6.64111 15.3821 6.40004 15.2059 6.22079 15.0019C6.04772 14.798 5.96118 14.5755 5.96118 14.3344C5.96118 14.1675 5.99827 14.047 6.07244 13.9728C6.14662 13.8924 6.26715 13.8523 6.43404 13.8523C6.52058 13.8523 6.6102 13.8893 6.70292 13.9635C6.79564 14.0315 6.85127 14.0995 6.86981 14.1675C6.95635 14.4209 7.10778 14.6156 7.32412 14.7516C7.54046 14.8814 7.80934 14.9463 8.13076 14.9463C8.50163 14.9463 8.81069 14.8783 9.05793 14.7423C9.31136 14.6064 9.43807 14.424 9.43807 14.1953C9.43807 13.9728 9.30209 13.775 9.03012 13.6019C8.75815 13.4288 8.48 13.3083 8.19567 13.2403C7.78771 13.1291 7.42611 12.9962 7.11088 12.8416C6.78328 12.6809 6.53912 12.4831 6.37841 12.2483C6.2177 12.0134 6.13735 11.7661 6.13735 11.5065C6.13735 11.2655 6.22079 11.0213 6.38768 10.774C6.55457 10.5206 6.75237 10.3383 6.98107 10.227C7.10469 10.1652 7.31485 10.1003 7.61155 10.0323C7.91442 9.95814 8.13385 9.92105 8.26984 9.92105C8.44909 9.92105 8.64689 9.94269 8.86323 9.98595C9.07957 10.0292 9.25573 10.091 9.39172 10.1714C9.66369 10.3259 9.86457 10.465 9.99438 10.5886C10.1242 10.7122 10.1891 10.8668 10.1891 11.0522C10.1891 11.1635 10.1458 11.2624 10.0593 11.3489C9.97892 11.4354 9.83676 11.4787 9.63278 11.4787C9.58333 11.4787 9.53388 11.4571 9.48443 11.4138C9.43498 11.3705 9.37317 11.3056 9.299 11.2191C9.2001 11.0893 9.10429 11.0028 9.01158 10.9595C8.91886 10.9286 8.78287 10.8946 8.60362 10.8575C8.43055 10.8204 8.27602 10.8019 8.14004 10.8019C7.99169 10.8019 7.83716 10.8328 7.67645 10.8946C7.51574 10.9564 7.37976 11.046 7.26849 11.1635C7.16342 11.2747 7.11088 11.4045 7.11088 11.5529C7.11088 11.6765 7.16651 11.7847 7.27777 11.8774C7.39521 11.9639 7.53428 12.035 7.69499 12.0906C7.88043 12.1648 8.08131 12.2297 8.29765 12.2853C8.58199 12.3719 8.81378 12.4522 8.99303 12.5264C9.17847 12.5944 9.35772 12.6809 9.53079 12.786C9.83367 12.9653 10.0531 13.1507 10.1891 13.3423C10.3251 13.5277 10.3931 13.7874 10.3931 14.1211ZM13.4112 13.4165C13.4298 13.367 13.4947 13.1878 13.6059 12.8787C13.7234 12.5697 13.8315 12.3348 13.9304 12.1741C14.0911 11.9207 14.2333 11.7939 14.3569 11.7939C14.53 11.7939 14.6629 11.8279 14.7556 11.8959C14.8483 11.9577 14.8947 12.0474 14.8947 12.1648C14.8947 12.2204 14.87 12.2977 14.8205 12.3966C14.7773 12.4955 14.7525 12.5542 14.7463 12.5728C14.4991 13.1167 14.2766 13.7008 14.0788 14.3251L13.8841 15.0483C13.8099 15.2832 13.6832 15.4748 13.5039 15.6232C13.3247 15.7653 13.1145 15.8364 12.8735 15.8364C12.6571 15.8364 12.4562 15.7375 12.2708 15.5397C12.1595 15.3666 12.0421 15.1472 11.9185 14.8814C11.801 14.6156 11.699 14.356 11.6125 14.1026L11.288 13.1291C11.22 12.9374 11.1644 12.7736 11.1211 12.6377C11.084 12.5017 11.0655 12.3781 11.0655 12.2668C11.0593 12.137 11.0964 12.0319 11.1767 11.9516C11.2571 11.8712 11.3684 11.831 11.5105 11.831C11.6712 11.831 11.7856 11.865 11.8536 11.933C11.9216 11.9948 11.9834 12.0937 12.039 12.2297C12.0637 12.3719 12.1317 12.6624 12.243 13.1012L12.3079 13.3609C12.3635 13.571 12.4346 13.7843 12.5211 14.0006C12.6077 14.2169 12.6942 14.424 12.7807 14.6218C12.7684 14.5909 12.8116 14.6929 12.9105 14.9278C12.9724 14.7485 13.0434 14.5291 13.1238 14.2695L13.4112 13.4165ZM15.4778 13.8337C15.4778 13.5988 15.5211 13.3639 15.6076 13.1291C15.6941 12.888 15.8085 12.6686 15.9507 12.4708C16.0928 12.273 16.3184 12.1123 16.6275 11.9886C16.9365 11.8588 17.2116 11.7939 17.4527 11.7939C17.6999 11.7939 17.9503 11.8279 18.2037 11.8959C18.4633 11.9639 18.6425 12.069 18.7414 12.2112C18.9701 12.5326 19.0845 12.8478 19.0845 13.1569C19.0845 13.3238 19.0474 13.4659 18.9732 13.5834C18.9052 13.7008 18.8063 13.8275 18.6765 13.9635C18.5715 14.0748 18.4046 14.149 18.1759 14.186C17.9533 14.2231 17.7308 14.2417 17.5083 14.2417C17.3661 14.2417 17.1931 14.2293 16.9891 14.2046C16.7851 14.1737 16.5873 14.1366 16.3957 14.0933C16.4081 14.2169 16.439 14.3375 16.4884 14.4549C16.5379 14.5724 16.5966 14.662 16.6646 14.7238C16.7882 14.8412 16.9149 14.9154 17.0447 14.9463C17.1807 14.9772 17.3538 14.9927 17.5639 14.9927C17.7865 14.9927 17.9935 14.9556 18.1851 14.8814C18.3397 14.8258 18.4664 14.798 18.5653 14.798C18.6827 14.798 18.7723 14.8351 18.8342 14.9092C18.896 14.9772 18.9269 15.0669 18.9269 15.1781C18.9269 15.3326 18.8372 15.4594 18.658 15.5583C18.4787 15.6572 18.2717 15.7313 18.0368 15.7808C17.8081 15.824 17.6227 15.8457 17.4805 15.8457C17.19 15.8457 16.9087 15.7931 16.6368 15.6881C16.3648 15.583 16.1392 15.4346 15.9599 15.243C15.8116 15.0699 15.6941 14.8629 15.6076 14.6218C15.5211 14.3746 15.4778 14.1119 15.4778 13.8337ZM17.499 12.582C17.363 12.582 17.2271 12.6098 17.0911 12.6655C16.9551 12.7149 16.8438 12.786 16.7573 12.8787C16.646 12.9962 16.5688 13.092 16.5255 13.1662C16.4884 13.2341 16.4637 13.33 16.4513 13.4536C16.6059 13.503 16.9273 13.5277 17.4156 13.5277C17.6814 13.5277 17.8854 13.4876 18.0275 13.4072C18.1759 13.3269 18.25 13.2218 18.25 13.092C18.25 12.9622 18.1697 12.8447 18.009 12.7397C17.8483 12.6346 17.6783 12.582 17.499 12.582ZM19.8963 12.5357C19.8469 12.4986 19.8067 12.4615 19.7758 12.4244C19.7449 12.3811 19.7295 12.307 19.7295 12.2019C19.7295 12.0845 19.7696 11.9948 19.85 11.933C19.9365 11.865 20.0354 11.831 20.1467 11.831C20.363 11.831 20.5485 11.8867 20.703 11.9979C20.8637 12.1092 20.9811 12.2637 21.0553 12.4615C21.1913 12.2081 21.3644 12.035 21.5745 11.9423C21.7847 11.8434 22.0752 11.7939 22.4461 11.7939C22.5944 11.7939 22.7459 11.8403 22.9004 11.933C23.0611 12.0195 23.2063 12.1277 23.3361 12.2575C23.4412 12.3935 23.5309 12.5635 23.605 12.7675C23.6792 12.9653 23.7163 13.1445 23.7163 13.3052C23.7163 13.3979 23.7101 13.5494 23.6977 13.7595C23.6854 13.9821 23.6792 14.1582 23.6792 14.288C23.6792 14.7207 23.7626 14.9865 23.9295 15.0854C23.9543 15.0978 24.0006 15.1132 24.0686 15.1318C24.1366 15.1503 24.1861 15.1688 24.217 15.1874C24.254 15.2059 24.2726 15.2337 24.2726 15.2708C24.2788 15.4192 24.2231 15.5428 24.1057 15.6417C23.9944 15.7344 23.8585 15.7808 23.6977 15.7808C23.4567 15.7808 23.2682 15.7159 23.1322 15.5861C22.9962 15.4563 22.9004 15.2585 22.8447 14.9927C22.8138 14.8938 22.7984 14.7485 22.7984 14.5569C22.7984 14.4518 22.8046 14.2818 22.8169 14.047C22.8355 13.8615 22.8447 13.6637 22.8447 13.4536C22.8447 13.2372 22.7829 13.0487 22.6593 12.888C22.5357 12.7211 22.3657 12.6377 22.1494 12.6377C22.0196 12.6377 21.8836 12.6778 21.7414 12.7582C21.5992 12.8324 21.5004 12.9251 21.4447 13.0363C21.352 13.228 21.2902 13.4227 21.2593 13.6205C21.1851 14.0037 21.148 14.3715 21.148 14.7238C21.148 14.8103 21.1542 14.9772 21.1666 15.2245C21.1666 15.243 21.1666 15.2894 21.1666 15.3635C21.1666 15.4315 21.1573 15.4964 21.1388 15.5583C21.1264 15.6201 21.1017 15.6757 21.0646 15.7251C21.0399 15.7499 20.9935 15.7746 20.9255 15.7993C20.8575 15.824 20.7988 15.8364 20.7493 15.8364C20.6628 15.8364 20.5546 15.7993 20.4248 15.7251C20.295 15.651 20.2178 15.5675 20.193 15.4748L20.1838 15.345C20.1838 15.2956 20.1899 15.2214 20.2023 15.1225C20.2765 14.6898 20.3136 14.3128 20.3136 13.9913C20.3136 13.8492 20.3105 13.741 20.3043 13.6668L20.295 13.2403C20.295 13.1105 20.2579 12.9869 20.1838 12.8695C20.1096 12.7458 20.0138 12.6346 19.8963 12.5357ZM27.5474 13.6761C27.7946 13.8183 27.9677 13.9604 28.0666 14.1026C28.1655 14.2386 28.215 14.4178 28.215 14.6404C28.215 14.8629 28.1501 15.0607 28.0202 15.2337C27.8904 15.4006 27.7236 15.5304 27.5196 15.6232C27.3712 15.6911 27.1858 15.7437 26.9633 15.7808C26.7469 15.8179 26.577 15.8364 26.4533 15.8364C26.237 15.8364 26.0021 15.7962 25.7487 15.7159C25.4953 15.6355 25.2789 15.5212 25.0997 15.3728C24.9266 15.2245 24.84 15.0514 24.84 14.8536C24.84 14.73 24.8802 14.6342 24.9606 14.5662C25.0409 14.492 25.146 14.4549 25.2758 14.4549C25.3809 14.4549 25.4922 14.5291 25.6096 14.6774C25.727 14.8072 25.863 14.9061 26.0176 14.9741C26.1783 15.0421 26.3359 15.0761 26.4904 15.0761C27.0776 15.0761 27.3712 14.9432 27.3712 14.6774C27.3712 14.6218 27.3527 14.5693 27.3156 14.5198C27.2785 14.4642 27.2445 14.4271 27.2136 14.4086C27.158 14.3653 27.0807 14.3282 26.9818 14.2973C26.8829 14.2664 26.784 14.2417 26.6851 14.2231C26.5862 14.1984 26.512 14.1799 26.4626 14.1675C26.4132 14.1551 26.3081 14.1335 26.1474 14.1026C25.9928 14.0717 25.8445 14.0191 25.7023 13.945C25.4674 13.8337 25.2758 13.6977 25.1275 13.537C24.9853 13.3763 24.9142 13.1692 24.9142 12.9158C24.9142 12.7736 24.9482 12.6315 25.0162 12.4893C25.0904 12.341 25.1893 12.2297 25.3129 12.1555C25.4983 12.0381 25.7023 11.9485 25.9248 11.8867C26.1474 11.8248 26.3544 11.7939 26.546 11.7939C26.7006 11.7939 26.8736 11.8094 27.0653 11.8403C27.2631 11.8712 27.4052 11.9145 27.4918 11.9701C27.6525 12.0566 27.7699 12.1463 27.8441 12.239C27.9183 12.3317 27.9553 12.4491 27.9553 12.5913C27.9553 12.6593 27.9399 12.7273 27.909 12.7953C27.8781 12.8571 27.841 12.9004 27.7977 12.9251C27.6988 12.9622 27.6123 12.9807 27.5381 12.9807C27.4825 12.9807 27.4361 12.9714 27.399 12.9529C27.362 12.9282 27.328 12.9035 27.2971 12.8787C27.2723 12.854 27.2569 12.8386 27.2507 12.8324C27.1703 12.7458 27.0807 12.6778 26.9818 12.6284C26.8829 12.5789 26.7377 12.5542 26.546 12.5542C26.4224 12.5542 26.3019 12.5728 26.1844 12.6098C26.0732 12.6408 25.9867 12.6809 25.9248 12.7304C25.8754 12.7675 25.8414 12.8015 25.8229 12.8324C25.8043 12.8571 25.795 12.8911 25.795 12.9344C25.795 13.1074 25.9681 13.2341 26.3143 13.3145C26.6666 13.3949 26.852 13.4381 26.8706 13.4443C26.9076 13.4567 27.0096 13.4876 27.1765 13.537C27.3496 13.5865 27.4732 13.6328 27.5474 13.6761ZM31.6844 13.7132C31.7338 13.7441 31.8296 13.8028 31.9718 13.8893C32.1202 13.9697 32.2191 14.0655 32.2685 14.1768C32.3179 14.288 32.3427 14.4426 32.3427 14.6404C32.3427 14.8629 32.2778 15.0607 32.148 15.2337C32.0182 15.4006 31.8513 15.5304 31.6473 15.6232C31.4989 15.6911 31.3166 15.7437 31.1003 15.7808C30.8901 15.8179 30.7232 15.8364 30.5996 15.8364C30.476 15.8364 30.3153 15.8179 30.1175 15.7808C29.9258 15.7437 29.793 15.7097 29.7188 15.6788C29.5272 15.5675 29.3603 15.4315 29.2181 15.2708C29.0821 15.1101 29.0141 14.9463 29.0141 14.7794C29.0141 14.6558 29.0543 14.56 29.1347 14.492C29.215 14.4178 29.3201 14.3807 29.4499 14.3807C29.5117 14.3807 29.5766 14.4055 29.6446 14.4549C29.7126 14.4982 29.759 14.5445 29.7837 14.594C29.8517 14.7547 29.966 14.8752 30.1267 14.9556C30.2874 15.0359 30.4512 15.0761 30.6181 15.0761C30.8345 15.0761 31.0354 15.0421 31.2208 14.9741C31.4062 14.9 31.4989 14.8011 31.4989 14.6774C31.4989 14.6218 31.4835 14.5785 31.4526 14.5476C31.4279 14.5105 31.3908 14.4735 31.3413 14.4364C31.2548 14.3746 31.125 14.3251 30.9519 14.288C30.7788 14.2448 30.6676 14.2169 30.6181 14.2046C30.3647 14.149 30.1175 14.0655 29.8764 13.9542C29.6353 13.8368 29.4437 13.6977 29.3016 13.537C29.1594 13.3763 29.0883 13.1692 29.0883 12.9158C29.0883 12.7489 29.1501 12.5759 29.2737 12.3966C29.3974 12.2112 29.5364 12.0814 29.691 12.0072C29.8022 11.9639 29.9877 11.9176 30.2473 11.8681C30.5131 11.8187 30.6923 11.7939 30.785 11.7939C30.9272 11.7939 31.0817 11.8094 31.2486 11.8403C31.4155 11.865 31.5422 11.9083 31.6288 11.9701C31.7956 12.069 31.9316 12.1741 32.0367 12.2853C32.1418 12.3904 32.1943 12.5109 32.1943 12.6469C32.1943 12.7149 32.1789 12.7891 32.148 12.8695C32.1171 12.9436 32.08 12.99 32.0367 13.0085C31.944 13.0518 31.8358 13.0734 31.7122 13.0734C31.6566 13.0734 31.6102 13.058 31.5731 13.0271C31.5422 12.9962 31.4989 12.9467 31.4433 12.8787C31.3753 12.7736 31.3104 12.7118 31.2486 12.6933C31.1744 12.6748 31.0663 12.6531 30.9241 12.6284C30.7819 12.5975 30.6861 12.582 30.6367 12.582C30.4945 12.582 30.3462 12.6222 30.1916 12.7026C30.0433 12.7829 29.9691 12.8756 29.9691 12.9807C29.9691 13.0363 29.9907 13.0796 30.034 13.1105C30.0835 13.1414 30.1329 13.1692 30.1824 13.194C30.238 13.2187 30.2751 13.2341 30.2936 13.2403C30.4234 13.3021 30.5656 13.3547 30.7201 13.3979C30.8808 13.4412 30.9797 13.469 31.0168 13.4814C31.3506 13.5617 31.5731 13.639 31.6844 13.7132ZM36.8702 12.8231C36.9196 12.9096 36.9598 13.0363 36.9907 13.2032C37.0216 13.3639 37.0371 13.5092 37.0371 13.639C37.0371 13.8059 37.0185 13.9913 36.9814 14.1953C36.9443 14.3993 36.9103 14.5569 36.8794 14.6682C36.4529 15.447 35.8225 15.8364 34.988 15.8364C34.679 15.8364 34.3637 15.7344 34.0423 15.5304C33.7209 15.3265 33.4984 15.0916 33.3747 14.8258C33.2078 14.3004 33.1244 13.9635 33.1244 13.8152C33.1244 13.5679 33.1769 13.3052 33.282 13.0271C33.3933 12.7489 33.5324 12.5079 33.6992 12.3039C33.8105 12.1617 34.0021 12.0412 34.2741 11.9423C34.5461 11.8372 34.7933 11.7847 35.0158 11.7847C35.4485 11.7847 35.8132 11.8681 36.1099 12.035C36.4128 12.1957 36.6662 12.4584 36.8702 12.8231ZM36.0635 14.3158C36.0944 14.254 36.1099 14.047 36.1099 13.6946C36.1099 13.5154 36.0759 13.3392 36.0079 13.1662C35.9461 12.9931 35.8534 12.8447 35.7297 12.7211C35.7174 12.7087 35.6834 12.6902 35.6278 12.6655C35.5721 12.6346 35.4949 12.6068 35.396 12.582C35.3032 12.5511 35.1951 12.5357 35.0715 12.5357C34.7253 12.5357 34.4719 12.6748 34.3112 12.9529C34.1505 13.2311 34.0701 13.5463 34.0701 13.8986C34.0701 13.9542 34.0887 14.0686 34.1257 14.2417C34.1628 14.4147 34.1906 14.526 34.2092 14.5755C34.2586 14.662 34.3575 14.764 34.5059 14.8814C34.6604 14.9927 34.8273 15.0483 35.0066 15.0483C35.2847 15.0483 35.5041 14.9834 35.6648 14.8536C35.8317 14.7176 35.9646 14.5384 36.0635 14.3158ZM37.8512 12.5357C37.8018 12.4986 37.7616 12.4615 37.7307 12.4244C37.6998 12.3811 37.6843 12.307 37.6843 12.2019C37.6843 12.0845 37.7245 11.9948 37.8049 11.933C37.8914 11.865 37.9903 11.831 38.1016 11.831C38.3179 11.831 38.5033 11.8867 38.6579 11.9979C38.8186 12.1092 38.936 12.2637 39.0102 12.4615C39.1462 12.2081 39.3192 12.035 39.5294 11.9423C39.7396 11.8434 40.0301 11.7939 40.4009 11.7939C40.5493 11.7939 40.7007 11.8403 40.8553 11.933C41.016 12.0195 41.1612 12.1277 41.291 12.2575C41.3961 12.3935 41.4857 12.5635 41.5599 12.7675C41.6341 12.9653 41.6712 13.1445 41.6712 13.3052C41.6712 13.3979 41.665 13.5494 41.6526 13.7595C41.6403 13.9821 41.6341 14.1582 41.6341 14.288C41.6341 14.7207 41.7175 14.9865 41.8844 15.0854C41.9091 15.0978 41.9555 15.1132 42.0235 15.1318C42.0915 15.1503 42.1409 15.1688 42.1718 15.1874C42.2089 15.2059 42.2275 15.2337 42.2275 15.2708C42.2337 15.4192 42.178 15.5428 42.0606 15.6417C41.9493 15.7344 41.8133 15.7808 41.6526 15.7808C41.4116 15.7808 41.223 15.7159 41.0871 15.5861C40.9511 15.4563 40.8553 15.2585 40.7996 14.9927C40.7687 14.8938 40.7533 14.7485 40.7533 14.5569C40.7533 14.4518 40.7595 14.2818 40.7718 14.047C40.7904 13.8615 40.7996 13.6637 40.7996 13.4536C40.7996 13.2372 40.7378 13.0487 40.6142 12.888C40.4906 12.7211 40.3206 12.6377 40.1043 12.6377C39.9745 12.6377 39.8385 12.6778 39.6963 12.7582C39.5541 12.8324 39.4552 12.9251 39.3996 13.0363C39.3069 13.228 39.2451 13.4227 39.2142 13.6205C39.14 14.0037 39.1029 14.3715 39.1029 14.7238C39.1029 14.8103 39.1091 14.9772 39.1215 15.2245C39.1215 15.243 39.1215 15.2894 39.1215 15.3635C39.1215 15.4315 39.1122 15.4964 39.0936 15.5583C39.0813 15.6201 39.0566 15.6757 39.0195 15.7251C38.9947 15.7499 38.9484 15.7746 38.8804 15.7993C38.8124 15.824 38.7537 15.8364 38.7042 15.8364C38.6177 15.8364 38.5095 15.7993 38.3797 15.7251C38.2499 15.651 38.1726 15.5675 38.1479 15.4748L38.1387 15.345C38.1387 15.2956 38.1448 15.2214 38.1572 15.1225C38.2314 14.6898 38.2685 14.3128 38.2685 13.9913C38.2685 13.8492 38.2654 13.741 38.2592 13.6668L38.2499 13.2403C38.2499 13.1105 38.2128 12.9869 38.1387 12.8695C38.0645 12.7458 37.9687 12.6346 37.8512 12.5357ZM45.5023 13.6761C45.7495 13.8183 45.9226 13.9604 46.0215 14.1026C46.1204 14.2386 46.1698 14.4178 46.1698 14.6404C46.1698 14.8629 46.1049 15.0607 45.9751 15.2337C45.8453 15.4006 45.6784 15.5304 45.4745 15.6232C45.3261 15.6911 45.1407 15.7437 44.9182 15.7808C44.7018 15.8179 44.5318 15.8364 44.4082 15.8364C44.1919 15.8364 43.957 15.7962 43.7036 15.7159C43.4501 15.6355 43.2338 15.5212 43.0545 15.3728C42.8815 15.2245 42.7949 15.0514 42.7949 14.8536C42.7949 14.73 42.8351 14.6342 42.9155 14.5662C42.9958 14.492 43.1009 14.4549 43.2307 14.4549C43.3358 14.4549 43.447 14.5291 43.5645 14.6774C43.6819 14.8072 43.8179 14.9061 43.9724 14.9741C44.1331 15.0421 44.2908 15.0761 44.4453 15.0761C45.0325 15.0761 45.3261 14.9432 45.3261 14.6774C45.3261 14.6218 45.3076 14.5693 45.2705 14.5198C45.2334 14.4642 45.1994 14.4271 45.1685 14.4086C45.1129 14.3653 45.0356 14.3282 44.9367 14.2973C44.8378 14.2664 44.7389 14.2417 44.64 14.2231C44.5411 14.1984 44.4669 14.1799 44.4175 14.1675C44.368 14.1551 44.263 14.1335 44.1022 14.1026C43.9477 14.0717 43.7994 14.0191 43.6572 13.945C43.4223 13.8337 43.2307 13.6977 43.0824 13.537C42.9402 13.3763 42.8691 13.1692 42.8691 12.9158C42.8691 12.7736 42.9031 12.6315 42.9711 12.4893C43.0453 12.341 43.1442 12.2297 43.2678 12.1555C43.4532 12.0381 43.6572 11.9485 43.8797 11.8867C44.1022 11.8248 44.3093 11.7939 44.5009 11.7939C44.6555 11.7939 44.8285 11.8094 45.0201 11.8403C45.2179 11.8712 45.3601 11.9145 45.4466 11.9701C45.6074 12.0566 45.7248 12.1463 45.799 12.239C45.8731 12.3317 45.9102 12.4491 45.9102 12.5913C45.9102 12.6593 45.8948 12.7273 45.8639 12.7953C45.833 12.8571 45.7959 12.9004 45.7526 12.9251C45.6537 12.9622 45.5672 12.9807 45.493 12.9807C45.4374 12.9807 45.391 12.9714 45.3539 12.9529C45.3168 12.9282 45.2828 12.9035 45.2519 12.8787C45.2272 12.854 45.2118 12.8386 45.2056 12.8324C45.1252 12.7458 45.0356 12.6778 44.9367 12.6284C44.8378 12.5789 44.6925 12.5542 44.5009 12.5542C44.3773 12.5542 44.2568 12.5728 44.1393 12.6098C44.0281 12.6408 43.9415 12.6809 43.8797 12.7304C43.8303 12.7675 43.7963 12.8015 43.7777 12.8324C43.7592 12.8571 43.7499 12.8911 43.7499 12.9344C43.7499 13.1074 43.923 13.2341 44.2691 13.3145C44.6215 13.3949 44.8069 13.4381 44.8254 13.4443C44.8625 13.4567 44.9645 13.4876 45.1314 13.537C45.3045 13.5865 45.4281 13.6328 45.5023 13.6761ZM10.3189 23.48C10.3127 23.3811 10.3096 23.2328 10.3096 23.035V22.6827C10.3096 22.4478 10.3034 22.2716 10.2911 22.1542C10.2787 22.0553 10.2725 21.7988 10.2725 21.3846C10.2725 21.2363 10.3158 21.1219 10.4023 21.0416C10.495 20.955 10.6187 20.9118 10.7732 20.9118C10.971 20.9118 11.1039 20.955 11.1719 21.0416C11.2399 21.1281 11.2739 21.2703 11.2739 21.4681V21.8204L11.2646 22.8403C11.2584 23.0381 11.2553 23.3348 11.2553 23.7304L11.2646 24.4907C11.2708 24.6081 11.2739 24.7719 11.2739 24.9821C11.2739 25.149 11.2801 25.3869 11.2924 25.696C11.3048 25.9803 11.311 26.1936 11.311 26.3357C11.311 26.4532 11.277 26.5613 11.209 26.6602C11.1472 26.7591 11.0606 26.8086 10.9494 26.8086C10.5167 26.8086 10.3003 26.6633 10.3003 26.3728C10.3003 26.2121 10.3065 26.0329 10.3189 25.8351C10.3312 25.6929 10.3374 25.4766 10.3374 25.186C10.3374 24.9821 10.3312 24.6885 10.3189 24.3052C10.0284 24.33 9.5277 24.3423 8.81687 24.3423C8.37183 24.3423 8.02568 24.3423 7.77844 24.3423C7.53119 24.3361 7.35194 24.3207 7.24068 24.296L7.23141 25.3622C7.23141 25.4302 7.24686 25.6125 7.27777 25.9092C7.30867 26.107 7.32412 26.2801 7.32412 26.4284C7.32412 26.5212 7.26849 26.6108 7.15723 26.6973C7.05215 26.7777 6.95326 26.8179 6.86054 26.8179C6.63802 26.8179 6.48658 26.7653 6.40623 26.6602C6.32587 26.549 6.28569 26.3821 6.28569 26.1596L6.27642 25.4271C6.27024 25.3406 6.26715 25.22 6.26715 25.0655C6.26715 24.8368 6.26097 24.5247 6.24861 24.1291C6.23624 23.7706 6.23006 23.5109 6.23006 23.3502C6.23006 23.1092 6.23624 22.7723 6.24861 22.3396C6.26097 21.9317 6.26715 21.6288 6.26715 21.431C6.26715 21.2332 6.3166 21.1003 6.4155 21.0323C6.5144 20.9643 6.62566 20.9303 6.74928 20.9303C7.09542 20.9303 7.26849 21.0447 7.26849 21.2734C7.26849 21.6813 7.25922 22.0707 7.24068 22.4416C7.22832 22.9114 7.22214 23.2544 7.22214 23.4708C7.40139 23.514 7.58991 23.5419 7.78771 23.5542C7.98551 23.5666 8.26366 23.5728 8.62216 23.5728C9.35154 23.5728 9.91711 23.5419 10.3189 23.48ZM16.6921 26.3543C16.6921 26.4903 16.6179 26.6046 16.4696 26.6973C16.3274 26.79 16.1945 26.8364 16.0709 26.8364C15.836 26.8364 15.6475 26.8086 15.5053 26.753C15.3693 26.6911 15.2426 26.5799 15.1252 26.4192C14.9645 26.5613 14.745 26.6695 14.4669 26.7437C14.1887 26.8117 13.9322 26.8457 13.6973 26.8457C13.3141 26.8457 12.9989 26.7437 12.7516 26.5397C12.5044 26.3295 12.3808 26.0236 12.3808 25.6218C12.3808 25.4487 12.4271 25.2911 12.5198 25.149C12.6125 25.0006 12.7393 24.8708 12.9 24.7595C13.0792 24.6421 13.2832 24.5525 13.5119 24.4907C13.7406 24.4227 13.9786 24.3887 14.2258 24.3887C14.3556 24.3887 14.5102 24.4134 14.6894 24.4628C14.8687 24.5123 15.0077 24.5648 15.1066 24.6205V24.4721C15.1066 24.1383 15.0263 23.9096 14.8656 23.786C14.7049 23.6562 14.4453 23.5913 14.0868 23.5913C13.9817 23.5913 13.8766 23.6129 13.7715 23.6562C13.6726 23.6995 13.5583 23.7582 13.4285 23.8324C13.2554 23.9251 13.0916 23.9714 12.9371 23.9714C12.8814 23.9714 12.8289 23.9344 12.7794 23.8602C12.73 23.7798 12.7053 23.7087 12.7053 23.6469C12.7053 23.4677 12.7887 23.3132 12.9556 23.1833C13.1287 23.0535 13.3327 22.9577 13.5675 22.8959C13.8024 22.8279 14.0126 22.7939 14.198 22.7939C14.3834 22.7939 14.5967 22.831 14.8378 22.9052C15.0788 22.9732 15.2766 23.069 15.4311 23.1926C15.6166 23.3533 15.7587 23.5419 15.8576 23.7582C15.9627 23.9684 16.0153 24.2001 16.0153 24.4536C16.0153 24.5339 16.0091 24.6545 15.9967 24.8152C15.9844 24.9882 15.9782 25.1366 15.9782 25.2602C15.9782 25.3158 15.972 25.3993 15.9596 25.5105C15.9473 25.6465 15.9411 25.7547 15.9411 25.8351C15.9411 25.9092 15.9689 25.9741 16.0245 26.0298C16.0802 26.0792 16.1451 26.1039 16.2192 26.1039L16.4789 26.0947C16.5468 26.0947 16.5994 26.1194 16.6365 26.1688C16.6736 26.2183 16.6921 26.2801 16.6921 26.3543ZM13.7066 26.1132C13.9724 26.1132 14.1949 26.0854 14.3742 26.0298C14.5534 25.9741 14.7698 25.8721 15.0232 25.7238C15.0479 25.6187 15.0634 25.4796 15.0696 25.3066C14.7296 25.1459 14.4483 25.0655 14.2258 25.0655C13.9724 25.0655 13.7468 25.1119 13.549 25.2046C13.3512 25.2973 13.2523 25.4611 13.2523 25.696C13.2523 25.8134 13.3017 25.9123 13.4006 25.9927C13.4995 26.073 13.6015 26.1132 13.7066 26.1132ZM21.5364 26.0854C21.5673 26.0978 21.6168 26.1132 21.6848 26.1318C21.7528 26.1503 21.8022 26.1688 21.8331 26.1874C21.864 26.2059 21.8795 26.2337 21.8795 26.2708C21.8857 26.4192 21.83 26.5428 21.7126 26.6417C21.6013 26.7344 21.4684 26.7808 21.3139 26.7808C21.0728 26.7808 20.8843 26.7159 20.7483 26.5861C20.6123 26.4563 20.5134 26.2585 20.4516 25.9927C20.4269 25.8876 20.4145 25.7423 20.4145 25.5569C20.4145 25.4518 20.4207 25.2818 20.4331 25.047C20.4455 24.7997 20.4516 24.6019 20.4516 24.4536C20.4516 24.2372 20.3898 24.0487 20.2662 23.888C20.1488 23.7211 19.9819 23.6377 19.7655 23.6377C19.6357 23.6377 19.4997 23.6778 19.3576 23.7582C19.2154 23.8324 19.1165 23.9251 19.0609 24.0363C18.9682 24.2156 18.9033 24.4103 18.8662 24.6205C18.7982 24.9913 18.7642 25.3777 18.7642 25.7794C18.7642 25.971 18.7673 26.1194 18.7735 26.2245C18.7735 26.2492 18.7735 26.2986 18.7735 26.3728C18.7796 26.4408 18.7735 26.5057 18.7549 26.5675C18.7425 26.6232 18.7178 26.6757 18.6807 26.7251C18.6498 26.756 18.6004 26.7808 18.5324 26.7993C18.4706 26.824 18.4119 26.8364 18.3562 26.8364C18.2697 26.8364 18.1615 26.7993 18.0317 26.7251C17.9019 26.651 17.8277 26.5675 17.8092 26.4748L17.7999 26.3172C17.7999 26.2616 17.8061 26.1967 17.8185 26.1225C17.8926 25.6898 17.9297 25.3128 17.9297 24.9913C17.9297 24.8492 17.9266 24.7379 17.9205 24.6576L17.9112 24.2218C17.9112 24.0734 17.8741 23.9313 17.7999 23.7953C17.7258 23.6531 17.6392 23.582 17.5403 23.582C17.5094 23.582 17.4661 23.5944 17.4105 23.6191C17.3549 23.6377 17.3085 23.6469 17.2714 23.6469C17.2096 23.6469 17.1416 23.616 17.0675 23.5542C16.9995 23.4924 16.9655 23.4275 16.9655 23.3595C16.9655 23.2297 17.0087 23.1246 17.0953 23.0443C17.188 22.9701 17.2776 22.9114 17.3642 22.8681C17.4569 22.8248 17.562 22.8032 17.6794 22.8032C17.7783 22.8032 17.8586 22.8125 17.9205 22.831C17.9823 22.8496 18.0657 22.8897 18.1708 22.9516C18.2264 22.9825 18.2913 23.0505 18.3655 23.1555C18.4397 23.2606 18.5015 23.409 18.5509 23.6006C18.7116 23.3039 18.9094 23.0968 19.1443 22.9794C19.3854 22.8557 19.6914 22.7939 20.0622 22.7939C20.2044 22.7939 20.3558 22.8403 20.5165 22.933C20.6834 23.0257 20.8256 23.1339 20.943 23.2575C21.0543 23.3935 21.147 23.5635 21.2212 23.7675C21.2954 23.9653 21.3324 24.1445 21.3324 24.3052C21.3324 24.3979 21.3263 24.5494 21.3139 24.7595C21.2954 24.9264 21.2861 25.1026 21.2861 25.288C21.2861 25.7207 21.3695 25.9865 21.5364 26.0854ZM22.551 23.5728C22.4645 23.5604 22.3934 23.5264 22.3378 23.4708C22.2883 23.409 22.2636 23.3348 22.2636 23.2483C22.2636 23.137 22.3069 23.0443 22.3934 22.9701C22.4119 22.9516 22.4429 22.9361 22.4861 22.9237C22.5294 22.9052 22.5634 22.8897 22.5881 22.8774C22.7241 22.8341 22.8106 22.8001 22.8477 22.7754C22.9899 22.6889 23.0857 22.5467 23.1351 22.3489C23.1846 22.114 23.2155 21.9533 23.2279 21.8668C23.2402 21.7308 23.2835 21.6288 23.3577 21.5608C23.438 21.4866 23.5369 21.4495 23.6544 21.4495C23.8089 21.4495 23.9171 21.4897 23.9789 21.5701C24.0407 21.6504 24.0716 21.7988 24.0716 22.0151C24.0716 22.2994 24.0036 22.5683 23.8676 22.8218C23.9541 22.8218 24.0963 22.8156 24.2941 22.8032C24.5908 22.7908 24.7979 22.7847 24.9153 22.7847C25.0204 22.7847 25.11 22.8125 25.1842 22.8681C25.2645 22.9176 25.3047 22.9917 25.3047 23.0906C25.3047 23.3255 25.1966 23.4646 24.9802 23.5079C24.7824 23.5635 24.4239 23.5975 23.9047 23.6098C23.8614 24.2156 23.8398 24.6946 23.8398 25.047C23.8398 25.2633 23.8491 25.4178 23.8676 25.5105C23.9047 25.7022 23.9665 25.8443 24.053 25.937C24.1458 26.0236 24.2817 26.0669 24.461 26.0669C24.5475 26.0669 24.6773 26.0452 24.8504 26.0019C24.9555 25.971 25.0389 25.9556 25.1007 25.9556C25.1811 25.9556 25.2429 25.9834 25.2862 26.039C25.3294 26.0947 25.3511 26.1688 25.3511 26.2616C25.3511 26.4284 25.2429 26.5675 25.0266 26.6788C24.8102 26.7839 24.5537 26.8364 24.257 26.8364C24.0716 26.8364 23.8892 26.7931 23.71 26.7066C23.5307 26.6139 23.3793 26.5026 23.2557 26.3728C23.2309 26.3605 23.1939 26.2925 23.1444 26.1688C23.1011 26.0452 23.0579 25.9092 23.0146 25.7609C22.9961 25.6867 22.9868 25.5075 22.9868 25.2231C22.9868 24.9512 23.0053 24.4814 23.0424 23.8138L23.0517 23.6098C23.0084 23.6098 22.9281 23.6068 22.8106 23.6006C22.6932 23.5882 22.6067 23.5789 22.551 23.5728ZM28.1699 24.4165C28.1884 24.367 28.2533 24.1878 28.3646 23.8787C28.482 23.5697 28.5902 23.3348 28.6891 23.1741C28.8498 22.9207 28.992 22.7939 29.1156 22.7939C29.2887 22.7939 29.4216 22.8279 29.5143 22.8959C29.607 22.9577 29.6534 23.0474 29.6534 23.1648C29.6534 23.2204 29.6286 23.2977 29.5792 23.3966C29.5359 23.4955 29.5112 23.5542 29.505 23.5728C29.2578 24.1167 29.0353 24.7008 28.8375 25.3251L28.6428 26.0483C28.5686 26.2832 28.4419 26.4748 28.2626 26.6232C28.0834 26.7653 27.8732 26.8364 27.6321 26.8364C27.4158 26.8364 27.2149 26.7375 27.0295 26.5397C26.9182 26.3666 26.8008 26.1472 26.6772 25.8814C26.5597 25.6156 26.4577 25.356 26.3712 25.1026L26.0467 24.1291C25.9787 23.9374 25.9231 23.7736 25.8798 23.6377C25.8427 23.5017 25.8242 23.3781 25.8242 23.2668C25.818 23.137 25.8551 23.0319 25.9354 22.9516C26.0158 22.8712 26.127 22.831 26.2692 22.831C26.4299 22.831 26.5443 22.865 26.6123 22.933C26.6802 22.9948 26.7421 23.0937 26.7977 23.2297C26.8224 23.3719 26.8904 23.6624 27.0017 24.1012L27.0666 24.3609C27.1222 24.571 27.1933 24.7843 27.2798 25.0006C27.3663 25.2169 27.4529 25.424 27.5394 25.6218C27.5271 25.5909 27.5703 25.6929 27.6692 25.9278C27.731 25.7485 27.8021 25.5291 27.8825 25.2695L28.1699 24.4165ZM30.2179 24.6761C30.2179 24.299 30.3014 23.9869 30.4683 23.7397C30.6352 23.4862 30.867 23.2483 31.1636 23.0257C31.2502 22.9639 31.3954 22.9114 31.5994 22.8681C31.8034 22.8187 31.9826 22.7939 32.1372 22.7939C32.3226 22.7939 32.5173 22.8341 32.7213 22.9145C32.9315 22.9886 33.1014 23.0752 33.2312 23.1741C33.4599 23.341 33.6176 23.5357 33.7041 23.7582C33.7906 23.9745 33.8339 24.2341 33.8339 24.537C33.8339 24.6668 33.7597 24.7935 33.6114 24.9172C33.4692 25.0346 33.3147 25.0933 33.1478 25.0933L32.7955 25.0841C32.6162 25.0841 32.3597 25.0902 32.0259 25.1026L31.8312 25.1119C31.6952 25.1242 31.5932 25.1304 31.5252 25.1304C31.4263 25.1304 31.2904 25.118 31.1173 25.0933C31.142 25.3838 31.2502 25.6125 31.4418 25.7794C31.6334 25.9401 31.8405 26.0205 32.063 26.0205C32.4524 26.0205 32.7244 25.9432 32.8789 25.7887C33.0087 25.696 33.0953 25.6373 33.1385 25.6125C33.1818 25.5878 33.2498 25.5755 33.3425 25.5755C33.4414 25.5755 33.5279 25.6218 33.6021 25.7145C33.6763 25.8072 33.7134 25.9 33.7134 25.9927C33.7134 26.0978 33.6485 26.2059 33.5187 26.3172C33.395 26.4223 33.2251 26.5335 33.0087 26.651C32.8913 26.7004 32.7306 26.7437 32.5266 26.7808C32.3226 26.8179 32.1526 26.8364 32.0166 26.8364C31.8003 26.8364 31.5592 26.7746 31.2935 26.651C31.0277 26.5212 30.8299 26.379 30.7001 26.2245C30.5703 26.0699 30.4559 25.8505 30.357 25.5662C30.2643 25.2818 30.2179 24.9852 30.2179 24.6761ZM32.063 24.4258C32.5019 24.4258 32.8233 24.4103 33.0273 24.3794C33.0149 24.2001 32.9593 24.0549 32.8604 23.9436C32.7615 23.8262 32.6255 23.7273 32.4524 23.6469C32.3968 23.6222 32.3473 23.6037 32.3041 23.5913C32.2608 23.5789 32.2113 23.5728 32.1557 23.5728C31.8714 23.5728 31.6303 23.65 31.4325 23.8046C31.2409 23.9591 31.1266 24.1569 31.0895 24.3979C31.3985 24.4165 31.723 24.4258 32.063 24.4258ZM36.0833 26.4284C36.0833 26.5335 36.0431 26.6262 35.9628 26.7066C35.8824 26.787 35.7835 26.8271 35.6661 26.8271C35.4806 26.8271 35.3447 26.7931 35.2581 26.7251C35.1716 26.651 35.1283 26.5181 35.1283 26.3265C35.1283 26.0978 35.1221 25.798 35.1098 25.4271C35.0974 25.118 35.0912 24.8584 35.0912 24.6483C35.0912 24.5494 35.0974 24.4196 35.1098 24.2589C35.1221 24.1105 35.1283 23.9993 35.1283 23.9251C35.1098 23.8076 35.0634 23.7118 34.9892 23.6377C34.9151 23.5573 34.8193 23.5171 34.7018 23.5171C34.6462 23.5171 34.5998 23.4924 34.5627 23.443C34.5257 23.3873 34.5071 23.3317 34.5071 23.2761C34.5071 23.1339 34.5627 23.0257 34.674 22.9516C34.7914 22.8774 34.9305 22.8403 35.0912 22.8403C35.425 22.8403 35.6568 23.0381 35.7866 23.4337C35.9473 23.2483 36.1297 23.0999 36.3336 22.9886C36.5438 22.8712 36.7447 22.8125 36.9363 22.8125C37.165 22.8125 37.3721 22.8743 37.5575 22.9979C37.7491 23.1215 37.8449 23.2884 37.8449 23.4986C37.8449 23.616 37.7924 23.7366 37.6873 23.8602C37.5884 23.9838 37.4864 24.0456 37.3813 24.0456C37.3257 24.0456 37.2763 24.0333 37.233 24.0085C37.1959 23.9776 37.1495 23.9344 37.0939 23.8787C37.0321 23.8169 36.9796 23.7736 36.9363 23.7489C36.893 23.718 36.8436 23.7026 36.788 23.7026C36.6891 23.7026 36.5963 23.718 36.5098 23.7489C36.4233 23.7798 36.3645 23.8169 36.3336 23.8602C36.2347 24.0147 36.1606 24.1538 36.1111 24.2774C36.0678 24.401 36.0462 24.5339 36.0462 24.6761C36.0462 24.7812 36.0431 24.8646 36.0369 24.9264L36.0277 25.4549C36.0277 25.5353 36.0308 25.6249 36.0369 25.7238C36.0431 25.8227 36.0493 25.8969 36.0555 25.9463C36.074 26.1132 36.0833 26.2739 36.0833 26.4284ZM42.1142 25.9556C42.2193 26.0359 42.2903 26.1132 42.3274 26.1874C42.3645 26.2616 42.3831 26.3543 42.3831 26.4655C42.3831 26.5583 42.3336 26.6448 42.2347 26.7251C42.142 26.7993 42.0555 26.8364 41.9751 26.8364C41.9071 26.8364 41.8268 26.8148 41.734 26.7715C41.6413 26.7282 41.5702 26.6788 41.5208 26.6232C41.4528 26.5675 41.3199 26.4315 41.1221 26.2152C40.9305 25.9989 40.7883 25.8289 40.6956 25.7053C40.4731 25.4271 40.3618 25.288 40.3618 25.288L40.0373 24.8893L39.4439 25.3715L39.481 26.3821C39.481 26.549 39.4378 26.6664 39.3512 26.7344C39.2709 26.8024 39.1905 26.8364 39.1102 26.8364C38.9927 26.8364 38.8876 26.8148 38.7949 26.7715C38.7084 26.7282 38.6558 26.6788 38.6373 26.6232C38.5693 26.3759 38.5353 26.0514 38.5353 25.6496C38.5353 24.8955 38.5477 24.2929 38.5724 23.8416C38.5971 23.2792 38.6095 22.7476 38.6095 22.2469C38.6095 22.0924 38.5909 21.8791 38.5539 21.6072C38.5477 21.5515 38.5384 21.4619 38.526 21.3383C38.5137 21.2147 38.5075 21.1034 38.5075 21.0045C38.5075 20.8623 38.5539 20.7511 38.6466 20.6707C38.7455 20.5904 38.8722 20.5502 39.0267 20.5502C39.1503 20.5502 39.2492 20.5904 39.3234 20.6707C39.4038 20.7449 39.4439 20.85 39.4439 20.986C39.4439 21.1899 39.4501 21.4588 39.4625 21.7926C39.4748 22.1264 39.481 22.3705 39.481 22.5251C39.481 22.7167 39.4748 22.9732 39.4625 23.2946C39.4501 23.4677 39.4439 23.5975 39.4439 23.684C39.4439 23.956 39.447 24.1816 39.4532 24.3609C39.6757 24.1322 39.9724 23.8664 40.3433 23.5635C40.7203 23.2544 41.0139 23.0381 41.2241 22.9145C41.459 22.7723 41.6012 22.7012 41.6506 22.7012C41.7804 22.7012 41.8917 22.729 41.9844 22.7847C42.0771 22.8403 42.1235 22.9237 42.1235 23.035C42.1235 23.1463 42.108 23.2328 42.0771 23.2946C42.0462 23.3502 41.9906 23.409 41.9102 23.4708L40.7142 24.3423C40.9799 24.6699 41.255 25.0037 41.5393 25.3437C41.8237 25.6774 42.0153 25.8814 42.1142 25.9556ZM10.458 37.6602C10.3776 37.5552 10.3096 37.4408 10.254 37.3172C10.1984 37.1874 10.1396 37.0329 10.0778 36.8536C10.0655 36.8227 10.0284 36.73 9.96656 36.5755C9.91093 36.4209 9.84603 36.288 9.77186 36.1768C9.38244 36.2324 9.06412 36.2602 8.81687 36.2602C8.68089 36.2602 8.52945 36.2571 8.36256 36.2509C8.20185 36.2386 8.08131 36.2324 8.00096 36.2324C7.6919 36.2077 7.44466 36.1953 7.25922 36.1953C7.18505 36.2942 7.12015 36.3993 7.06452 36.5105C7.01507 36.6218 6.95017 36.7887 6.86981 37.0112C6.75855 37.3326 6.66274 37.5613 6.58239 37.6973C6.52676 37.79 6.41859 37.8364 6.25788 37.8364C6.12189 37.8364 5.99518 37.8086 5.87774 37.753C5.76648 37.6911 5.71085 37.6077 5.71085 37.5026C5.7603 37.2677 5.83756 37.0205 5.94264 36.7609C6.0539 36.4951 6.21152 36.1428 6.4155 35.7039L6.78637 34.7953C6.99034 34.2761 7.17578 33.831 7.34267 33.4602C7.51574 33.0893 7.74135 32.6504 8.0195 32.1436C8.05659 32.0694 8.1184 32.0076 8.20494 31.9581C8.29147 31.9025 8.38728 31.8747 8.49236 31.8747C8.6098 31.8747 8.69325 31.884 8.7427 31.9025C8.79833 31.9149 8.84159 31.9396 8.8725 31.9767C8.90341 32.0076 8.94976 32.0756 9.01158 32.1807C9.22173 32.5083 9.40099 32.8451 9.54934 33.1913C9.70386 33.5374 9.89857 34.0165 10.1335 34.6284L10.3282 35.1198C10.5012 35.5648 10.6496 35.9388 10.7732 36.2417C10.903 36.5384 11.0452 36.8103 11.1997 37.0576C11.2986 37.2183 11.348 37.3295 11.348 37.3914C11.348 37.5397 11.3017 37.6541 11.209 37.7344C11.1224 37.8086 11.0081 37.8457 10.8659 37.8457C10.6867 37.8457 10.5507 37.7839 10.458 37.6602ZM9.50298 35.4165C9.40408 35.2063 9.26191 34.8416 9.07648 34.3224C8.88486 33.7661 8.69325 33.3242 8.50163 32.9966C8.38419 33.2933 8.21112 33.6765 7.98242 34.1463C7.82789 34.4368 7.65173 34.8571 7.45393 35.4072C7.84952 35.4567 8.27602 35.4814 8.73342 35.4814C9.06103 35.4814 9.31754 35.4598 9.50298 35.4165ZM15.7859 34.6655C16.2372 34.7211 16.5709 34.8664 16.7873 35.1012C17.0098 35.33 17.1211 35.6143 17.1211 35.9542C17.1211 36.2942 16.9943 36.6156 16.7409 36.9185C16.4937 37.2214 16.1753 37.4563 15.7859 37.6232C15.6129 37.6911 15.3842 37.7406 15.0998 37.7715C14.8217 37.8024 14.5343 37.8179 14.2376 37.8179C13.7431 37.8179 13.2362 37.7715 12.717 37.6788C12.6243 37.6602 12.5254 37.6139 12.4203 37.5397C12.3214 37.4655 12.272 37.3574 12.272 37.2152C12.2658 36.6465 12.2441 35.8553 12.2071 34.8416L12.1978 34.3317C12.1731 33.5405 12.1607 32.9193 12.1607 32.4681C12.1607 32.3877 12.2071 32.295 12.2998 32.1899C12.3987 32.0787 12.5161 32.0169 12.6521 32.0045C12.7325 32.0045 12.8097 32.0014 12.8839 31.9952C13.5824 31.9272 14.049 31.8932 14.2839 31.8932C14.7475 31.8932 15.1555 31.9396 15.5078 32.0323C15.8663 32.1188 16.163 32.2796 16.3979 32.5144C16.4844 32.6133 16.5555 32.7401 16.6111 32.8946C16.6667 33.0429 16.6946 33.1882 16.6946 33.3304C16.7007 33.6332 16.6204 33.9114 16.4535 34.1648C16.2928 34.4182 16.0703 34.5851 15.7859 34.6655ZM14.3395 32.6813C14.1294 32.6813 13.91 32.6937 13.6813 32.7184C13.4587 32.7431 13.2702 32.774 13.1157 32.8111L13.1713 34.5635L13.5051 34.5542C14.0429 34.4986 14.4384 34.4522 14.6919 34.4151C14.8526 34.3781 15.0102 34.307 15.1647 34.2019C15.3193 34.0906 15.446 33.9763 15.5449 33.8588C15.65 33.7352 15.7025 33.6425 15.7025 33.5807C15.7025 33.488 15.6839 33.3953 15.6469 33.3025C15.6098 33.2036 15.5696 33.1326 15.5263 33.0893C15.3594 32.9286 15.1895 32.8204 15.0164 32.7648C14.8433 32.7091 14.6177 32.6813 14.3395 32.6813ZM13.1991 37.0019C13.5144 37.0452 13.8142 37.0669 14.0985 37.0669C14.7228 37.0669 15.2142 36.9865 15.5727 36.8258C15.9374 36.6589 16.1197 36.3437 16.1197 35.8801C16.1197 35.6946 15.9806 35.5401 15.7025 35.4165C15.4243 35.2929 15.1246 35.2311 14.8031 35.2311C14.5868 35.2311 14.3117 35.2558 13.978 35.3052C13.7122 35.3423 13.4526 35.367 13.1991 35.3794C13.2115 35.7503 13.2177 35.9852 13.2177 36.0841C13.2177 36.2757 13.2146 36.4209 13.2084 36.5198L13.1991 37.0019Z" fill="black" fill-opacity="0.2"/>
</svg>
