<svg width="16" height="16" viewBox="0 0 16 16" fill="none" xmlns="http://www.w3.org/2000/svg">
<path d="M9.19643 8.02813L7.4958 6.32782C7.46096 6.29286 7.41956 6.26512 7.37398 6.24619C7.3284 6.22726 7.27953 6.21752 7.23018 6.21752C7.18082 6.21752 7.13195 6.22726 7.08637 6.24619C7.04079 6.26512 6.99939 6.29286 6.96455 6.32782L0.389238 12.5313C0.352776 12.5656 0.323573 12.607 0.303356 12.6528C0.283139 12.6987 0.272317 12.7481 0.271531 12.7982C0.270744 12.8483 0.280008 12.8981 0.298776 12.9445C0.317544 12.991 0.345435 13.0332 0.380801 13.0688L2.44486 15.14C2.4803 15.1755 2.5225 15.2036 2.56898 15.2225C2.61546 15.2415 2.66526 15.2509 2.71545 15.2502C2.76563 15.2495 2.81516 15.2388 2.86112 15.2186C2.90708 15.1985 2.94852 15.1693 2.98299 15.1328L9.1958 8.55907C9.23075 8.52427 9.2585 8.48293 9.27746 8.4374C9.29641 8.39187 9.30619 8.34304 9.30625 8.29373C9.30631 8.24441 9.29664 8.19556 9.27779 8.14999C9.25895 8.10441 9.2313 8.063 9.19643 8.02813ZM15.6042 6.22907L14.2327 4.86719C14.1699 4.80467 14.0955 4.75519 14.0135 4.72161C13.9315 4.68804 13.8437 4.67103 13.7552 4.67157C13.6117 4.67172 13.4719 4.71698 13.3555 4.80094C13.3555 4.7875 13.3574 4.77438 13.3583 4.76282C13.3724 4.55969 13.3942 4.25282 13.1958 3.97469C12.9599 3.65669 12.7008 3.3565 12.4208 3.07657C12.42 3.07565 12.4192 3.07482 12.4183 3.07407C12.0021 2.66407 11.0961 1.89188 9.7083 1.32594C9.18173 1.1101 8.61802 0.999375 8.04893 1C7.06268 1 6.31268 1.445 6.02549 1.70875C5.74269 1.9668 5.55722 2.31425 5.50018 2.69282L6.00018 3C6.00018 3 6.25205 2.9375 6.4333 2.89407C6.62266 2.85366 6.81696 2.84155 7.00986 2.85813C7.42205 2.89219 7.90955 3.09688 8.12518 3.26719C8.4908 3.56125 8.66674 3.9575 8.6958 4.55125C8.70205 4.68344 8.3983 5.21844 7.9408 5.79625C7.90275 5.84429 7.88367 5.90463 7.88718 5.96582C7.8907 6.027 7.91656 6.08476 7.95986 6.12813L9.37768 7.54594C9.4231 7.59097 9.48405 7.61687 9.54799 7.61832C9.61194 7.61978 9.674 7.59667 9.72143 7.55375C10.0986 7.21 10.6742 6.67875 10.8049 6.59782C11.0452 6.45 11.2171 6.42157 11.2642 6.41657C11.3867 6.4046 11.5099 6.43056 11.6171 6.49094C11.6176 6.49629 11.617 6.50169 11.6153 6.5068C11.6137 6.51191 11.6109 6.51662 11.6074 6.52063L11.5505 6.57469L11.5411 6.58344C11.4783 6.64605 11.4284 6.72048 11.3945 6.80243C11.3605 6.88438 11.3431 6.97224 11.3433 7.06095C11.3434 7.14966 11.3611 7.23747 11.3953 7.31931C11.4295 7.40115 11.4796 7.47541 11.5427 7.53782L12.9161 8.90282C12.963 8.94938 13.0263 8.97551 13.0924 8.97551C13.1584 8.97551 13.2218 8.94938 13.2686 8.90282L15.6024 6.58407C15.6259 6.56095 15.6447 6.5334 15.6575 6.503C15.6704 6.4726 15.6771 6.43996 15.6773 6.40696C15.6774 6.37395 15.6711 6.34124 15.6585 6.31071C15.646 6.28018 15.6275 6.25243 15.6042 6.22907Z" fill="black"/>
</svg>
