<svg width="16" height="16" viewBox="0 0 16 16" fill="none" xmlns="http://www.w3.org/2000/svg">
<path d="M9.50026 1.01538L9.14076 1.35938L6.35976 4.15638L6.00026 4.49988L5.50026 4.99988L4.35976 6.15638L4.07826 6.43738L4.29726 6.78138C4.29726 6.78138 4.60226 7.24988 4.84426 7.76538C4.96526 8.02338 5.07426 8.29688 5.10926 8.48438C5.12726 8.57788 5.12926 8.63438 5.12526 8.65588C5.07026 8.69888 4.41226 9.22088 3.62526 9.85938C2.80526 10.5234 1.93376 11.2224 1.57826 11.5779C1.20475 11.9538 0.995117 12.4622 0.995117 12.9921C0.995117 13.5221 1.20475 14.0305 1.57826 14.4064C2.35176 15.1794 3.61326 15.1739 4.39076 14.4064H4.40626C4.76376 14.0489 5.48076 13.1914 6.14126 12.3749C6.54893 11.8709 6.9551 11.3658 7.35976 10.8594C7.35776 10.8614 7.38126 10.8279 7.56276 10.8594C7.74426 10.8904 8.00226 10.9844 8.25026 11.1094C8.58098 11.2797 8.89942 11.4728 9.20326 11.6874L9.54726 11.9374L9.84376 11.6404L11.0003 10.4999L11.5003 9.99988L11.8443 9.64038L14.6408 6.85938L14.9848 6.49988L14.6408 6.14038L9.86026 1.35988L9.50026 1.01538ZM10.1568 3.62488C10.2518 3.63288 10.3268 3.66988 10.3908 3.73438C10.6468 3.99188 10.2738 4.99438 10.0943 5.42188C9.91426 5.85188 9.97076 6.18738 10.2033 6.42188C10.5998 6.82188 11.6483 5.88088 12.0943 6.32788C12.5373 6.77538 11.7308 7.72638 12.0158 8.01538L12.0318 8.03138L11.1408 8.92138L7.07826 4.85938L7.76576 4.17188C7.77576 4.18338 7.78576 4.19138 7.79726 4.20288C8.13726 4.54488 8.83426 4.21838 9.12526 4.03088C9.46926 3.81088 9.87126 3.60138 10.1568 3.62488ZM6.35976 5.57788L10.4223 9.64038L10.2813 9.78138L9.42226 10.6564C9.22876 10.5234 9.09376 10.4139 8.70326 10.2189C8.40476 10.0704 8.08026 9.93388 7.73476 9.87488C7.38926 9.81588 6.95126 9.82988 6.64076 10.1404L6.62526 10.1719L6.60976 10.1874C6.60976 10.1874 6.01976 10.9354 5.35976 11.7499C4.69976 12.5644 3.93376 13.4724 3.70326 13.7029C3.30876 14.0979 2.69176 14.0979 2.29726 13.7029C2.20365 13.6113 2.12927 13.5019 2.07849 13.3812C2.02771 13.2605 2.00156 13.1308 2.00156 12.9999C2.00156 12.8689 2.02771 12.7393 2.07849 12.6186C2.12927 12.4978 2.20365 12.3885 2.29726 12.2969C2.52726 12.0664 3.43576 11.3009 4.25026 10.6404C5.06476 9.98038 5.81276 9.39038 5.81276 9.39038L5.82826 9.37488L5.85976 9.35938C6.17626 9.04438 6.15676 8.62688 6.09426 8.29688C6.03126 7.96688 5.89076 7.64438 5.75026 7.34338C5.56076 6.93738 5.44926 6.78888 5.32826 6.59338L6.21876 5.71838L6.35976 5.57788ZM3.12526 12.3279C2.98019 12.3279 2.84106 12.3855 2.73847 12.4881C2.63589 12.5907 2.57826 12.7298 2.57826 12.8749C2.57826 13.02 2.63589 13.1591 2.73847 13.2617C2.84106 13.3643 2.98019 13.4219 3.12526 13.4219C3.27034 13.4219 3.40947 13.3643 3.51205 13.2617C3.61463 13.1591 3.67226 13.02 3.67226 12.8749C3.67226 12.7298 3.61463 12.5907 3.51205 12.4881C3.40947 12.3855 3.27034 12.3279 3.12526 12.3279Z" fill="black"/>
</svg>
