<svg width="45" height="45" viewBox="0 0 45 45" fill="none" xmlns="http://www.w3.org/2000/svg">
<path d="M22.6667 28.9167C20.9649 28.9167 19.3328 28.2407 18.1294 27.0373C16.9261 25.8339 16.25 24.2018 16.25 22.5C16.25 20.7982 16.9261 19.1661 18.1294 17.9628C19.3328 16.7594 20.9649 16.0834 22.6667 16.0834C24.3685 16.0834 26.0006 16.7594 27.204 17.9628C28.4073 19.1661 29.0834 20.7982 29.0834 22.5C29.0834 24.2018 28.4073 25.8339 27.204 27.0373C26.0006 28.2407 24.3685 28.9167 22.6667 28.9167ZM36.2884 24.2784C36.3617 23.6917 36.4167 23.105 36.4167 22.5C36.4167 21.895 36.3617 21.29 36.2884 20.6667L40.1567 17.6784C40.505 17.4034 40.5967 16.9084 40.3767 16.505L36.71 10.1617C36.49 9.75836 35.995 9.59336 35.5917 9.75836L31.0267 11.5917C30.0734 10.8767 29.0834 10.2534 27.9284 9.79502L27.25 4.93669C27.2128 4.72076 27.1003 4.52497 26.9325 4.38403C26.7647 4.2431 26.5525 4.1661 26.3334 4.16669H19C18.5417 4.16669 18.1567 4.49669 18.0834 4.93669L17.405 9.79502C16.25 10.2534 15.26 10.8767 14.3067 11.5917L9.7417 9.75836C9.33836 9.59336 8.84336 9.75836 8.62336 10.1617L4.9567 16.505C4.71836 16.9084 4.82836 17.4034 5.1767 17.6784L9.04503 20.6667C8.9717 21.29 8.9167 21.895 8.9167 22.5C8.9167 23.105 8.9717 23.6917 9.04503 24.2784L5.1767 27.3217C4.82836 27.5967 4.71836 28.0917 4.9567 28.495L8.62336 34.8384C8.84336 35.2417 9.33836 35.3884 9.7417 35.2417L14.3067 33.39C15.26 34.1234 16.25 34.7467 17.405 35.205L18.0834 40.0634C18.1567 40.5034 18.5417 40.8334 19 40.8334H26.3334C26.7917 40.8334 27.1767 40.5034 27.25 40.0634L27.9284 35.205C29.0834 34.7284 30.0734 34.1234 31.0267 33.39L35.5917 35.2417C35.995 35.3884 36.49 35.2417 36.71 34.8384L40.3767 28.495C40.5967 28.0917 40.505 27.5967 40.1567 27.3217L36.2884 24.2784Z" fill="#03045E"/>
<path d="M22.6667 28.9167C20.9649 28.9167 19.3328 28.2407 18.1294 27.0373C16.9261 25.8339 16.25 24.2018 16.25 22.5C16.25 20.7982 16.9261 19.1661 18.1294 17.9628C19.3328 16.7594 20.9649 16.0834 22.6667 16.0834C24.3685 16.0834 26.0006 16.7594 27.204 17.9628C28.4073 19.1661 29.0834 20.7982 29.0834 22.5C29.0834 24.2018 28.4073 25.8339 27.204 27.0373C26.0006 28.2407 24.3685 28.9167 22.6667 28.9167ZM36.2884 24.2784C36.3617 23.6917 36.4167 23.105 36.4167 22.5C36.4167 21.895 36.3617 21.29 36.2884 20.6667L40.1567 17.6784C40.505 17.4034 40.5967 16.9084 40.3767 16.505L36.71 10.1617C36.49 9.75836 35.995 9.59336 35.5917 9.75836L31.0267 11.5917C30.0734 10.8767 29.0834 10.2534 27.9284 9.79502L27.25 4.93669C27.2128 4.72076 27.1003 4.52497 26.9325 4.38403C26.7647 4.2431 26.5525 4.1661 26.3334 4.16669H19C18.5417 4.16669 18.1567 4.49669 18.0834 4.93669L17.405 9.79502C16.25 10.2534 15.26 10.8767 14.3067 11.5917L9.7417 9.75836C9.33836 9.59336 8.84336 9.75836 8.62336 10.1617L4.9567 16.505C4.71836 16.9084 4.82836 17.4034 5.1767 17.6784L9.04503 20.6667C8.9717 21.29 8.9167 21.895 8.9167 22.5C8.9167 23.105 8.9717 23.6917 9.04503 24.2784L5.1767 27.3217C4.82836 27.5967 4.71836 28.0917 4.9567 28.495L8.62336 34.8384C8.84336 35.2417 9.33836 35.3884 9.7417 35.2417L14.3067 33.39C15.26 34.1234 16.25 34.7467 17.405 35.205L18.0834 40.0634C18.1567 40.5034 18.5417 40.8334 19 40.8334H26.3334C26.7917 40.8334 27.1767 40.5034 27.25 40.0634L27.9284 35.205C29.0834 34.7284 30.0734 34.1234 31.0267 33.39L35.5917 35.2417C35.995 35.3884 36.49 35.2417 36.71 34.8384L40.3767 28.495C40.5967 28.0917 40.505 27.5967 40.1567 27.3217L36.2884 24.2784Z" fill="black" fill-opacity="0.2"/>
</svg>
