<svg width="34" height="41" viewBox="0 0 34 41" fill="none" xmlns="http://www.w3.org/2000/svg">
<path d="M18 40.5L17.5 34.5H17C12.2667 34.5 8.25 32.85 4.95 29.55C1.65 26.25 0 22.2333 0 17.5C0 12.7667 1.65 8.75 4.95 5.45C8.25 2.15 12.2667 0.5 17 0.5C19.3667 0.5 21.5753 0.941333 23.626 1.824C25.6767 2.70667 27.4767 3.92333 29.026 5.474C30.5753 7.02467 31.7913 8.82467 32.674 10.874C33.5567 12.9233 33.9987 15.132 34 17.5C34 20 33.592 22.4 32.776 24.7C31.96 27 30.8427 29.1333 29.424 31.1C28.0053 33.0667 26.322 34.85 24.374 36.45C22.426 38.05 20.3013 39.4 18 40.5ZM16.95 28.45C17.5167 28.45 18 28.25 18.4 27.85C18.8 27.45 19 26.9667 19 26.4C19 25.8333 18.8 25.35 18.4 24.95C18 24.55 17.5167 24.35 16.95 24.35C16.3833 24.35 15.9 24.55 15.5 24.95C15.1 25.35 14.9 25.8333 14.9 26.4C14.9 26.9667 15.1 27.45 15.5 27.85C15.9 28.25 16.3833 28.45 16.95 28.45ZM15.5 22.1H18.5C18.5 21.1 18.6 20.4 18.8 20C19 19.6 19.6333 18.8667 20.7 17.8C21.3 17.2 21.8 16.55 22.2 15.85C22.6 15.15 22.8 14.4 22.8 13.6C22.8 11.9 22.2253 10.6247 21.076 9.774C19.9267 8.92333 18.568 8.49867 17 8.5C15.5333 8.5 14.3 8.90867 13.3 9.726C12.3 10.5433 11.6 11.5347 11.2 12.7L14 13.8C14.1667 13.2333 14.4833 12.6753 14.95 12.126C15.4167 11.5767 16.1 11.3013 17 11.3C17.9 11.2987 18.5753 11.5487 19.026 12.05C19.4767 12.5513 19.7013 13.1013 19.7 13.7C19.7 14.2667 19.5333 14.7753 19.2 15.226C18.8667 15.6767 18.4667 16.1347 18 16.6C16.8333 17.6 16.1253 18.392 15.876 18.976C15.6267 19.56 15.5013 20.6013 15.5 22.1Z" fill="#03045E"/>
<path d="M18 40.5L17.5 34.5H17C12.2667 34.5 8.25 32.85 4.95 29.55C1.65 26.25 0 22.2333 0 17.5C0 12.7667 1.65 8.75 4.95 5.45C8.25 2.15 12.2667 0.5 17 0.5C19.3667 0.5 21.5753 0.941333 23.626 1.824C25.6767 2.70667 27.4767 3.92333 29.026 5.474C30.5753 7.02467 31.7913 8.82467 32.674 10.874C33.5567 12.9233 33.9987 15.132 34 17.5C34 20 33.592 22.4 32.776 24.7C31.96 27 30.8427 29.1333 29.424 31.1C28.0053 33.0667 26.322 34.85 24.374 36.45C22.426 38.05 20.3013 39.4 18 40.5ZM16.95 28.45C17.5167 28.45 18 28.25 18.4 27.85C18.8 27.45 19 26.9667 19 26.4C19 25.8333 18.8 25.35 18.4 24.95C18 24.55 17.5167 24.35 16.95 24.35C16.3833 24.35 15.9 24.55 15.5 24.95C15.1 25.35 14.9 25.8333 14.9 26.4C14.9 26.9667 15.1 27.45 15.5 27.85C15.9 28.25 16.3833 28.45 16.95 28.45ZM15.5 22.1H18.5C18.5 21.1 18.6 20.4 18.8 20C19 19.6 19.6333 18.8667 20.7 17.8C21.3 17.2 21.8 16.55 22.2 15.85C22.6 15.15 22.8 14.4 22.8 13.6C22.8 11.9 22.2253 10.6247 21.076 9.774C19.9267 8.92333 18.568 8.49867 17 8.5C15.5333 8.5 14.3 8.90867 13.3 9.726C12.3 10.5433 11.6 11.5347 11.2 12.7L14 13.8C14.1667 13.2333 14.4833 12.6753 14.95 12.126C15.4167 11.5767 16.1 11.3013 17 11.3C17.9 11.2987 18.5753 11.5487 19.026 12.05C19.4767 12.5513 19.7013 13.1013 19.7 13.7C19.7 14.2667 19.5333 14.7753 19.2 15.226C18.8667 15.6767 18.4667 16.1347 18 16.6C16.8333 17.6 16.1253 18.392 15.876 18.976C15.6267 19.56 15.5013 20.6013 15.5 22.1Z" fill="black" fill-opacity="0.2"/>
</svg>
