<svg width="35" height="38" viewBox="0 0 35 38" fill="none" xmlns="http://www.w3.org/2000/svg">
<path d="M17.5 18.8462C19.3637 18.8462 21.1856 18.2935 22.7352 17.2581C24.2848 16.2227 25.4926 14.751 26.2058 13.0291C26.919 11.3073 27.1056 9.41263 26.742 7.58473C26.3784 5.75683 25.481 4.0778 24.1631 2.75996C22.8453 1.44212 21.1663 0.544658 19.3384 0.181066C17.5105 -0.182525 15.6158 0.00408286 13.8939 0.717293C12.1721 1.4305 10.7004 2.63828 9.665 4.1879C8.62958 5.73752 8.07692 7.55937 8.07692 9.42308C8.07692 11.9222 9.06971 14.319 10.8369 16.0862C12.604 17.8534 15.0008 18.8462 17.5 18.8462ZM17.5 21.5385C11.6594 21.5385 0 25.1462 0 32.3077V37.6923H35V32.3077C35 25.1462 23.3406 21.5385 17.5 21.5385Z" fill="#03045E"/>
</svg>
